{
copyright = "Copyright (c) 2013 by Alessio Laiso (alessio.laiso@gmail.com). Licensed under the SIL Open Font License, Version 1.2.2";
customParameters = (
{
name = license;

glyphs = (
{
glyphname = .notdef;
layers = (
{
layerId = "18B4A443-2C69-4DCB-9619-77A7DD6AC8EC";
name = Light;
paths = (
{
closed = 1;
nodes = (
"221 546 LINE SMOOTH",
"223 542 OFFCURVE",
"225 541 OFFCURVE",
"230 541 CURVE SMOOTH",
"232 541 OFFCURVE",
"236 543 OFFCURVE",
"241 547 CURVE SMOOTH",
"246 551 OFFCURVE",
"253 555 OFFCURVE",
"261 560 CURVE SMOOTH",
"269 565 OFFCURVE",
"280 569 OFFCURVE",
"291 573 CURVE SMOOTH",
"302 577 OFFCURVE",
"316 578 OFFCURVE",
"331 578 CURVE SMOOTH",
"343 578 OFFCURVE",
"354 577 OFFCURVE",
"364 573 CURVE SMOOTH",
"374 569 OFFCURVE",
"382 564 OFFCURVE",
"389 558 CURVE SMOOTH",
"396 552 OFFCURVE",
"401 543 OFFCURVE",
"405 534 CURVE SMOOTH",
"409 525 OFFCURVE",
"409 514 OFFCURVE",
"408 502 CURVE",
"406 486 OFFCURVE",
"402 473 OFFCURVE",
"395 462 CURVE SMOOTH",
"388 451 OFFCURVE",
"379 441 OFFCURVE",
"370 432 CURVE SMOOTH",
"361 423 OFFCURVE",
"351 416 OFFCURVE",
"340 409 CURVE SMOOTH",
"329 402 OFFCURVE",
"319 395 OFFCURVE",
"310 388 CURVE SMOOTH",
"301 381 OFFCURVE",
"293 373 OFFCURVE",
"287 365 CURVE SMOOTH",
"281 357 OFFCURVE",
"278 348 OFFCURVE",
"277 338 CURVE SMOOTH",
"273 277 LINE",
"305 277 LINE",
"317 334 LINE",
"319 342 OFFCURVE",
"323 350 OFFCURVE",
"330 356 CURVE SMOOTH",
"337 362 OFFCURVE",
"345 369 OFFCURVE",
"354 376 CURVE SMOOTH",
"363 383 OFFCURVE",
"373 389 OFFCURVE",
"384 397 CURVE SMOOTH",
"395 405 OFFCURVE",
"405 413 OFFCURVE",
"414 423 CURVE SMOOTH",
"423 433 OFFCURVE",
"432 445 OFFCURVE",
"439 458 CURVE SMOOTH",
"446 471 OFFCURVE",
"451 487 OFFCURVE",
"453 505 CURVE SMOOTH",
"455 522 OFFCURVE",
"454 538 OFFCURVE",
"449 552 CURVE SMOOTH",
"444 566 OFFCURVE",
"436 577 OFFCURVE",
"426 587 CURVE SMOOTH",
"416 597 OFFCURVE",
"404 605 OFFCURVE",
"389 610 CURVE SMOOTH",
"374 615 OFFCURVE",
"357 618 OFFCURVE",
"339 618 CURVE SMOOTH",
"325 618 OFFCURVE",
"312 616 OFFCURVE",
"300 613 CURVE SMOOTH",
"288 610 OFFCURVE",
"277 607 OFFCURVE",
"266 602 CURVE SMOOTH",
"255 597 OFFCURVE",
"245 592 OFFCURVE",
"236 586 CURVE SMOOTH",
"227 580 OFFCURVE",
"219 574 OFFCURVE",
"211 567 CURVE"
);
},
{
closed = 1;
nodes = (
"230 122 OFFCURVE",
"233 113 OFFCURVE",
"239 105 CURVE SMOOTH",
"245 97 OFFCURVE",
"254 94 OFFCURVE",
"265 94 CURVE SMOOTH",
"276 94 OFFCURVE",
"285 97 OFFCURVE",
"293 105 CURVE SMOOTH",
"301 113 OFFCURVE",
"307 122 OFFCURVE",
"308 133 CURVE SMOOTH",
"309 144 OFFCURVE",
"306 152 OFFCURVE",
"300 160 CURVE SMOOTH",
"294 168 OFFCURVE",
"286 172 OFFCURVE",
"275 172 CURVE SMOOTH",
"264 172 OFFCURVE",
"254 168 OFFCURVE",
"246 160 CURVE SMOOTH",
"238 152 OFFCURVE",
"232 144 OFFCURVE",
"231 133 CURVE SMOOTH"
);
},
{
closed = 1;
nodes = (
"120 708 LINE",
"34 0 LINE",
"499 0 LINE",
"586 708 LINE"
);
},
{
closed = 1;
nodes = (
"53 18 LINE",
"136 690 LINE",
"565 690 LINE",
"483 18 LINE"
);
}
);
width = 622;
}
);
note = .notdef;
},
{
color = 4;
glyphname = exclam;
lastChange = "2015-10-08 14:48:18 +0000";
layers = (
{
layerId = "18B4A443-2C69-4DCB-9619-77A7DD6AC8EC";
name = Light;
paths = (
{
closed = 1;
nodes = (
"180 708 LINE",
"133 708 LINE",
"98 422 LINE SMOOTH",
"93 380 OFFCURVE",
"85 286 OFFCURVE",
"83 244 CURVE",
"116 244 LINE",
"125 286 OFFCURVE",
"139 380 OFFCURVE",
"144 422 CURVE SMOOTH"
);
},
{
closed = 1;
nodes = (
"92 -8 OFFCURVE",
"116 14 OFFCURVE",
"118 39 CURVE SMOOTH",
"121 63 OFFCURVE",
"104 85 OFFCURVE",
"78 85 CURVE SMOOTH",
"52 85 OFFCURVE",
"28 63 OFFCURVE",
"26 39 CURVE SMOOTH",
"24 14 OFFCURVE",
"41 -8 OFFCURVE",
"67 -8 CURVE SMOOTH"
);
}
);
width = 216;
}
);
note = exclam;
unicode = 0021;
},
{
color = 4;
glyphname = quotedbl;
lastChange = "2015-10-08 14:48:40 +0000";
layers = (
{
layerId = "18B4A443-2C69-4DCB-9619-77A7DD6AC8EC";
name = Light;
paths = (
{
closed = 1;
nodes = (
"130 708 LINE",
"89 708 LINE",
"71 562 LINE",
"66 485 LINE",
"66 478 OFFCURVE",
"67 467 OFFCURVE",
"80 467 CURVE SMOOTH",
"90 467 OFFCURVE",
"97 476 OFFCURVE",
"99 485 CURVE SMOOTH",
"112 562 LINE"
);
},
{
closed = 1;
nodes = (
"275 708 LINE",
"234 708 LINE",
"216 562 LINE",
"211 485 LINE",
"211 478 OFFCURVE",
"212 467 OFFCURVE",
"225 467 CURVE SMOOTH",
"235 467 OFFCURVE",
"242 476 OFFCURVE",
"244 485 CURVE SMOOTH",
"257 562 LINE"
);
}
);
width = 323;
}
);
note = quotedbl;
unicode = 0022;
},
{
color = 4;
glyphname = numbersign;
lastChange = "2015-10-08 14:49:19 +0000";
layers = (
{
layerId = "18B4A443-2C69-4DCB-9619-77A7DD6AC8EC";
name = Light;
paths = (
{
closed = 1;
nodes = (
"358 222 LINE",
"488 222 LINE",
"493 244 LINE",
"494 253 OFFCURVE",
"490 256 OFFCURVE",
"480 256 CURVE SMOOTH",
"367 256 LINE",
"432 451 LINE",
"524 451 LINE SMOOTH",
"537 451 OFFCURVE",
"546 457 OFFCURVE",
"549 468 CURVE SMOOTH",
"554 486 LINE",
"441 486 LINE",
"511 692 LINE",
"512 702 OFFCURVE",
"507 708 OFFCURVE",
"497 708 CURVE SMOOTH",
"476 708 LINE",
"401 486 LINE",
"252 486 LINE",
"327 708 LINE",
"306 708 LINE SMOOTH",
"297 708 OFFCURVE",
"286 703 OFFCURVE",
"281 688 CURVE SMOOTH",
"212 486 LINE",
"106 486 LINE SMOOTH",
"93 486 OFFCURVE",
"85 481 OFFCURVE",
"82 470 CURVE SMOOTH",
"77 451 LINE",
"203 451 LINE",
"138 256 LINE",
"29 256 LINE",
"24 236 LINE",
"23 230 OFFCURVE",
"25 222 OFFCURVE",
"37 222 CURVE SMOOTH",
"129 222 LINE",
"55 0 LINE",
"76 0 LINE SMOOTH",
"91 0 OFFCURVE",
"95 7 OFFCURVE",
"101 20 CURVE",
"169 222 LINE",
"318 222 LINE",
"249 16 LINE",
"247 6 OFFCURVE",
"253 0 OFFCURVE",
"263 0 CURVE SMOOTH",
"284 0 LINE"
);
},
{
closed = 1;
nodes = (
"178 256 LINE",
"243 451 LINE",
"392 451 LINE",
"327 256 LINE"
);
}
);
width = 577;
}
);
note = numbersign;
unicode = 0023;
},
{
color = 4;
glyphname = dollar;
lastChange = "2015-10-08 14:51:04 +0000";
layers = (
{
layerId = "18B4A443-2C69-4DCB-9619-77A7DD6AC8EC";
name = Light;
paths = (
{
closed = 1;
nodes = (
"176 -128 LINE",
"194 -128 LINE SMOOTH",
"204 -128 OFFCURVE",
"208 -122 OFFCURVE",
"210 -113 CURVE",
"229 -8 LINE",
"360 0 OFFCURVE",
"452 81 OFFCURVE",
"469 206 CURVE",
"480 315 OFFCURVE",
"415 348 OFFCURVE",
"297 387 CURVE",
"346 673 LINE",
"390 669 OFFCURVE",
"432 652 OFFCURVE",
"460 624 CURVE SMOOTH",
"469 615 OFFCURVE",
"479 613 OFFCURVE",
"489 624 CURVE",
"502 641 LINE",
"464 686 OFFCURVE",
"413 709 OFFCURVE",
"353 713 CURVE",
"371 814 LINE",
"353 814 LINE SMOOTH",
"345 814 OFFCURVE",
"338 806 OFFCURVE",
"336 798 CURVE SMOOTH",
"321 714 LINE",
"213 710 OFFCURVE",
"115 642 OFFCURVE",
"101 532 CURVE SMOOTH",
"88 428 OFFCURVE",
"148 385 OFFCURVE",
"259 350 CURVE",
"204 32 LINE",
"144 34 OFFCURVE",
"100 60 OFFCURVE",
"54 106 CURVE SMOOTH",
"47 113 OFFCURVE",
"38 115 OFFCURVE",
"29 104 CURVE",
"13 84 LINE",
"58 26 OFFCURVE",
"122 -4 OFFCURVE",
"197 -8 CURVE"
);
},
{
closed = 1;
nodes = (
"410 101 OFFCURVE",
"336 39 OFFCURVE",
"236 32 CURVE",
"289 341 LINE",
"369 316 OFFCURVE",
"434 283 OFFCURVE",
"423 199 CURVE SMOOTH"
);
},
{
closed = 1;
nodes = (
"155 614 OFFCURVE",
"225 670 OFFCURVE",
"314 674 CURVE",
"266 398 LINE",
"188 424 OFFCURVE",
"135 460 OFFCURVE",
"146 536 CURVE SMOOTH"
);
}
);
width = 525;
}
);
note = dollar;
unicode = 0024;
},
{
color = 4;
glyphname = percent;
lastChange = "2015-10-08 14:58:43 +0000";
layers = (
{
layerId = "18B4A443-2C69-4DCB-9619-77A7DD6AC8EC";
name = Light;
paths = (
{
closed = 1;
nodes = (
"362 637 OFFCURVE",
"316 716 OFFCURVE",
"221 716 CURVE SMOOTH",
"128 716 OFFCURVE",
"66 645 OFFCURVE",
"51 538 CURVE SMOOTH",
"39 443 OFFCURVE",
"78 361 OFFCURVE",
"178 361 CURVE SMOOTH",
"270 361 OFFCURVE",
"333 432 OFFCURVE",
"348 538 CURVE SMOOTH"
);
},
{
closed = 1;
nodes = (
"300 453 OFFCURVE",
"257 393 OFFCURVE",
"182 393 CURVE SMOOTH",
"104 393 OFFCURVE",
"80 456 OFFCURVE",
"89 538 CURVE SMOOTH",
"98 613 OFFCURVE",
"138 683 OFFCURVE",
"217 683 CURVE SMOOTH",
"291 683 OFFCURVE",
"320 627 OFFCURVE",
"310 538 CURVE SMOOTH"
);
},
{
closed = 1;
nodes = (
"44 0 LINE",
"78 0 LINE SMOOTH",
"85 0 OFFCURVE",
"91 3 OFFCURVE",
"96 9 CURVE SMOOTH",
"690 708 LINE",
"656 708 LINE SMOOTH",
"649 708 OFFCURVE",
"640 703 OFFCURVE",
"637 698 CURVE"
);
},
{
closed = 1;
nodes = (
"699 269 OFFCURVE",
"654 346 OFFCURVE",
"558 346 CURVE SMOOTH",
"463 346 OFFCURVE",
"402 273 OFFCURVE",
"388 168 CURVE SMOOTH",
"375 73 OFFCURVE",
"416 -8 OFFCURVE",
"515 -8 CURVE SMOOTH",
"608 -8 OFFCURVE",
"670 62 OFFCURVE",
"685 168 CURVE SMOOTH"
);
},
{
closed = 1;
nodes = (
"637 85 OFFCURVE",
"594 24 OFFCURVE",
"519 24 CURVE SMOOTH",
"442 24 OFFCURVE",
"416 87 OFFCURVE",
"426 168 CURVE SMOOTH",
"434 244 OFFCURVE",
"474 314 OFFCURVE",
"555 314 CURVE SMOOTH",
"628 314 OFFCURVE",
"657 257 OFFCURVE",
"647 168 CURVE SMOOTH"
);
}
);
width = 730;
}
);
note = percent;
unicode = 0025;
},
{
color = 4;
glyphname = ampersand;
lastChange = "2015-10-08 15:00:53 +0000";
layers = (
{
layerId = "18B4A443-2C69-4DCB-9619-77A7DD6AC8EC";
name = Light;
paths = (
{
closed = 1;
nodes = (
"270 716 OFFCURVE",
"186 650 OFFCURVE",
"173 552 CURVE SMOOTH",
"165 491 OFFCURVE",
"184 448 OFFCURVE",
"224 394 CURVE",
"130 360 OFFCURVE",
"43 281 OFFCURVE",
"29 181 CURVE SMOOTH",
"15 75 OFFCURVE",
"94 -8 OFFCURVE",
"209 -8 CURVE SMOOTH",
"304 -8 OFFCURVE",
"410 40 OFFCURVE",
"475 112 CURVE",
"565 11 LINE",
"572 3 OFFCURVE",
"579 0 OFFCURVE",
"591 0 CURVE SMOOTH",
"636 0 LINE",
"505 146 LINE",
"550 202 OFFCURVE",
"583 270 OFFCURVE",
"594 338 CURVE",
"566 338 LINE SMOOTH",
"559 338 OFFCURVE",
"554 332 OFFCURVE",
"552 324 CURVE SMOOTH",
"539 273 OFFCURVE",
"512 216 OFFCURVE",
"480 174 CURVE",
"284 394 LINE SMOOTH",
"237 446 OFFCURVE",
"211 492 OFFCURVE",
"218 553 CURVE SMOOTH",
"227 624 OFFCURVE",
"286 678 OFFCURVE",
"367 678 CURVE SMOOTH",
"428 678 OFFCURVE",
"471 636 OFFCURVE",
"477 580 CURVE",
"478 573 OFFCURVE",
"484 567 OFFCURVE",
"497 569 CURVE",
"519 574 LINE",
"527 654 OFFCURVE",
"454 716 OFFCURVE",
"371 716 CURVE SMOOTH"
);
},
{
closed = 1;
nodes = (
"87 263 OFFCURVE",
"155 334 OFFCURVE",
"244 369 CURVE",
"451 138 LINE",
"388 71 OFFCURVE",
"310 31 OFFCURVE",
"221 31 CURVE SMOOTH",
"135 31 OFFCURVE",
"67 91 OFFCURVE",
"78 184 CURVE SMOOTH"
);
}
);
width = 662;
}
);
note = ampersand;
unicode = 0026;
},
{
color = 4;
glyphname = quotesingle;
lastChange = "2015-10-08 15:01:03 +0000";
layers = (
{
layerId = "18B4A443-2C69-4DCB-9619-77A7DD6AC8EC";
name = Light;
paths = (
{
closed = 1;
nodes = (
"130 708 LINE",
"89 708 LINE",
"71 562 LINE",
"66 485 LINE",
"66 478 OFFCURVE",
"67 467 OFFCURVE",
"80 467 CURVE SMOOTH",
"90 467 OFFCURVE",
"97 476 OFFCURVE",
"99 485 CURVE SMOOTH",
"112 562 LINE"
);
}
);
width = 178;
}
);
note = quotesingle;
unicode = 0027;
},
{
color = 4;
glyphname = parenleft;
lastChange = "2015-10-08 15:04:41 +0000";
layers = (
{
layerId = "18B4A443-2C69-4DCB-9619-77A7DD6AC8EC";
name = Light;
paths = (
{
closed = 1;
nodes = (
"141 570 OFFCURVE",
"260 729 CURVE SMOOTH",
"263 732 OFFCURVE",
"269 745 OFFCURVE",
"259 750 CURVE",
"240 763 LINE",
"106 588 OFFCURVE",
"41 423 OFFCURVE",
"41 202 CURVE SMOOTH",
"41 87 OFFCURVE",
"73 -28 OFFCURVE",
"130 -133 CURVE",
"152 -120 LINE",
"160 -115 OFFCURVE",
"163 -107 OFFCURVE",
"159 -98 CURVE SMOOTH",
"111 -3 OFFCURVE",
"86 97 OFFCURVE",
"83 203 CURVE SMOOTH",
"78 388 OFFCURVE"
);
}
);
width = 282;
}
);
note = parenleft;
unicode = 0028;
},
{
color = 4;
glyphname = parenright;
lastChange = "2015-10-08 15:05:02 +0000";
layers = (
{
layerId = "18B4A443-2C69-4DCB-9619-77A7DD6AC8EC";
name = Light;
paths = (
{
closed = 1;
nodes = (
"141 60 OFFCURVE",
"22 -99 CURVE SMOOTH",
"19 -102 OFFCURVE",
"13 -115 OFFCURVE",
"23 -120 CURVE",
"42 -133 LINE",
"176 42 OFFCURVE",
"241 207 OFFCURVE",
"241 428 CURVE SMOOTH",
"241 543 OFFCURVE",
"209 658 OFFCURVE",
"152 763 CURVE",
"130 750 LINE",
"122 745 OFFCURVE",
"119 737 OFFCURVE",
"123 728 CURVE SMOOTH",
"171 633 OFFCURVE",
"196 533 OFFCURVE",
"199 427 CURVE SMOOTH",
"204 242 OFFCURVE"
);
}
);
width = 288;
}
);
note = parenright;
unicode = 0029;
},
{
color = 4;
glyphname = asterisk;
lastChange = "2015-10-08 15:05:37 +0000";
layers = (
{
layerId = "18B4A443-2C69-4DCB-9619-77A7DD6AC8EC";
name = Light;
paths = (
{
closed = 1;
nodes = (
"159 448 LINE",
"185 448 LINE",
"198 556 LINE",
"200 565 OFFCURVE",
"198 568 OFFCURVE",
"195 586 CURVE",
"198 582 OFFCURVE",
"208 570 OFFCURVE",
"216 565 CURVE SMOOTH",
"305 510 LINE",
"320 532 LINE",
"232 588 LINE SMOOTH",
"224 593 OFFCURVE",
"216 595 OFFCURVE",
"204 597 CURVE",
"216 599 OFFCURVE",
"219 599 OFFCURVE",
"235 608 CURVE",
"335 662 LINE",
"325 684 LINE",
"224 630 LINE SMOOTH",
"214 625 OFFCURVE",
"206 618 OFFCURVE",
"198 608 CURVE",
"204 621 OFFCURVE",
"206 626 OFFCURVE",
"208 640 CURVE",
"221 746 LINE",
"195 746 LINE",
"182 639 LINE",
"181 630 OFFCURVE",
"183 617 OFFCURVE",
"186 607 CURVE",
"182 613 OFFCURVE",
"173 625 OFFCURVE",
"164 630 CURVE SMOOTH",
"76 685 LINE",
"60 662 LINE",
"149 607 LINE",
"152 605 OFFCURVE",
"164 599 OFFCURVE",
"176 597 CURVE",
"171 596 OFFCURVE",
"154 592 OFFCURVE",
"146 587 CURVE",
"46 532 LINE",
"55 510 LINE",
"156 565 LINE",
"167 571 OFFCURVE",
"172 572 OFFCURVE",
"182 585 CURVE",
"177 576 OFFCURVE",
"175 571 OFFCURVE",
"172 555 CURVE"
);
}
);
width = 372;
}
);
note = asterisk;
unicode = 002A;
},
{
color = 4;
glyphname = plus;
lastChange = "2015-10-08 15:05:41 +0000";
layers = (
{
layerId = "18B4A443-2C69-4DCB-9619-77A7DD6AC8EC";
name = Light;
paths = (
{
closed = 1;
nodes = (
"326 579 LINE",
"287 579 LINE",
"259 354 LINE",
"44 354 LINE",
"40 317 LINE",
"255 317 LINE",
"227 90 LINE",
"266 90 LINE",
"294 317 LINE",
"510 317 LINE",
"514 354 LINE",
"298 354 LINE"
);
}
);
width = 551;
}
);
note = plus;
unicode = 002B;
},
{
color = 4;
glyphname = comma;
lastChange = "2015-10-08 17:15:30 +0000";
layers = (
{
layerId = "18B4A443-2C69-4DCB-9619-77A7DD6AC8EC";
name = Light;
paths = (
{
closed = 1;
nodes = (
"66 17 OFFCURVE",
"82 -2 OFFCURVE",
"107 -2 CURVE SMOOTH",
"113 -2 OFFCURVE",
"119 -1 OFFCURVE",
"122 0 CURVE",
"113 -35 OFFCURVE",
"82 -83 OFFCURVE",
"59 -101 CURVE",
"52 -108 OFFCURVE",
"50 -112 OFFCURVE",
"56 -119 CURVE",
"63 -126 LINE",
"110 -88 OFFCURVE",
"150 -26 OFFCURVE",
"158 31 CURVE SMOOTH",
"162 62 OFFCURVE",
"149 85 OFFCURVE",
"119 85 CURVE SMOOTH",
"95 85 OFFCURVE",
"72 65 OFFCURVE",
"70 42 CURVE"
);
}
);
width = 226;
}
);
note = comma;
unicode = 002C;
},
{
color = 4;
glyphname = hyphen;
lastChange = "2015-10-08 15:05:58 +0000";
layers = (
{
layerId = "18B4A443-2C69-4DCB-9619-77A7DD6AC8EC";
name = Light;
paths = (
{
closed = 1;
nodes = (
"69 317 LINE",
"64 276 LINE",
"296 276 LINE",
"301 317 LINE"
);
}
);
width = 363;
}
);
note = hyphen;
unicode = 002D;
},
{
color = 4;
glyphname = period;
lastChange = "2015-10-08 17:13:00 +0000";
layers = (
{
layerId = "18B4A443-2C69-4DCB-9619-77A7DD6AC8EC";
name = Light;
paths = (
{
closed = 1;
nodes = (
"124 -8 OFFCURVE",
"148 14 OFFCURVE",
"150 39 CURVE SMOOTH",
"153 63 OFFCURVE",
"136 85 OFFCURVE",
"110 85 CURVE SMOOTH",
"84 85 OFFCURVE",
"60 63 OFFCURVE",
"58 39 CURVE SMOOTH",
"56 14 OFFCURVE",
"73 -8 OFFCURVE",
"99 -8 CURVE SMOOTH"
);
}
);
width = 220;
}
);
note = period;
unicode = 002E;
},
{
color = 4;
glyphname = slash;
lastChange = "2015-10-08 17:13:21 +0000";
layers = (
{
layerId = "18B4A443-2C69-4DCB-9619-77A7DD6AC8EC";
name = Light;
paths = (
{
closed = 1;
nodes = (
"472 728 LINE",
"452 728 LINE SMOOTH",
"439 728 OFFCURVE",
"430 721 OFFCURVE",
"423 709 CURVE",
"20 -42 LINE",
"39 -42 LINE SMOOTH",
"48 -42 OFFCURVE",
"64 -36 OFFCURVE",
"70 -22 CURVE"
);
}
);
width = 493;
}
);
note = slash;
unicode = 002F;
},
{
color = 4;
glyphname = zero;
lastChange = "2015-10-09 07:38:48 +0000";
layers = (
{
layerId = "18B4A443-2C69-4DCB-9619-77A7DD6AC8EC";
name = Light;
paths = (
{
closed = 1;
nodes = (
"582 552 OFFCURVE",
"519 716 OFFCURVE",
"347 716 CURVE SMOOTH",
"171 716 OFFCURVE",
"74 550 OFFCURVE",
"49 354 CURVE SMOOTH",
"25 163 OFFCURVE",
"79 -8 OFFCURVE",
"258 -8 CURVE SMOOTH",
"429 -8 OFFCURVE",
"530 151 OFFCURVE",
"556 354 CURVE SMOOTH"
);
},
{
closed = 1;
nodes = (
"485 179 OFFCURVE",
"407 33 OFFCURVE",
"263 33 CURVE SMOOTH",
"114 33 OFFCURVE",
"77 190 OFFCURVE",
"98 354 CURVE SMOOTH",
"119 515 OFFCURVE",
"191 676 OFFCURVE",
"342 676 CURVE SMOOTH",
"486 676 OFFCURVE",
"528 532 OFFCURVE",
"506 354 CURVE SMOOTH"
);
}
);
width = 606;
}
);
note = zero;
unicode = 0030;
},
{
color = 4;
glyphname = one;
lastChange = "2015-10-09 07:40:20 +0000";
layers = (
{
layerId = "18B4A443-2C69-4DCB-9619-77A7DD6AC8EC";
name = Light;
paths = (
{
closed = 1;
nodes = (
"387 0 LINE",
"389 16 LINE SMOOTH",
"390 25 OFFCURVE",
"385 30 OFFCURVE",
"374 31 CURVE",
"237 38 LINE",
"319 710 LINE",
"282 710 LINE",
"56 530 LINE",
"68 510 LINE",
"73 503 OFFCURVE",
"84 502 OFFCURVE",
"92 508 CURVE SMOOTH",
"265 647 LINE",
"260 611 LINE",
"189 38 LINE",
"189 38 OFFCURVE",
"45 31 OFFCURVE",
"42 31 CURVE",
"31 30 OFFCURVE",
"25 25 OFFCURVE",
"24 16 CURVE SMOOTH",
"22 0 LINE"
);
}
);
width = 414;
}
);
note = one;
unicode = 0031;
},
{
color = 4;
glyphname = two;
lastChange = "2015-10-09 07:41:48 +0000";
layers = (
{
layerId = "18B4A443-2C69-4DCB-9619-77A7DD6AC8EC";
name = Light;
paths = (
{
closed = 1;
nodes = (
"471 134 LINE SMOOTH",
"457 134 OFFCURVE",
"449 126 OFFCURVE",
"446 110 CURVE",
"433 45 LINE",
"161 45 LINE SMOOTH",
"145 45 OFFCURVE",
"111 42 OFFCURVE",
"92 37 CURVE",
"341 263 LINE SMOOTH",
"443 356 OFFCURVE",
"514 423 OFFCURVE",
"526 525 CURVE SMOOTH",
"541 644 OFFCURVE",
"467 715 OFFCURVE",
"346 715 CURVE SMOOTH",
"225 715 OFFCURVE",
"135 642 OFFCURVE",
"104 524 CURVE",
"127 520 LINE",
"139 518 OFFCURVE",
"149 522 OFFCURVE",
"155 537 CURVE",
"181 623 OFFCURVE",
"254 675 OFFCURVE",
"339 675 CURVE SMOOTH",
"430 675 OFFCURVE",
"488 621 OFFCURVE",
"477 523 CURVE SMOOTH",
"466 433 OFFCURVE",
"404 369 OFFCURVE",
"308 282 CURVE SMOOTH",
"36 38 LINE",
"32 34 OFFCURVE",
"26 26 OFFCURVE",
"24 17 CURVE",
"22 0 LINE",
"478 0 LINE",
"495 134 LINE"
);
}
);
width = 563;
}
);
note = two;
unicode = 0032;
},
{
color = 4;
glyphname = three;
lastChange = "2015-10-09 07:43:28 +0000";
layers = (
{
layerId = "18B4A443-2C69-4DCB-9619-77A7DD6AC8EC";
name = Light;
paths = (
{
closed = 1;
nodes = (
"213 716 OFFCURVE",
"120 646 OFFCURVE",
"88 524 CURVE",
"112 520 LINE",
"125 518 OFFCURVE",
"134 525 OFFCURVE",
"138 538 CURVE SMOOTH",
"166 621 OFFCURVE",
"237 675 OFFCURVE",
"323 675 CURVE SMOOTH",
"416 675 OFFCURVE",
"470 619 OFFCURVE",
"459 529 CURVE SMOOTH",
"445 431 OFFCURVE",
"361 383 OFFCURVE",
"253 380 CURVE",
"249 346 LINE",
"366 346 OFFCURVE",
"450 306 OFFCURVE",
"435 193 CURVE SMOOTH",
"425 105 OFFCURVE",
"335 32 OFFCURVE",
"235 32 CURVE SMOOTH",
"140 32 OFFCURVE",
"90 77 OFFCURVE",
"70 171 CURVE SMOOTH",
"67 184 OFFCURVE",
"51 185 OFFCURVE",
"41 181 CURVE",
"22 173 LINE",
"38 52 OFFCURVE",
"99 -8 OFFCURVE",
"230 -8 CURVE SMOOTH",
"356 -8 OFFCURVE",
"467 75 OFFCURVE",
"483 194 CURVE SMOOTH",
"495 287 OFFCURVE",
"447 349 OFFCURVE",
"346 369 CURVE",
"429 389 OFFCURVE",
"496 449 OFFCURVE",
"507 537 CURVE SMOOTH",
"521 642 OFFCURVE",
"447 716 OFFCURVE",
"330 716 CURVE SMOOTH"
);
}
);
width = 548;
}
);
note = three;
unicode = 0033;
},
{
color = 4;
glyphname = four;
lastChange = "2015-10-09 07:44:15 +0000";
layers = (
{
layerId = "18B4A443-2C69-4DCB-9619-77A7DD6AC8EC";
name = Light;
paths = (
{
closed = 1;
nodes = (
"424 241 LINE",
"481 708 LINE",
"439 708 LINE",
"26 238 LINE",
"27 215 LINE",
"28 206 OFFCURVE",
"35 203 OFFCURVE",
"43 203 CURVE SMOOTH",
"376 203 LINE",
"351 0 LINE",
"394 0 LINE",
"419 203 LINE",
"535 203 LINE SMOOTH",
"544 203 OFFCURVE",
"549 207 OFFCURVE",
"550 215 CURVE",
"553 241 LINE"
);
},
{
closed = 1;
nodes = (
"426 612 LINE",
"381 241 LINE",
"78 241 LINE",
"433 649 LINE"
);
}
);
width = 579;
}
);
note = four;
unicode = 0034;
},
{
color = 4;
glyphname = five;
lastChange = "2015-10-09 07:45:10 +0000";
layers = (
{
layerId = "18B4A443-2C69-4DCB-9619-77A7DD6AC8EC";
name = Light;
paths = (
{
closed = 1;
nodes = (
"510 708 LINE",
"192 708 LINE",
"98 394 LINE",
"127 384 LINE",
"166 395 OFFCURVE",
"221 404 OFFCURVE",
"258 404 CURVE SMOOTH",
"373 404 OFFCURVE",
"435 342 OFFCURVE",
"422 230 CURVE SMOOTH",
"409 116 OFFCURVE",
"323 34 OFFCURVE",
"203 34 CURVE SMOOTH",
"159 34 OFFCURVE",
"109 50 OFFCURVE",
"70 74 CURVE SMOOTH",
"56 83 OFFCURVE",
"47 86 OFFCURVE",
"37 74 CURVE",
"20 55 LINE",
"63 17 OFFCURVE",
"129 -8 OFFCURVE",
"196 -8 CURVE SMOOTH",
"340 -8 OFFCURVE",
"450 90 OFFCURVE",
"470 232 CURVE SMOOTH",
"487 361 OFFCURVE",
"412 444 OFFCURVE",
"272 444 CURVE SMOOTH",
"241 444 OFFCURVE",
"185 437 OFFCURVE",
"149 428 CURVE",
"220 664 LINE",
"476 664 LINE SMOOTH",
"490 664 OFFCURVE",
"504 668 OFFCURVE",
"507 687 CURVE SMOOTH"
);
}
);
width = 538;
}
);
note = five;
unicode = 0035;
},
{
color = 4;
glyphname = six;
lastChange = "2015-10-09 07:46:39 +0000";
layers = (
{
layerId = "18B4A443-2C69-4DCB-9619-77A7DD6AC8EC";
name = Light;
paths = (
{
closed = 1;
nodes = (
"241 423 OFFCURVE",
"185 400 OFFCURVE",
"138 358 CURVE",
"148 373 OFFCURVE",
"164 391 OFFCURVE",
"199 432 CURVE SMOOTH",
"444 708 LINE",
"402 708 LINE SMOOTH",
"391 708 OFFCURVE",
"382 704 OFFCURVE",
"375 696 CURVE SMOOTH",
"150 436 LINE SMOOTH",
"94 371 OFFCURVE",
"41 291 OFFCURVE",
"34 225 CURVE SMOOTH",
"18 82 OFFCURVE",
"90 -8 OFFCURVE",
"227 -8 CURVE SMOOTH",
"364 -8 OFFCURVE",
"473 83 OFFCURVE",
"488 213 CURVE SMOOTH",
"504 337 OFFCURVE",
"430 423 OFFCURVE",
"304 423 CURVE SMOOTH"
);
},
{
closed = 1;
nodes = (
"93 314 OFFCURVE",
"184 386 OFFCURVE",
"287 386 CURVE SMOOTH",
"393 386 OFFCURVE",
"452 316 OFFCURVE",
"440 210 CURVE SMOOTH",
"428 107 OFFCURVE",
"345 32 OFFCURVE",
"232 32 CURVE SMOOTH",
"123 32 OFFCURVE",
"67 107 OFFCURVE",
"79 214 CURVE SMOOTH"
);
}
);
width = 527;
}
);
note = six;
unicode = 0036;
},
{
color = 4;
glyphname = seven;
lastChange = "2015-10-09 07:47:27 +0000";
layers = (
{
layerId = "18B4A443-2C69-4DCB-9619-77A7DD6AC8EC";
name = Light;
paths = (
{
closed = 1;
nodes = (
"61 707 LINE",
"44 573 LINE",
"68 573 LINE SMOOTH",
"82 573 OFFCURVE",
"90 581 OFFCURVE",
"93 597 CURVE",
"104 664 LINE",
"476 664 LINE",
"458 640 LINE",
"53 0 LINE",
"85 0 LINE SMOOTH",
"96 0 OFFCURVE",
"107 4 OFFCURVE",
"116 18 CURVE SMOOTH",
"519 661 LINE SMOOTH",
"524 669 OFFCURVE",
"527 679 OFFCURVE",
"528 686 CURVE SMOOTH",
"531 708 LINE"
);
}
);
width = 557;
}
);
note = seven;
unicode = 0037;
},
{
color = 4;
glyphname = eight;
lastChange = "2015-10-09 07:48:36 +0000";
layers = (
{
layerId = "18B4A443-2C69-4DCB-9619-77A7DD6AC8EC";
name = Light;
paths = (
{
closed = 1;
nodes = (
"363 -8 OFFCURVE",
"473 59 OFFCURVE",
"490 187 CURVE SMOOTH",
"501 283 OFFCURVE",
"453 349 OFFCURVE",
"358 370 CURVE",
"440 393 OFFCURVE",
"499 453 OFFCURVE",
"507 535 CURVE SMOOTH",
"520 647 OFFCURVE",
"439 716 OFFCURVE",
"325 716 CURVE SMOOTH",
"208 716 OFFCURVE",
"112 644 OFFCURVE",
"98 535 CURVE SMOOTH",
"91 455 OFFCURVE",
"125 395 OFFCURVE",
"207 370 CURVE",
"109 349 OFFCURVE",
"41 284 OFFCURVE",
"30 187 CURVE SMOOTH",
"14 64 OFFCURVE",
"107 -8 OFFCURVE",
"236 -8 CURVE SMOOTH"
);
},
{
closed = 1;
nodes = (
"135 30 OFFCURVE",
"66 91 OFFCURVE",
"79 188 CURVE SMOOTH",
"92 291 OFFCURVE",
"174 348 OFFCURVE",
"280 348 CURVE SMOOTH",
"388 348 OFFCURVE",
"455 290 OFFCURVE",
"441 188 CURVE SMOOTH",
"429 88 OFFCURVE",
"345 30 OFFCURVE",
"241 30 CURVE SMOOTH"
);
},
{
closed = 1;
nodes = (
"189 387 OFFCURVE",
"136 440 OFFCURVE",
"145 534 CURVE SMOOTH",
"155 620 OFFCURVE",
"225 678 OFFCURVE",
"321 678 CURVE SMOOTH",
"410 678 OFFCURVE",
"470 630 OFFCURVE",
"460 534 CURVE SMOOTH",
"451 448 OFFCURVE",
"382 387 OFFCURVE",
"285 387 CURVE SMOOTH"
);
}
);
width = 551;
}
);
note = eight;
unicode = 0038;
},
{
color = 4;
glyphname = nine;
lastChange = "2015-10-09 07:51:17 +0000";
layers = (
{
layerId = "18B4A443-2C69-4DCB-9619-77A7DD6AC8EC";
name = Light;
paths = (
{
closed = 1;
nodes = (
"284 301 OFFCURVE",
"341 324 OFFCURVE",
"387 368 CURVE",
"382 360 OFFCURVE",
"340 307 OFFCURVE",
"327 292 CURVE SMOOTH",
"82 0 LINE",
"125 0 LINE SMOOTH",
"136 0 OFFCURVE",
"145 4 OFFCURVE",
"151 12 CURVE SMOOTH",
"370 284 LINE SMOOTH",
"430 359 OFFCURVE",
"474 421 OFFCURVE",
"482 494 CURVE SMOOTH",
"498 622 OFFCURVE",
"423 716 OFFCURVE",
"296 716 CURVE SMOOTH",
"171 716 OFFCURVE",
"61 626 OFFCURVE",
"44 503 CURVE SMOOTH",
"28 389 OFFCURVE",
"98 301 OFFCURVE",
"220 301 CURVE SMOOTH"
);
},
{
closed = 1;
nodes = (
"428 412 OFFCURVE",
"340 338 OFFCURVE",
"238 338 CURVE SMOOTH",
"139 338 OFFCURVE",
"80 401 OFFCURVE",
"92 506 CURVE SMOOTH",
"104 602 OFFCURVE",
"184 676 OFFCURVE",
"290 676 CURVE SMOOTH",
"387 676 OFFCURVE",
"449 606 OFFCURVE",
"437 502 CURVE SMOOTH"
);
}
);
width = 517;
}
);
note = nine;
unicode = 0039;
},
{
color = 4;
glyphname = colon;
lastChange = "2015-10-08 21:02:43 +0000";
layers = (
{
layerId = "18B4A443-2C69-4DCB-9619-77A7DD6AC8EC";
name = Light;
paths = (
{
closed = 1;
nodes = (
"111 -8 OFFCURVE",
"135 14 OFFCURVE",
"137 39 CURVE SMOOTH",
"140 63 OFFCURVE",
"123 85 OFFCURVE",
"97 85 CURVE SMOOTH",
"71 85 OFFCURVE",
"47 63 OFFCURVE",
"45 39 CURVE SMOOTH",
"43 14 OFFCURVE",
"60 -8 OFFCURVE",
"86 -8 CURVE SMOOTH"
);
},
{
closed = 1;
nodes = (
"160 391 OFFCURVE",
"184 413 OFFCURVE",
"186 438 CURVE SMOOTH",
"189 462 OFFCURVE",
"172 484 OFFCURVE",
"146 484 CURVE SMOOTH",
"120 484 OFFCURVE",
"96 462 OFFCURVE",
"94 438 CURVE SMOOTH",
"92 413 OFFCURVE",
"109 391 OFFCURVE",
"135 391 CURVE SMOOTH"
);
}
);
width = 235;
}
);
note = colon;
unicode = 003A;
},
{
color = 4;
glyphname = less;
lastChange = "2015-10-08 17:18:36 +0000";
layers = (
{
layerId = "18B4A443-2C69-4DCB-9619-77A7DD6AC8EC";
name = Light;
paths = (
{
closed = 1;
nodes = (
"45 346 LINE",
"42 326 LINE",
"393 132 LINE",
"397 165 LINE",
"397 174 OFFCURVE",
"394 177 OFFCURVE",
"386 182 CURVE",
"127 323 LINE SMOOTH",
"118 328 OFFCURVE",
"106 332 OFFCURVE",
"92 335 CURVE",
"105 338 OFFCURVE",
"118 342 OFFCURVE",
"130 348 CURVE SMOOTH",
"424 488 LINE",
"429 491 OFFCURVE",
"437 496 OFFCURVE",
"439 506 CURVE",
"443 538 LINE"
);
}
);
width = 482;
}
);
note = less;
unicode = 003C;
},
{
color = 4;
glyphname = equal;
lastChange = "2015-10-08 15:06:03 +0000";
layers = (
{
layerId = "18B4A443-2C69-4DCB-9619-77A7DD6AC8EC";
name = Light;
paths = (
{
closed = 1;
nodes = (
"65 278 LINE",
"60 241 LINE",
"474 241 LINE",
"478 278 LINE"
);
},
{
closed = 1;
nodes = (
"84 434 LINE",
"79 398 LINE",
"493 398 LINE",
"497 434 LINE"
);
}
);
width = 552;
}
);
note = equal;
unicode = 003D;
},
{
color = 4;
glyphname = greater;
lastChange = "2015-10-08 21:02:36 +0000";
layers = (
{
layerId = "18B4A443-2C69-4DCB-9619-77A7DD6AC8EC";
name = Light;
paths = (
{
closed = 1;
nodes = (
"432 324 LINE",
"435 344 LINE",
"84 538 LINE",
"80 505 LINE",
"80 496 OFFCURVE",
"83 493 OFFCURVE",
"91 488 CURVE",
"350 347 LINE SMOOTH",
"359 342 OFFCURVE",
"371 338 OFFCURVE",
"385 335 CURVE",
"372 332 OFFCURVE",
"359 328 OFFCURVE",
"347 322 CURVE SMOOTH",
"53 182 LINE",
"48 179 OFFCURVE",
"40 174 OFFCURVE",
"38 164 CURVE",
"34 132 LINE"
);
}
);
width = 472;
}
);
note = greater;
unicode = 003E;
},
{
color = 4;
glyphname = question;
lastChange = "2015-10-08 21:04:03 +0000";
layers = (
{
layerId = "18B4A443-2C69-4DCB-9619-77A7DD6AC8EC";
name = Light;
paths = (
{
closed = 1;
nodes = (
"45 630 LINE SMOOTH",
"52 619 OFFCURVE",
"60 621 OFFCURVE",
"69 629 CURVE SMOOTH",
"102 657 OFFCURVE",
"148 676 OFFCURVE",
"199 676 CURVE SMOOTH",
"271 676 OFFCURVE",
"323 632 OFFCURVE",
"315 562 CURVE SMOOTH",
"307 504 OFFCURVE",
"272 463 OFFCURVE",
"218 427 CURVE SMOOTH",
"163 390 OFFCURVE",
"131 367 OFFCURVE",
"126 331 CURVE",
"118 243 LINE",
"150 243 LINE",
"166 325 LINE SMOOTH",
"173 358 OFFCURVE",
"205 373 OFFCURVE",
"261 414 CURVE",
"313 448 OFFCURVE",
"353 499 OFFCURVE",
"360 564 CURVE SMOOTH",
"372 654 OFFCURVE",
"302 716 OFFCURVE",
"208 716 CURVE SMOOTH",
"148 716 OFFCURVE",
"81 687 OFFCURVE",
"35 646 CURVE"
);
},
{
closed = 1;
nodes = (
"128 -8 OFFCURVE",
"152 14 OFFCURVE",
"154 39 CURVE SMOOTH",
"157 63 OFFCURVE",
"140 85 OFFCURVE",
"114 85 CURVE SMOOTH",
"88 85 OFFCURVE",
"64 63 OFFCURVE",
"62 39 CURVE SMOOTH",
"60 14 OFFCURVE",
"77 -8 OFFCURVE",
"103 -8 CURVE SMOOTH"
);
}
);
width = 392;
}
);
note = question;
unicode = 003F;
},
{
color = 4;
glyphname = at;
lastChange = "2015-10-08 21:08:13 +0000";
layers = (
{
layerId = "18B4A443-2C69-4DCB-9619-77A7DD6AC8EC";
name = Light;
paths = (
{
closed = 1;
nodes = (
"664 94 OFFCURVE",
"750 215 OFFCURVE",
"764 339 CURVE SMOOTH",
"789 535 OFFCURVE",
"660 666 OFFCURVE",
"463 666 CURVE SMOOTH",
"252 666 OFFCURVE",
"69 495 OFFCURVE",
"41 274 CURVE SMOOTH",
"11 40 OFFCURVE",
"149 -119 OFFCURVE",
"385 -119 CURVE SMOOTH",
"481 -119 OFFCURVE",
"583 -95 OFFCURVE",
"667 -42 CURVE",
"661 -24 LINE",
"659 -18 OFFCURVE",
"651 -15 OFFCURVE",
"643 -19 CURVE",
"574 -61 OFFCURVE",
"480 -86 OFFCURVE",
"389 -86 CURVE SMOOTH",
"178 -86 OFFCURVE",
"50 55 OFFCURVE",
"77 274 CURVE SMOOTH",
"100 471 OFFCURVE",
"264 632 OFFCURVE",
"459 632 CURVE SMOOTH",
"640 632 OFFCURVE",
"751 525 OFFCURVE",
"728 339 CURVE SMOOTH",
"714 234 OFFCURVE",
"655 126 OFFCURVE",
"558 126 CURVE SMOOTH",
"489 126 OFFCURVE",
"485 181 OFFCURVE",
"521 270 CURVE SMOOTH",
"588 444 LINE",
"565 455 OFFCURVE",
"527 462 OFFCURVE",
"498 462 CURVE SMOOTH",
"363 462 OFFCURVE",
"239 351 OFFCURVE",
"225 222 CURVE SMOOTH",
"217 147 OFFCURVE",
"248 96 OFFCURVE",
"319 96 CURVE SMOOTH",
"381 96 OFFCURVE",
"431 130 OFFCURVE",
"469 184 CURVE",
"463 125 OFFCURVE",
"489 94 OFFCURVE",
"548 94 CURVE SMOOTH"
);
},
{
closed = 1;
nodes = (
"279 129 OFFCURVE",
"256 173 OFFCURVE",
"264 223 CURVE SMOOTH",
"277 328 OFFCURVE",
"376 430 OFFCURVE",
"488 430 CURVE SMOOTH",
"512 430 OFFCURVE",
"517 428 OFFCURVE",
"542 422 CURVE",
"483 268 LINE SMOOTH",
"456 193 OFFCURVE",
"405 129 OFFCURVE",
"332 129 CURVE SMOOTH"
);
}
);
width = 806;
}
);
note = at;
unicode = 0040;
},
{
color = 6;
glyphname = A;
lastChange = "2015-10-08 14:01:27 +0000";
layers = (
{
anchors = (
{
name = bottom;
position = "{377, 0}";
},
{
name = ogonek;
position = "{679, 10}";
},
{
name = top;
position = "{446, 708}";
}
);
components = (
{
name = serifBottom;
transform = "{1, 0, 0, 1, -58, 0}";
},
{
name = serifBottom;
transform = "{1, 0, 0, 1, 494, 0}";
}
);
layerId = "18B4A443-2C69-4DCB-9619-77A7DD6AC8EC";
name = Light;
paths = (
{
closed = 1;
nodes = (
"104 0 LINE",
"128 46 LINE",
"225 232 LINE",
"563 232 LINE",
"615 46 LINE",
"628 0 LINE",
"681 0 LINE",
"667 46 LINE",
"478 708 LINE",
"427 708 LINE",
"75 46 LINE",
"49 0 LINE"
);
},
{
closed = 1;
nodes = (
"427 614 LINE SMOOTH",
"432 624 OFFCURVE",
"442 644 OFFCURVE",
"446 656 CURVE",
"448 644 OFFCURVE",
"453 625 OFFCURVE",
"455 615 CURVE",
"552 270 LINE",
"246 270 LINE"
);
}
);
width = 754;
}
);
leftKerningGroup = A;
note = A;
unicode = 0041;
},
{
color = 4;
glyphname = B;
lastChange = "2015-10-08 14:57:22 +0000";
layers = (
{
layerId = "18B4A443-2C69-4DCB-9619-77A7DD6AC8EC";
name = Light;
paths = (
{
closed = 1;
nodes = (
"548 346 OFFCURVE",
"440 362 CURVE",
"524 383 OFFCURVE",
"596 445 OFFCURVE",
"605 527 CURVE SMOOTH",
"618 657 OFFCURVE",
"533 708 OFFCURVE",
"392 708 CURVE SMOOTH",
"104 708 LINE",
"101 689 LINE",
"100 678 OFFCURVE",
"106 672 OFFCURVE",
"119 671 CURVE",
"183 669 LINE",
"106 40 LINE",
"41 38 LINE",
"28 37 OFFCURVE",
"20 31 OFFCURVE",
"19 20 CURVE SMOOTH",
"17 0 LINE",
"331 0 LINE SMOOTH",
"470 0 OFFCURVE",
"575 60 OFFCURVE",
"593 193 CURVE SMOOTH",
"605 289 OFFCURVE"
);
},
{
closed = 1;
nodes = (
"234 668 LINE",
"387 668 LINE SMOOTH",
"496 668 OFFCURVE",
"567 629 OFFCURVE",
"554 522 CURVE SMOOTH",
"544 430 OFFCURVE",
"455 376 OFFCURVE",
"352 376 CURVE SMOOTH",
"198 376 LINE"
);
},
{
closed = 1;
nodes = (
"453 41 OFFCURVE",
"335 41 CURVE SMOOTH",
"157 41 LINE",
"194 339 LINE",
"372 339 LINE SMOOTH",
"476 339 OFFCURVE",
"556 293 OFFCURVE",
"542 194 CURVE SMOOTH",
"529 90 OFFCURVE"
);
}
);
width = 639;
}
);
note = B;
unicode = 0042;
},
{
color = 4;
glyphname = C;
lastChange = "2015-10-19 07:11:53 +0000";
layers = (
{
anchors = (
{
name = bottom;
position = "{328, 0}";
},
{
name = top;
position = "{427, 708}";
}
);
layerId = "18B4A443-2C69-4DCB-9619-77A7DD6AC8EC";
name = Light;
paths = (
{
closed = 1;
nodes = (
"574 115 LINE",
"569 121 OFFCURVE",
"560 118 OFFCURVE",
"555 114 CURVE",
"489 60 OFFCURVE",
"427 36 OFFCURVE",
"334 36 CURVE SMOOTH",
"160 36 OFFCURVE",
"68 167 OFFCURVE",
"90 354 CURVE SMOOTH",
"112 538 OFFCURVE",
"241 671 OFFCURVE",
"423 671 CURVE SMOOTH",
"487 671 OFFCURVE",
"544 661 OFFCURVE",
"593 638 CURVE",
"585 529 LINE",
"584 513 OFFCURVE",
"590 505 OFFCURVE",
"604 505 CURVE SMOOTH",
"628 505 LINE",
"648 665 LINE",
"568 699 OFFCURVE",
"494 715 OFFCURVE",
"428 715 CURVE SMOOTH",
"218 715 OFFCURVE",
"65 566 OFFCURVE",
"37 354 CURVE SMOOTH",
"11 152 OFFCURVE",
"118 -8 OFFCURVE",
"325 -8 CURVE SMOOTH",
"427 -8 OFFCURVE",
"518 25 OFFCURVE",
"591 94 CURVE"
);
}
);
width = 655;
}
);
note = C;
unicode = 0043;
},
{
color = 4;
glyphname = D;
lastChange = "2015-10-19 07:12:03 +0000";
layers = (
{
anchors = (
{
name = bottom;
position = "{382, 0}";
},
{
name = center;
position = "{382, 354}";
},
{
name = top;
position = "{406, 708}";
}
);
layerId = "18B4A443-2C69-4DCB-9619-77A7DD6AC8EC";
name = Light;
paths = (
{
closed = 1;
nodes = (
"646 707 OFFCURVE",
"433 707 CURVE SMOOTH",
"103 707 LINE",
"101 688 LINE SMOOTH",
"100 677 OFFCURVE",
"106 671 OFFCURVE",
"119 670 CURVE",
"183 668 LINE",
"106 40 LINE",
"41 38 LINE",
"28 37 OFFCURVE",
"20 31 OFFCURVE",
"19 20 CURVE",
"16 0 LINE",
"346 0 LINE SMOOTH",
"552 0 OFFCURVE",
"699 137 OFFCURVE",
"727 354 CURVE SMOOTH",
"754 560 OFFCURVE"
);
},
{
closed = 1;
nodes = (
"532 41 OFFCURVE",
"351 41 CURVE SMOOTH",
"157 41 LINE",
"234 666 LINE",
"428 666 LINE SMOOTH",
"607 666 OFFCURVE",
"697 542 OFFCURVE",
"674 354 CURVE SMOOTH",
"651 165 OFFCURVE"
);
}
);
width = 763;
}
);
note = D;
unicode = 0044;
},
{
color = 4;
glyphname = E;
lastChange = "2015-10-09 10:04:26 +0000";
layers = (
{
layerId = "18B4A443-2C69-4DCB-9619-77A7DD6AC8EC";
name = Light;
paths = (
{
closed = 1;
nodes = (
"103 707 LINE",
"101 688 LINE SMOOTH",
"100 677 OFFCURVE",
"106 671 OFFCURVE",
"119 670 CURVE",
"183 668 LINE",
"106 40 LINE",
"41 38 LINE",
"28 37 OFFCURVE",
"20 31 OFFCURVE",
"19 20 CURVE",
"16 0 LINE",
"101 0 LINE",
"525 0 LINE",
"543 147 LINE",
"518 147 LINE SMOOTH",
"504 147 OFFCURVE",
"497 138 OFFCURVE",
"494 122 CURVE",
"480 43 LINE",
"157 43 LINE",
"194 338 LINE",
"475 338 LINE",
"480 379 LINE",
"199 379 LINE",
"234 665 LINE",
"557 665 LINE",
"551 585 LINE",
"550 569 OFFCURVE",
"555 561 OFFCURVE",
"569 561 CURVE SMOOTH",
"594 561 LINE",
"606 665 LINE",
"612 707 LINE"
);
}
);
width = 622;
}
);
note = E;
unicode = 0045;
},
{
color = 4;
glyphname = F;
lastChange = "2015-10-09 10:04:26 +0000";
layers = (
{
layerId = "18B4A443-2C69-4DCB-9619-77A7DD6AC8EC";
name = Light;
paths = (
{
closed = 1;
nodes = (
"103 707 LINE",
"101 688 LINE SMOOTH",
"100 677 OFFCURVE",
"106 671 OFFCURVE",
"119 670 CURVE",
"183 668 LINE",
"106 40 LINE",
"41 38 LINE",
"28 37 OFFCURVE",
"20 31 OFFCURVE",
"19 20 CURVE",
"16 0 LINE",
"236 0 LINE",
"239 20 LINE",
"240 31 OFFCURVE",
"234 37 OFFCURVE",
"221 38 CURVE",
"157 40 LINE",
"192 325 LINE",
"456 325 LINE",
"462 368 LINE",
"197 368 LINE",
"234 665 LINE",
"563 665 LINE",
"557 585 LINE",
"556 569 OFFCURVE",
"562 561 OFFCURVE",
"576 561 CURVE SMOOTH",
"600 561 LINE",
"618 707 LINE"
);
}
);
width = 629;
}
);
note = F;
unicode = 0046;
},
{
color = 4;
glyphname = G;
lastChange = "2015-10-09 10:04:26 +0000";
layers = (
{
layerId = "18B4A443-2C69-4DCB-9619-77A7DD6AC8EC";
name = Light;
paths = (
{
closed = 1;
nodes = (
"449 321 LINE",
"446 294 LINE",
"445 286 OFFCURVE",
"448 282 OFFCURVE",
"457 282 CURVE SMOOTH",
"593 282 LINE",
"570 91 LINE",
"490 49 OFFCURVE",
"434 34 OFFCURVE",
"345 34 CURVE SMOOTH",
"163 34 OFFCURVE",
"67 162 OFFCURVE",
"90 354 CURVE SMOOTH",
"113 545 OFFCURVE",
"242 671 OFFCURVE",
"430 671 CURVE SMOOTH",
"514 671 OFFCURVE",
"579 660 OFFCURVE",
"625 637 CURVE",
"617 529 LINE",
"616 513 OFFCURVE",
"622 505 OFFCURVE",
"636 505 CURVE SMOOTH",
"660 505 LINE",
"679 665 LINE",
"616 695 OFFCURVE",
"510 715 OFFCURVE",
"437 715 CURVE SMOOTH",
"215 715 OFFCURVE",
"65 571 OFFCURVE",
"37 354 CURVE SMOOTH",
"10 144 OFFCURVE",
"127 -8 OFFCURVE",
"336 -8 CURVE SMOOTH",
"442 -8 OFFCURVE",
"525 14 OFFCURVE",
"614 70 CURVE",
"645 321 LINE"
);
}
);
width = 696;
}
);
note = G;
unicode = 0047;
},
{
color = 4;
glyphname = H;
lastChange = "2015-10-09 10:04:26 +0000";
layers = (
{
layerId = "18B4A443-2C69-4DCB-9619-77A7DD6AC8EC";
name = Light;
paths = (
{
closed = 1;
nodes = (
"793 671 LINE",
"806 672 OFFCURVE",
"814 678 OFFCURVE",
"815 689 CURVE",
"818 708 LINE",
"598 708 LINE",
"595 689 LINE",
"594 678 OFFCURVE",
"600 672 OFFCURVE",
"613 671 CURVE",
"677 669 LINE",
"642 378 LINE",
"199 378 LINE",
"234 669 LINE",
"299 671 LINE",
"312 672 OFFCURVE",
"320 678 OFFCURVE",
"321 689 CURVE SMOOTH",
"323 708 LINE",
"103 708 LINE",
"101 689 LINE SMOOTH",
"100 678 OFFCURVE",
"106 672 OFFCURVE",
"119 671 CURVE",
"183 669 LINE",
"106 40 LINE",
"41 38 LINE",
"28 37 OFFCURVE",
"20 31 OFFCURVE",
"19 20 CURVE",
"16 0 LINE",
"236 0 LINE",
"239 20 LINE",
"240 31 OFFCURVE",
"234 37 OFFCURVE",
"221 38 CURVE",
"157 40 LINE",
"194 339 LINE",
"637 339 LINE",
"600 40 LINE",
"535 38 LINE",
"522 37 OFFCURVE",
"514 31 OFFCURVE",
"513 20 CURVE SMOOTH",
"511 0 LINE",
"731 0 LINE",
"733 20 LINE SMOOTH",
"734 31 OFFCURVE",
"729 37 OFFCURVE",
"716 38 CURVE",
"652 40 LINE",
"729 669 LINE"
);
}
);
width = 827;
}
);
note = H;
unicode = 0048;
},
{
color = 4;
glyphname = I;
lastChange = "2015-10-09 10:05:39 +0000";
layers = (
{
layerId = "18B4A443-2C69-4DCB-9619-77A7DD6AC8EC";
name = Light;
paths = (
{
closed = 1;
nodes = (
"299 670 LINE",
"312 671 OFFCURVE",
"320 677 OFFCURVE",
"321 688 CURVE SMOOTH",
"323 708 LINE",
"103 708 LINE",
"101 688 LINE SMOOTH",
"100 677 OFFCURVE",
"106 671 OFFCURVE",
"119 670 CURVE",
"183 668 LINE",
"106 40 LINE",
"41 38 LINE",
"28 37 OFFCURVE",
"20 31 OFFCURVE",
"19 20 CURVE",
"16 0 LINE",
"236 0 LINE",
"239 20 LINE",
"240 31 OFFCURVE",
"234 37 OFFCURVE",
"221 38 CURVE",
"157 40 LINE",
"234 668 LINE"
);
}
);
width = 332;
}
);
note = I;
unicode = 0049;
},
{
color = 4;
glyphname = J;
lastChange = "2015-10-09 10:05:36 +0000";
layers = (
{
layerId = "18B4A443-2C69-4DCB-9619-77A7DD6AC8EC";
name = Light;
paths = (
{
closed = 1;
nodes = (
"267 708 LINE",
"264 688 LINE",
"263 677 OFFCURVE",
"269 671 OFFCURVE",
"282 670 CURVE",
"353 668 LINE",
"300 235 LINE SMOOTH",
"285 119 OFFCURVE",
"229 35 OFFCURVE",
"111 35 CURVE SMOOTH",
"95 35 OFFCURVE",
"58 42 OFFCURVE",
"48 44 CURVE SMOOTH",
"36 47 OFFCURVE",
"28 45 OFFCURVE",
"25 35 CURVE",
"19 7 LINE",
"46 -2 OFFCURVE",
"84 -8 OFFCURVE",
"110 -8 CURVE SMOOTH",
"248 -8 OFFCURVE",
"333 87 OFFCURVE",
"352 236 CURVE SMOOTH",
"405 668 LINE",
"469 670 LINE",
"482 671 OFFCURVE",
"490 677 OFFCURVE",
"491 688 CURVE",
"494 708 LINE"
);
}
);
width = 503;
}
);
note = J;
unicode = 004A;
},
{
color = 6;
glyphname = K;
lastChange = "2015-10-09 10:20:55 +0000";
layers = (
{
components = (
{
name = serifBottom;
transform = "{1, 0, 0, 1, -23, 0}";
},
{
name = serifBottom;
transform = "{-1, 0, 0, -1, 362, 708}";
},
{
name = serifBottom;
transform = "{-1, 0, 0, -1, 763, 708}";
},
{
name = serifBottom;
transform = "{1, 0, 0, 1, 409, 0}";
}
);
layerId = "18B4A443-2C69-4DCB-9619-77A7DD6AC8EC";
name = Light;
paths = (
{
closed = 1;
nodes = (
"293 400 LINE",
"277 384 OFFCURVE",
"265 381 OFFCURVE",
"241 381 CURVE SMOOTH",
"199 381 LINE",
"234 669 LINE",
"239 708 LINE",
"188 708 LINE",
"183 669 LINE",
"106 40 LINE",
"101 0 LINE",
"152 0 LINE",
"157 40 LINE",
"194 341 LINE",
"239 341 LINE SMOOTH",
"258 341 OFFCURVE",
"274 340 OFFCURVE",
"290 320 CURVE",
"531 39 LINE",
"564 0 LINE",
"623 0 LINE",
"590 39 LINE",
"338 340 LINE",
"331 349 OFFCURVE",
"320 361 OFFCURVE",
"306 365 CURVE",
"314 368 OFFCURVE",
"328 377 OFFCURVE",
"342 390 CURVE",
"647 669 LINE",
"692 708 LINE",
"634 708 LINE",
"589 669 LINE"
);
}
);
width = 718;
}
);
note = K;
unicode = 004B;
},
{
color = 4;
glyphname = L;
lastChange = "2015-10-09 10:20:49 +0000";
layers = (
{
layerId = "18B4A443-2C69-4DCB-9619-77A7DD6AC8EC";
name = Light;
paths = (
{
closed = 1;
nodes = (
"488 132 LINE SMOOTH",
"474 132 OFFCURVE",
"466 124 OFFCURVE",
"463 108 CURVE",
"450 44 LINE",
"157 44 LINE",
"234 669 LINE",
"298 671 LINE",
"311 672 OFFCURVE",
"319 678 OFFCURVE",
"320 689 CURVE",
"323 708 LINE",
"103 708 LINE",
"101 689 LINE SMOOTH",
"100 678 OFFCURVE",
"106 672 OFFCURVE",
"119 671 CURVE",
"183 669 LINE",
"106 40 LINE",
"41 38 LINE",
"28 37 OFFCURVE",
"20 31 OFFCURVE",
"19 20 CURVE",
"16 0 LINE",
"496 0 LINE",
"512 132 LINE"
);
}
);
width = 556;
}
);
note = L;
unicode = 004C;
},
{
color = 4;
glyphname = M;
lastChange = "2015-10-09 10:56:19 +0000";
layers = (
{
layerId = "18B4A443-2C69-4DCB-9619-77A7DD6AC8EC";
name = Light;
paths = (
{
closed = 1;
nodes = (
"946 671 LINE",
"959 672 OFFCURVE",
"967 678 OFFCURVE",
"968 689 CURVE",
"971 708 LINE",
"851 708 LINE SMOOTH",
"844 708 OFFCURVE",
"839 708 OFFCURVE",
"831 699 CURVE",
"493 207 LINE",
"487 199 OFFCURVE",
"481 187 OFFCURVE",
"475 176 CURVE",
"473 187 OFFCURVE",
"470 197 OFFCURVE",
"466 206 CURVE SMOOTH",
"241 699 LINE SMOOTH",
"237 707 OFFCURVE",
"233 708 OFFCURVE",
"223 708 CURVE SMOOTH",
"103 708 LINE",
"101 689 LINE SMOOTH",
"100 678 OFFCURVE",
"106 672 OFFCURVE",
"119 671 CURVE",
"183 669 LINE",
"106 40 LINE",
"41 38 LINE",
"28 37 OFFCURVE",
"20 31 OFFCURVE",
"19 20 CURVE",
"16 0 LINE",
"232 0 LINE",
"234 20 LINE SMOOTH",
"235 31 OFFCURVE",
"229 37 OFFCURVE",
"216 38 CURVE",
"150 40 LINE",
"219 603 LINE SMOOTH",
"220 612 OFFCURVE",
"221 621 OFFCURVE",
"221 631 CURVE",
"446 136 LINE SMOOTH",
"450 127 OFFCURVE",
"457 123 OFFCURVE",
"465 123 CURVE SMOOTH",
"473 123 LINE SMOOTH",
"482 123 OFFCURVE",
"488 127 OFFCURVE",
"494 136 CURVE SMOOTH",
"834 631 LINE",
"832 621 OFFCURVE",
"830 612 OFFCURVE",
"829 603 CURVE SMOOTH",
"760 40 LINE",
"693 38 LINE",
"680 37 OFFCURVE",
"672 31 OFFCURVE",
"671 20 CURVE",
"668 0 LINE",
"884 0 LINE",
"886 20 LINE SMOOTH",
"887 31 OFFCURVE",
"882 37 OFFCURVE",
"869 38 CURVE",
"805 40 LINE",
"882 669 LINE"
);
}
);
width = 980;
}
);
note = M;
unicode = 004D;
},
{
color = 4;
glyphname = N;
lastChange = "2015-10-09 10:58:17 +0000";
layers = (
{
layerId = "18B4A443-2C69-4DCB-9619-77A7DD6AC8EC";
name = Light;
paths = (
{
closed = 1;
nodes = (
"602 708 LINE",
"600 689 LINE SMOOTH",
"599 678 OFFCURVE",
"604 672 OFFCURVE",
"617 671 CURVE",
"684 669 LINE",
"616 114 LINE SMOOTH",
"615 105 OFFCURVE",
"614 95 OFFCURVE",
"614 85 CURVE",
"231 698 LINE",
"227 705 OFFCURVE",
"221 708 OFFCURVE",
"213 708 CURVE SMOOTH",
"103 708 LINE",
"101 688 LINE SMOOTH",
"100 677 OFFCURVE",
"106 671 OFFCURVE",
"119 670 CURVE",
"183 668 LINE",
"106 40 LINE",
"41 38 LINE",
"28 37 OFFCURVE",
"20 31 OFFCURVE",
"19 20 CURVE",
"16 0 LINE",
"232 0 LINE",
"234 20 LINE SMOOTH",
"235 31 OFFCURVE",
"229 37 OFFCURVE",
"216 38 CURVE",
"150 40 LINE",
"218 595 LINE SMOOTH",
"219 604 OFFCURVE",
"220 614 OFFCURVE",
"220 624 CURVE",
"605 10 LINE",
"609 3 OFFCURVE",
"614 0 OFFCURVE",
"622 0 CURVE SMOOTH",
"647 0 LINE",
"729 669 LINE",
"793 671 LINE",
"806 672 OFFCURVE",
"814 678 OFFCURVE",
"815 689 CURVE",
"818 708 LINE"
);
}
);
width = 827;
}
);
note = N;
unicode = 004E;
},
{
color = 4;
glyphname = O;
lastChange = "2015-10-19 07:12:13 +0000";
layers = (
{
anchors = (
{
name = bottom;
position = "{374, 0}";
},
{
name = center;
position = "{374, 354}";
},
{
name = ogonek;
position = "{672, 10}";
},
{
name = top;
position = "{419, 708}";
},
{
name = topleft;
position = "{20, 708}";
},
{
name = topright;
position = "{727, 708}";
}
);
layerId = "18B4A443-2C69-4DCB-9619-77A7DD6AC8EC";
name = Light;
paths = (
{
closed = 1;
nodes = (
"739 563 OFFCURVE",
"625 716 OFFCURVE",
"419 716 CURVE SMOOTH",
"218 716 OFFCURVE",
"65 568 OFFCURVE",
"37 354 CURVE SMOOTH",
"11 149 OFFCURVE",
"122 -8 OFFCURVE",
"330 -8 CURVE SMOOTH",
"535 -8 OFFCURVE",
"686 141 OFFCURVE",
"712 354 CURVE SMOOTH"
);
},
{
closed = 1;
nodes = (
"638 173 OFFCURVE",
"521 37 OFFCURVE",
"335 37 CURVE SMOOTH",
"158 37 OFFCURVE",
"67 163 OFFCURVE",
"90 354 CURVE SMOOTH",
"113 540 OFFCURVE",
"236 672 OFFCURVE",
"413 672 CURVE SMOOTH",
"591 672 OFFCURVE",
"682 544 OFFCURVE",
"659 354 CURVE SMOOTH"
);
}
);
width = 747;
}
);
note = O;
unicode = 004F;
},
{
color = 4;
glyphname = P;
lastChange = "2015-10-09 11:03:28 +0000";
layers = (
{
layerId = "18B4A443-2C69-4DCB-9619-77A7DD6AC8EC";
name = Light;
paths = (
{
closed = 1;
nodes = (
"602 640 OFFCURVE",
"518 707 OFFCURVE",
"360 707 CURVE SMOOTH",
"103 707 LINE",
"101 688 LINE SMOOTH",
"100 677 OFFCURVE",
"106 671 OFFCURVE",
"119 670 CURVE",
"183 668 LINE",
"106 40 LINE",
"41 38 LINE",
"28 37 OFFCURVE",
"20 31 OFFCURVE",
"19 20 CURVE",
"16 0 LINE",
"236 0 LINE",
"238 20 LINE SMOOTH",
"239 31 OFFCURVE",
"234 37 OFFCURVE",
"221 38 CURVE",
"157 40 LINE",
"187 285 LINE",
"308 285 LINE SMOOTH",
"450 285 OFFCURVE",
"567 363 OFFCURVE",
"585 497 CURVE SMOOTH"
);
},
{
closed = 1;
nodes = (
"522 393 OFFCURVE",
"431 326 OFFCURVE",
"313 326 CURVE SMOOTH",
"192 326 LINE",
"234 667 LINE",
"355 667 LINE SMOOTH",
"478 667 OFFCURVE",
"549 613 OFFCURVE",
"534 498 CURVE SMOOTH"
);
}
);
width = 604;
}
);
note = P;
unicode = 0050;
},
{
color = 4;
glyphname = Q;
lastChange = "2015-10-09 11:04:09 +0000";
layers = (
{
layerId = "18B4A443-2C69-4DCB-9619-77A7DD6AC8EC";
name = Light;
paths = (
{
closed = 1;
nodes = (
"738 563 OFFCURVE",
"625 716 OFFCURVE",
"418 716 CURVE SMOOTH",
"216 716 OFFCURVE",
"64 566 OFFCURVE",
"37 354 CURVE SMOOTH",
"10 143 OFFCURVE",
"125 -8 OFFCURVE",
"329 -8 CURVE SMOOTH",
"370 -8 OFFCURVE",
"437 4 OFFCURVE",
"473 19 CURVE",
"604 -144 LINE",
"609 -152 OFFCURVE",
"623 -156 OFFCURVE",
"635 -156 CURVE SMOOTH",
"678 -156 LINE",
"518 41 LINE",
"628 104 OFFCURVE",
"696 224 OFFCURVE",
"711 354 CURVE SMOOTH"
);
},
{
closed = 1;
nodes = (
"637 174 OFFCURVE",
"520 37 OFFCURVE",
"335 37 CURVE SMOOTH",
"155 37 OFFCURVE",
"67 169 OFFCURVE",
"89 354 CURVE SMOOTH",
"112 540 OFFCURVE",
"234 672 OFFCURVE",
"413 672 CURVE SMOOTH",
"591 672 OFFCURVE",
"681 544 OFFCURVE",
"658 354 CURVE SMOOTH"
);
}
);
width = 747;
}
);
note = Q;
unicode = 0051;
},
{
color = 4;
glyphname = R;
lastChange = "2015-10-19 07:12:31 +0000";
layers = (
{
anchors = (
{
name = bottom;
position = "{322, 0}";
},
{
name = top;
position = "{359, 708}";
}
);
layerId = "18B4A443-2C69-4DCB-9619-77A7DD6AC8EC";
name = Light;
paths = (
{
closed = 1;
nodes = (
"554 39 LINE",
"374 306 LINE SMOOTH",
"369 314 OFFCURVE",
"362 321 OFFCURVE",
"355 326 CURVE",
"472 339 OFFCURVE",
"567 409 OFFCURVE",
"580 522 CURVE SMOOTH",
"595 657 OFFCURVE",
"506 708 OFFCURVE",
"359 708 CURVE SMOOTH",
"103 708 LINE",
"101 689 LINE SMOOTH",
"100 678 OFFCURVE",
"106 672 OFFCURVE",
"119 671 CURVE",
"183 669 LINE",
"106 40 LINE",
"41 38 LINE",
"28 37 OFFCURVE",
"20 31 OFFCURVE",
"19 20 CURVE",
"16 0 LINE",
"236 0 LINE",
"238 20 LINE SMOOTH",
"239 31 OFFCURVE",
"234 37 OFFCURVE",
"221 38 CURVE",
"157 40 LINE",
"191 320 LINE",
"275 320 LINE SMOOTH",
"300 320 OFFCURVE",
"308 318 OFFCURVE",
"321 300 CURVE SMOOTH",
"512 13 LINE",
"518 4 OFFCURVE",
"525 0 OFFCURVE",
"536 0 CURVE",
"606 0 LINE",
"609 20 LINE",
"610 31 OFFCURVE",
"604 37 OFFCURVE",
"591 38 CURVE"
);
},
{
closed = 1;
nodes = (
"196 358 LINE",
"234 668 LINE",
"354 668 LINE SMOOTH",
"467 668 OFFCURVE",
"543 628 OFFCURVE",
"530 518 CURVE SMOOTH",
"518 415 OFFCURVE",
"428 358 OFFCURVE",
"310 358 CURVE SMOOTH"
);
}
);
width = 644;
}
);
note = R;
unicode = 0052;
},
{
color = 4;
glyphname = S;
lastChange = "2015-10-09 11:09:47 +0000";
layers = (
{
layerId = "18B4A443-2C69-4DCB-9619-77A7DD6AC8EC";
name = Light;
paths = (
{
closed = 1;
nodes = (
"474 308 OFFCURVE",
"409 352 OFFCURVE",
"304 386 CURVE SMOOTH",
"196 420 OFFCURVE",
"135 451 OFFCURVE",
"145 536 CURVE SMOOTH",
"154 616 OFFCURVE",
"227 673 OFFCURVE",
"319 673 CURVE SMOOTH",
"367 673 OFFCURVE",
"410 665 OFFCURVE",
"448 648 CURVE",
"441 554 LINE",
"440 538 OFFCURVE",
"446 529 OFFCURVE",
"460 529 CURVE SMOOTH",
"484 529 LINE",
"502 674 LINE",
"442 701 OFFCURVE",
"383 715 OFFCURVE",
"324 715 CURVE SMOOTH",
"208 715 OFFCURVE",
"111 643 OFFCURVE",
"97 533 CURVE SMOOTH",
"84 432 OFFCURVE",
"139 388 OFFCURVE",
"252 350 CURVE SMOOTH",
"362 313 OFFCURVE",
"424 290 OFFCURVE",
"412 199 CURVE SMOOTH",
"399 98 OFFCURVE",
"318 35 OFFCURVE",
"214 35 CURVE SMOOTH",
"158 35 OFFCURVE",
"112 44 OFFCURVE",
"76 62 CURVE",
"84 165 LINE",
"85 181 OFFCURVE",
"79 189 OFFCURVE",
"65 189 CURVE SMOOTH",
"41 189 LINE",
"22 31 LINE",
"80 5 OFFCURVE",
"141 -8 OFFCURVE",
"207 -8 CURVE SMOOTH",
"336 -8 OFFCURVE",
"442 72 OFFCURVE",
"460 207 CURVE SMOOTH"
);
}
);
width = 518;
}
);
note = S;
unicode = 0053;
},
{
color = 4;
glyphname = T;
lastChange = "2015-10-19 07:12:40 +0000";
layers = (
{
anchors = (
{
name = bottom;
position = "{310, 0}";
},
{
name = center;
position = "{310, 354}";
},
{
name = top;
position = "{332, 708}";
}
);
layerId = "18B4A443-2C69-4DCB-9619-77A7DD6AC8EC";
name = Light;
paths = (
{
closed = 1;
nodes = (
"46 707 LINE",
"28 561 LINE",
"52 561 LINE SMOOTH",
"66 561 OFFCURVE",
"73 569 OFFCURVE",
"76 585 CURVE",
"90 664 LINE",
"297 664 LINE",
"220 40 LINE",
"156 38 LINE",
"143 37 OFFCURVE",
"135 31 OFFCURVE",
"134 20 CURVE",
"131 0 LINE",
"351 0 LINE",
"353 20 LINE SMOOTH",
"354 31 OFFCURVE",
"348 37 OFFCURVE",
"335 38 CURVE",
"271 40 LINE",
"348 664 LINE",
"554 664 LINE",
"548 585 LINE",
"547 569 OFFCURVE",
"553 561 OFFCURVE",
"567 561 CURVE SMOOTH",
"591 561 LINE",
"609 707 LINE"
);
}
);
width = 620;
}
);
note = T;
rightKerningGroup = T;
unicode = 0054;
},
{
color = 4;
glyphname = U;
lastChange = "2015-10-19 07:12:49 +0000";
layers = (
{
anchors = (
{
name = bottom;
position = "{377, 0}";
},
{
name = ogonek;
position = "{679, 10}";
},
{
name = top;
position = "{414, 708}";
},
{
name = topright;
position = "{734, 708}";
}
);
layerId = "18B4A443-2C69-4DCB-9619-77A7DD6AC8EC";
name = Light;
paths = (
{
closed = 1;
nodes = (
"743 689 LINE",
"742 678 OFFCURVE",
"734 672 OFFCURVE",
"721 671 CURVE",
"656 669 LINE",
"608 270 LINE SMOOTH",
"587 107 OFFCURVE",
"467 -8 OFFCURVE",
"305 -8 CURVE SMOOTH",
"140 -8 OFFCURVE",
"51 113 OFFCURVE",
"72 270 CURVE SMOOTH",
"120 669 LINE",
"56 671 LINE",
"43 672 OFFCURVE",
"38 678 OFFCURVE",
"39 689 CURVE SMOOTH",
"41 708 LINE",
"274 708 LINE",
"271 689 LINE",
"270 678 OFFCURVE",
"262 672 OFFCURVE",
"249 671 CURVE",
"172 669 LINE",
"123 270 LINE SMOOTH",
"107 136 OFFCURVE",
"178 36 OFFCURVE",
"311 36 CURVE SMOOTH",
"444 36 OFFCURVE",
"541 135 OFFCURVE",
"557 270 CURVE SMOOTH",
"605 669 LINE",
"529 671 LINE",
"516 672 OFFCURVE",
"510 678 OFFCURVE",
"511 689 CURVE",
"514 708 LINE",
"746 708 LINE"
);
}
);
width = 754;
}
);
note = U;
unicode = 0055;
},
{
color = 4;
glyphname = V;
lastChange = "2015-10-09 14:20:16 +0000";
layers = (
{
layerId = "18B4A443-2C69-4DCB-9619-77A7DD6AC8EC";
name = Light;
paths = (
{
closed = 1;
nodes = (
"556 708 LINE",
"554 689 LINE SMOOTH",
"553 678 OFFCURVE",
"558 672 OFFCURVE",
"571 671 CURVE",
"629 669 LINE",
"331 107 LINE SMOOTH",
"323 92 OFFCURVE",
"316 76 OFFCURVE",
"310 58 CURVE",
"308 75 OFFCURVE",
"305 92 OFFCURVE",
"301 107 CURVE SMOOTH",
"139 669 LINE",
"197 671 LINE",
"210 672 OFFCURVE",
"218 678 OFFCURVE",
"219 689 CURVE",
"222 708 LINE",
"32 708 LINE",
"30 689 LINE SMOOTH",
"29 678 OFFCURVE",
"34 672 OFFCURVE",
"47 671 CURVE",
"86 669 LINE",
"279 0 LINE",
"325 0 LINE",
"683 669 LINE",
"722 671 LINE",
"735 672 OFFCURVE",
"743 678 OFFCURVE",
"744 689 CURVE SMOOTH",
"746 708 LINE"
);
}
);
width = 755;
}
);
note = V;
rightKerningGroup = V;
unicode = 0056;
},
{
color = 4;
glyphname = W;
lastChange = "2015-10-09 14:22:46 +0000";
layers = (
{
anchors = (
{
name = bottom;
position = "{548, 0}";
},
{
name = top;
position = "{548, 708}";
}
);
layerId = "18B4A443-2C69-4DCB-9619-77A7DD6AC8EC";
name = Light;
paths = (
{
closed = 1;
nodes = (
"896 708 LINE",
"894 689 LINE SMOOTH",
"893 678 OFFCURVE",
"899 672 OFFCURVE",
"912 671 CURVE",
"973 669 LINE",
"734 113 LINE SMOOTH",
"734 113 OFFCURVE",
"719 69 OFFCURVE",
"719 68 CURVE",
"713 113 LINE",
"585 695 LINE SMOOTH",
"583 704 OFFCURVE",
"577 708 OFFCURVE",
"568 708 CURVE SMOOTH",
"554 708 LINE SMOOTH",
"545 708 OFFCURVE",
"537 702 OFFCURVE",
"533 695 CURVE SMOOTH",
"262 112 LINE SMOOTH",
"256 98 OFFCURVE",
"250 82 OFFCURVE",
"245 67 CURVE",
"245 82 OFFCURVE",
"243 99 OFFCURVE",
"241 113 CURVE",
"138 669 LINE",
"197 671 LINE",
"210 672 OFFCURVE",
"218 678 OFFCURVE",
"219 689 CURVE",
"222 708 LINE",
"32 708 LINE",
"30 689 LINE SMOOTH",
"29 678 OFFCURVE",
"34 672 OFFCURVE",
"47 671 CURVE",
"82 669 LINE",
"210 0 LINE",
"256 0 LINE",
"541 615 LINE SMOOTH",
"545 623 OFFCURVE",
"548 631 OFFCURVE",
"551 640 CURVE",
"552 631 OFFCURVE",
"553 623 OFFCURVE",
"555 615 CURVE SMOOTH",
"688 0 LINE",
"734 0 LINE",
"1027 669 LINE",
"1062 671 LINE",
"1075 672 OFFCURVE",
"1083 678 OFFCURVE",
"1084 689 CURVE SMOOTH",
"1086 708 LINE"
);
}
);
width = 1095;
}
);
note = W;
rightKerningGroup = W;
unicode = 0057;
},
{
color = 4;
glyphname = X;
lastChange = "2015-10-09 14:23:38 +0000";
layers = (
{
layerId = "18B4A443-2C69-4DCB-9619-77A7DD6AC8EC";
name = Light;
paths = (
{
closed = 1;
nodes = (
"610 40 LINE",
"423 366 LINE",
"676 669 LINE",
"717 671 LINE",
"730 672 OFFCURVE",
"738 678 OFFCURVE",
"739 689 CURVE SMOOTH",
"741 708 LINE",
"543 708 LINE",
"541 689 LINE SMOOTH",
"540 678 OFFCURVE",
"545 672 OFFCURVE",
"558 671 CURVE",
"620 669 LINE",
"400 403 LINE",
"399 401 OFFCURVE",
"393 392 OFFCURVE",
"391 387 CURVE",
"231 669 LINE",
"286 671 LINE",
"299 672 OFFCURVE",
"307 678 OFFCURVE",
"308 689 CURVE",
"311 708 LINE",
"117 708 LINE",
"114 689 LINE",
"113 678 OFFCURVE",
"119 672 OFFCURVE",
"132 671 CURVE",
"172 669 LINE",
"350 363 LINE",
"83 40 LINE",
"42 38 LINE",
"29 37 OFFCURVE",
"21 31 OFFCURVE",
"20 20 CURVE SMOOTH",
"18 0 LINE",
"216 0 LINE",
"219 20 LINE",
"220 31 OFFCURVE",
"214 37 OFFCURVE",
"201 38 CURVE",
"140 40 LINE",
"139 40 LINE",
"374 324 LINE SMOOTH",
"378 329 OFFCURVE",
"381 333 OFFCURVE",
"383 338 CURVE",
"551 40 LINE",
"494 38 LINE",
"481 37 OFFCURVE",
"473 31 OFFCURVE",
"472 20 CURVE SMOOTH",
"470 0 LINE",
"662 0 LINE",
"664 20 LINE SMOOTH",
"665 31 OFFCURVE",
"659 37 OFFCURVE",
"646 38 CURVE"
);
}
);
width = 750;
}
);
note = X;
unicode = 0058;
},
{
color = 4;
glyphname = Y;
lastChange = "2015-10-11 20:26:40 +0000";
layers = (
{
layerId = "18B4A443-2C69-4DCB-9619-77A7DD6AC8EC";
name = Light;
paths = (
{
closed = 1;
nodes = (
"486 708 LINE",
"483 689 LINE",
"482 678 OFFCURVE",
"488 672 OFFCURVE",
"501 671 CURVE",
"553 669 LINE",
"331 370 LINE SMOOTH",
"324 360 OFFCURVE",
"310 335 OFFCURVE",
"305 326 CURVE",
"302 335 OFFCURVE",
"294 360 OFFCURVE",
"289 370 CURVE SMOOTH",
"140 669 LINE",
"192 671 LINE",
"205 672 OFFCURVE",
"212 678 OFFCURVE",
"214 689 CURVE",
"217 708 LINE",
"32 708 LINE",
"30 689 LINE SMOOTH",
"29 678 OFFCURVE",
"34 672 OFFCURVE",
"47 671 CURVE",
"84 669 LINE",
"274 292 LINE",
"243 40 LINE",
"179 38 LINE",
"166 37 OFFCURVE",
"158 31 OFFCURVE",
"157 20 CURVE",
"154 0 LINE",
"374 0 LINE",
"377 20 LINE",
"378 31 OFFCURVE",
"372 37 OFFCURVE",
"359 38 CURVE",
"295 40 LINE",
"326 292 LINE",
"609 669 LINE",
"646 671 LINE",
"659 672 OFFCURVE",
"667 678 OFFCURVE",
"668 689 CURVE SMOOTH",
"670 708 LINE"
);
}
);
width = 680;
}
);
note = Y;
rightKerningGroup = Y;
unicode = 0059;
},
{
color = 4;
glyphname = Z;
lastChange = "2015-10-11 20:27:17 +0000";
layers = (
{
layerId = "18B4A443-2C69-4DCB-9619-77A7DD6AC8EC";
name = Light;
paths = (
{
closed = 1;
nodes = (
"629 708 LINE",
"118 708 LINE",
"99 557 LINE",
"124 557 LINE SMOOTH",
"138 557 OFFCURVE",
"145 565 OFFCURVE",
"148 581 CURVE",
"165 666 LINE",
"556 666 LINE",
"28 36 LINE SMOOTH",
"23 30 OFFCURVE",
"21 25 OFFCURVE",
"20 19 CURVE",
"18 0 LINE",
"538 0 LINE",
"557 152 LINE",
"532 152 LINE SMOOTH",
"518 152 OFFCURVE",
"511 143 OFFCURVE",
"508 127 CURVE",
"491 42 LINE",
"91 42 LINE",
"617 670 LINE",
"622 677 OFFCURVE",
"626 684 OFFCURVE",
"627 691 CURVE SMOOTH"
);
}
);
width = 638;
}
);
note = Z;
unicode = 005A;
},
{
color = 4;
glyphname = bracketleft;
lastChange = "2015-10-08 21:11:47 +0000";
layers = (
{
layerId = "18B4A443-2C69-4DCB-9619-77A7DD6AC8EC";
name = Light;
paths = (
{
closed = 1;
nodes = (
"25 -132 LINE",
"184 -132 LINE",
"186 -114 LINE",
"187 -104 OFFCURVE",
"181 -100 OFFCURVE",
"172 -100 CURVE SMOOTH",
"69 -100 LINE",
"171 726 LINE",
"274 726 LINE SMOOTH",
"284 726 OFFCURVE",
"289 731 OFFCURVE",
"291 740 CURVE",
"293 758 LINE",
"134 758 LINE"
);
}
);
width = 308;
}
);
note = bracketleft;
unicode = 005B;
},
{
color = 4;
glyphname = backslash;
lastChange = "2015-10-08 21:12:33 +0000";
layers = (
{
layerId = "18B4A443-2C69-4DCB-9619-77A7DD6AC8EC";
name = Light;
paths = (
{
closed = 1;
nodes = (
"36 728 LINE",
"255 -22 LINE SMOOTH",
"259 -35 OFFCURVE",
"269 -42 OFFCURVE",
"281 -42 CURVE SMOOTH",
"301 -42 LINE",
"82 709 LINE",
"79 721 OFFCURVE",
"70 728 OFFCURVE",
"57 728 CURVE SMOOTH"
);
}
);
width = 327;
}
);
note = backslash;
unicode = 005C;
},
{
color = 4;
glyphname = bracketright;
lastChange = "2015-10-08 21:12:20 +0000";
layers = (
{
layerId = "18B4A443-2C69-4DCB-9619-77A7DD6AC8EC";
name = Light;
paths = (
{
closed = 1;
nodes = (
"285 758 LINE",
"126 758 LINE",
"124 740 LINE",
"123 730 OFFCURVE",
"129 726 OFFCURVE",
"138 726 CURVE SMOOTH",
"241 726 LINE",
"139 -100 LINE",
"36 -100 LINE SMOOTH",
"26 -100 OFFCURVE",
"21 -105 OFFCURVE",
"19 -114 CURVE",
"17 -132 LINE",
"176 -132 LINE"
);
}
);
width = 316;
}
);
note = bracketright;
unicode = 005D;
},
{
color = 4;
glyphname = asciicircum;
lastChange = "2015-10-08 21:13:29 +0000";
layers = (
{
layerId = "18B4A443-2C69-4DCB-9619-77A7DD6AC8EC";
name = Light;
paths = (
{
closed = 1;
nodes = (
"246 708 LINE",
"38 400 LINE",
"74 400 LINE SMOOTH",
"82 400 OFFCURVE",
"88 407 OFFCURVE",
"92 412 CURVE SMOOTH",
"239 630 LINE",
"256 663 LINE",
"266 630 LINE",
"360 412 LINE",
"362 406 OFFCURVE",
"367 400 OFFCURVE",
"375 400 CURVE SMOOTH",
"409 400 LINE",
"276 708 LINE"
);
}
);
width = 443;
}
);
note = asciicircum;
unicode = 005E;
},
{
color = 4;
glyphname = underscore;
lastChange = "2015-10-08 21:13:40 +0000";
layers = (
{
layerId = "18B4A443-2C69-4DCB-9619-77A7DD6AC8EC";
name = Light;
paths = (
{
closed = 1;
nodes = (
"477 -102 LINE",
"83 -102 LINE",
"78 -136 LINE",
"472 -136 LINE"
);
}
);
width = 563;
}
);
note = underscore;
unicode = 005F;
},
{
color = 4;
glyphname = grave;
lastChange = "2015-10-08 21:14:46 +0000";
layers = (
{
layerId = "18B4A443-2C69-4DCB-9619-77A7DD6AC8EC";
name = Light;
paths = (
{
closed = 1;
nodes = (
"62 716 LINE",
"155 589 LINE",
"159 583 OFFCURVE",
"165 580 OFFCURVE",
"173 580 CURVE SMOOTH",
"200 580 LINE",
"136 700 LINE SMOOTH",
"131 709 OFFCURVE",
"125 716 OFFCURVE",
"108 716 CURVE SMOOTH"
);
}
);
width = 251;
}
);
note = grave;
unicode = 0060;
},
{
color = 4;
glyphname = a;
lastChange = "2015-10-19 07:12:56 +0000";
layers = (
{
anchors = (
{
name = bottom;
position = "{251, 0}";
},
{
name = ogonek;
position = "{452, 10}";
},
{
name = top;
position = "{325, 498}";
}
);
layerId = "18B4A443-2C69-4DCB-9619-77A7DD6AC8EC";
name = Light;
paths = (
{
closed = 1;
nodes = (
"383 39 LINE",
"437 481 LINE",
"405 498 OFFCURVE",
"369 504 OFFCURVE",
"329 504 CURVE SMOOTH",
"166 504 OFFCURVE",
"26 342 OFFCURVE",
"26 167 CURVE SMOOTH",
"26 71 OFFCURVE",
"61 -6 OFFCURVE",
"152 -6 CURVE SMOOTH",
"241 -6 OFFCURVE",
"313 81 OFFCURVE",
"355 172 CURVE",
"338 16 LINE",
"338 10 OFFCURVE",
"342 0 OFFCURVE",
"355 0 CURVE",
"444 0 LINE",
"447 20 LINE",
"448 31 OFFCURVE",
"442 37 OFFCURVE",
"429 38 CURVE"
);
},
{
closed = 1;
nodes = (
"260 33 OFFCURVE",
"167 33 CURVE SMOOTH",
"96 33 OFFCURVE",
"73 96 OFFCURVE",
"73 175 CURVE SMOOTH",
"73 320 OFFCURVE",
"188 469 OFFCURVE",
"324 469 CURVE SMOOTH",
"347 469 OFFCURVE",
"368 466 OFFCURVE",
"388 459 CURVE",
"363 256 LINE",
"327 157 OFFCURVE"
);
}
);
width = 502;
}
);
note = a;
unicode = 0061;
},
{
color = 4;
glyphname = b;
lastChange = "2015-10-11 20:28:56 +0000";
layers = (
{
layerId = "18B4A443-2C69-4DCB-9619-77A7DD6AC8EC";
name = Light;
paths = (
{
closed = 1;
nodes = (
"456 506 OFFCURVE",
"320 506 CURVE SMOOTH",
"248 506 OFFCURVE",
"186 469 OFFCURVE",
"134 411 CURVE",
"173 728 LINE",
"53 728 LINE",
"50 708 LINE",
"49 697 OFFCURVE",
"55 691 OFFCURVE",
"68 690 CURVE",
"120 688 LINE",
"38 22 LINE",
"124 3 OFFCURVE",
"189 -6 OFFCURVE",
"234 -6 CURVE SMOOTH",
"374 -6 OFFCURVE",
"467 110 OFFCURVE",
"483 252 CURVE SMOOTH",
"501 402 OFFCURVE"
);
},
{
closed = 1;
nodes = (
"350 31 OFFCURVE",
"230 31 CURVE SMOOTH",
"204 31 OFFCURVE",
"158 38 OFFCURVE",
"90 52 CURVE",
"129 371 LINE",
"175 426 OFFCURVE",
"231 468 OFFCURVE",
"302 468 CURVE SMOOTH",
"415 468 OFFCURVE",
"450 384 OFFCURVE",
"434 252 CURVE SMOOTH",
"418 124 OFFCURVE"
);
}
);
width = 522;
}
);
note = b;
unicode = 0062;
},
{
color = 4;
glyphname = c;
lastChange = "2015-10-19 09:49:54 +0000";
layers = (
{
anchors = (
{
name = bottom;
position = "{224, 0}";
},
{
name = top;
position = "{287, 498}";
}
);
layerId = "18B4A443-2C69-4DCB-9619-77A7DD6AC8EC";
name = Light;
paths = (
{
closed = 1;
nodes = (
"380 80 LINE SMOOTH",
"375 87 OFFCURVE",
"367 87 OFFCURVE",
"355 77 CURVE SMOOTH",
"324 50 OFFCURVE",
"274 31 OFFCURVE",
"224 31 CURVE SMOOTH",
"111 31 OFFCURVE",
"63 120 OFFCURVE",
"78 249 CURVE SMOOTH",
"93 370 OFFCURVE",
"160 468 OFFCURVE",
"284 468 CURVE SMOOTH",
"309 468 OFFCURVE",
"337 462 OFFCURVE",
"367 451 CURVE",
"367 452 OFFCURVE",
"363 369 OFFCURVE",
"363 373 CURVE",
"362 357 OFFCURVE",
"368 349 OFFCURVE",
"382 349 CURVE SMOOTH",
"406 349 LINE",
"422 474 LINE",
"398 484 OFFCURVE",
"351 505 OFFCURVE",
"286 505 CURVE SMOOTH",
"137 505 OFFCURVE",
"51 400 OFFCURVE",
"30 249 CURVE SMOOTH",
"12 102 OFFCURVE",
"75 -7 OFFCURVE",
"212 -7 CURVE SMOOTH",
"273 -7 OFFCURVE",
"348 16 OFFCURVE",
"391 64 CURVE"
);
}
);
width = 448;
}
);
note = c;
unicode = 0063;
},
{
color = 4;
glyphname = d;
lastChange = "2015-10-19 09:53:04 +0000";
layers = (
{
anchors = (
{
name = bottom;
position = "{267, 0}";
},
{
name = center;
position = "{267, 249}";
},
{
name = top;
position = "{267, 498}";
},
{
name = topright;
position = "{488, 498}";
}
);
layerId = "18B4A443-2C69-4DCB-9619-77A7DD6AC8EC";
name = Light;
paths = (
{
closed = 1;
nodes = (
"485 20 LINE",
"486 31 OFFCURVE",
"480 37 OFFCURVE",
"467 38 CURVE",
"421 39 LINE",
"505 728 LINE",
"385 728 LINE",
"383 708 LINE SMOOTH",
"382 697 OFFCURVE",
"388 691 OFFCURVE",
"401 690 CURVE",
"453 688 LINE",
"421 433 LINE",
"389 484 OFFCURVE",
"341 506 OFFCURVE",
"279 506 CURVE SMOOTH",
"139 506 OFFCURVE",
"46 392 OFFCURVE",
"30 248 CURVE SMOOTH",
"12 97 OFFCURVE",
"56 -6 OFFCURVE",
"193 -6 CURVE SMOOTH",
"268 -6 OFFCURVE",
"328 31 OFFCURVE",
"381 92 CURVE",
"377 13 LINE",
"377 4 OFFCURVE",
"382 0 OFFCURVE",
"390 0 CURVE SMOOTH",
"483 0 LINE"
);
},
{
closed = 1;
nodes = (
"384 129 LINE",
"338 74 OFFCURVE",
"282 32 OFFCURVE",
"211 32 CURVE SMOOTH",
"93 32 OFFCURVE",
"64 121 OFFCURVE",
"79 248 CURVE SMOOTH",
"95 369 OFFCURVE",
"159 469 OFFCURVE",
"283 469 CURVE SMOOTH",
"345 469 OFFCURVE",
"385 445 OFFCURVE",
"416 391 CURVE"
);
}
);
width = 533;
}
);
note = d;
unicode = 0064;
},
{
color = 4;
glyphname = e;
lastChange = "2015-10-19 06:59:56 +0000";
layers = (
{
anchors = (
{
name = bottom;
position = "{219, 0}";
},
{
name = ogonek;
position = "{394, 10}";
},
{
name = top;
position = "{275, 498}";
}
);
layerId = "18B4A443-2C69-4DCB-9619-77A7DD6AC8EC";
name = Light;
paths = (
{
closed = 1;
nodes = (
"410 463 OFFCURVE",
"352 504 OFFCURVE",
"277 504 CURVE SMOOTH",
"128 504 OFFCURVE",
"26 352 OFFCURVE",
"26 189 CURVE SMOOTH",
"26 77 OFFCURVE",
"81 -6 OFFCURVE",
"199 -6 CURVE SMOOTH",
"279 -6 OFFCURVE",
"343 28 OFFCURVE",
"397 92 CURVE",
"386 105 LINE",
"379 112 OFFCURVE",
"370 112 OFFCURVE",
"363 105 CURVE SMOOTH",
"304 53 OFFCURVE",
"277 31 OFFCURVE",
"207 31 CURVE SMOOTH",
"114 31 OFFCURVE",
"72 95 OFFCURVE",
"72 190 CURVE SMOOTH",
"72 195 OFFCURVE",
"74 229 OFFCURVE",
"74 231 CURVE",
"210 247 OFFCURVE",
"410 268 OFFCURVE",
"410 402 CURVE SMOOTH"
);
},
{
closed = 1;
nodes = (
"328 469 OFFCURVE",
"368 445 OFFCURVE",
"368 401 CURVE SMOOTH",
"368 299 OFFCURVE",
"199 278 OFFCURVE",
"80 264 CURVE",
"100 369 OFFCURVE",
"169 469 OFFCURVE",
"275 469 CURVE SMOOTH"
);
}
);
width = 438;
}
);
note = e;
unicode = 0065;
},
{
color = 4;
glyphname = f;
lastChange = "2015-10-18 18:16:04 +0000";
layers = (
{
anchors = (
{
name = bottom;
position = "{237, 0}";
},
{
name = top;
position = "{237, 498}";
}
);
layerId = "18B4A443-2C69-4DCB-9619-77A7DD6AC8EC";
name = Light;
paths = (
{
closed = 1;
nodes = (
"429 716 OFFCURVE",
"407 716 CURVE SMOOTH",
"305 716 OFFCURVE",
"244 644 OFFCURVE",
"233 545 CURVE SMOOTH",
"226 482 LINE",
"141 482 LINE",
"139 462 LINE SMOOTH",
"138 454 OFFCURVE",
"142 451 OFFCURVE",
"152 450 CURVE SMOOTH",
"221 445 LINE",
"167 2 LINE SMOOTH",
"156 -86 OFFCURVE",
"105 -146 OFFCURVE",
"22 -146 CURVE SMOOTH",
"10 -146 OFFCURVE",
"4 -151 OFFCURVE",
"4 -162 CURVE SMOOTH",
"4 -186 LINE",
"128 -186 OFFCURVE",
"198 -121 OFFCURVE",
"214 1 CURVE SMOOTH",
"269 446 LINE",
"429 446 LINE",
"434 482 LINE",
"272 482 LINE",
"280 543 LINE SMOOTH",
"290 623 OFFCURVE",
"325 679 OFFCURVE",
"409 679 CURVE SMOOTH",
"419 679 OFFCURVE",
"427 678 OFFCURVE",
"434 677 CURVE SMOOTH",
"451 674 OFFCURVE",
"459 677 OFFCURVE",
"461 686 CURVE SMOOTH",
"465 706 LINE",
"445 714 OFFCURVE"
);
}
);
width = 474;
}
);
note = f;
unicode = 0066;
},
{
color = 4;
glyphname = g;
lastChange = "2015-10-08 15:02:42 +0000";
layers = (
{
layerId = "18B4A443-2C69-4DCB-9619-77A7DD6AC8EC";
name = Light;
paths = (
{
closed = 1;
nodes = (
"417 391 OFFCURVE",
"411 423 OFFCURVE",
"398 445 CURVE",
"479 451 LINE",
"487 453 OFFCURVE",
"493 459 OFFCURVE",
"493 465 CURVE",
"495 481 LINE",
"365 481 LINE",
"338 499 OFFCURVE",
"310 506 OFFCURVE",
"277 506 CURVE SMOOTH",
"171 506 OFFCURVE",
"94 424 OFFCURVE",
"94 322 CURVE SMOOTH",
"94 238 OFFCURVE",
"144 183 OFFCURVE",
"227 183 CURVE SMOOTH",
"264 183 OFFCURVE",
"288 191 OFFCURVE",
"320 212 CURVE",
"304 187 OFFCURVE",
"291 163 OFFCURVE",
"291 132 CURVE SMOOTH",
"291 114 OFFCURVE",
"299 95 OFFCURVE",
"311 79 CURVE",
"305 80 OFFCURVE",
"257 84 OFFCURVE",
"243 84 CURVE SMOOTH",
"128 84 OFFCURVE",
"6 38 OFFCURVE",
"6 -66 CURVE SMOOTH",
"6 -147 OFFCURVE",
"91 -184 OFFCURVE",
"185 -184 CURVE SMOOTH",
"293 -184 OFFCURVE",
"406 -122 OFFCURVE",
"406 -22 CURVE SMOOTH",
"406 12 OFFCURVE",
"390 42 OFFCURVE",
"366 69 CURVE SMOOTH",
"344 94 OFFCURVE",
"326 119 OFFCURVE",
"326 146 CURVE SMOOTH",
"326 165 OFFCURVE",
"337 193 OFFCURVE",
"349 211 CURVE SMOOTH",
"392 272 OFFCURVE",
"417 309 OFFCURVE",
"417 369 CURVE SMOOTH"
);
},
{
closed = 1;
nodes = (
"363 -97 OFFCURVE",
"276 -150 OFFCURVE",
"189 -150 CURVE SMOOTH",
"119 -150 OFFCURVE",
"51 -127 OFFCURVE",
"51 -60 CURVE SMOOTH",
"51 19 OFFCURVE",
"153 55 OFFCURVE",
"247 55 CURVE SMOOTH",
"262 55 OFFCURVE",
"320 51 OFFCURVE",
"336 48 CURVE",
"335 49 LINE",
"352 28 OFFCURVE",
"363 6 OFFCURVE",
"363 -25 CURVE SMOOTH"
);
},
{
closed = 1;
nodes = (
"175 214 OFFCURVE",
"138 252 OFFCURVE",
"138 322 CURVE SMOOTH",
"138 403 OFFCURVE",
"193 472 OFFCURVE",
"272 472 CURVE SMOOTH",
"338 472 OFFCURVE",
"374 434 OFFCURVE",
"374 368 CURVE SMOOTH",
"374 287 OFFCURVE",
"321 214 OFFCURVE",
"238 214 CURVE SMOOTH"
);
}
);
width = 509;
}
);
note = g;
unicode = 0067;
},
{
color = 4;
glyphname = h;
lastChange = "2015-10-18 18:16:00 +0000";
layers = (
{
anchors = (
{
name = bottom;
position = "{275, 0}";
},
{
name = center;
position = "{275, 249}";
},
{
name = top;
position = "{275, 498}";
}
);
layerId = "18B4A443-2C69-4DCB-9619-77A7DD6AC8EC";
name = Light;
paths = (
{
closed = 1;
nodes = (
"433 40 LINE",
"468 318 LINE SMOOTH",
"483 426 OFFCURVE",
"439 505 OFFCURVE",
"325 505 CURVE SMOOTH",
"252 505 OFFCURVE",
"189 469 OFFCURVE",
"136 412 CURVE",
"174 727 LINE",
"55 727 LINE",
"52 708 LINE",
"51 697 OFFCURVE",
"57 691 OFFCURVE",
"70 690 CURVE",
"122 688 LINE",
"38 0 LINE",
"85 0 LINE",
"131 373 LINE",
"180 427 OFFCURVE",
"236 467 OFFCURVE",
"308 467 CURVE SMOOTH",
"399 467 OFFCURVE",
"432 410 OFFCURVE",
"420 318 CURVE SMOOTH",
"381 0 LINE",
"501 0 LINE",
"503 20 LINE SMOOTH",
"504 31 OFFCURVE",
"499 37 OFFCURVE",
"486 38 CURVE"
);
}
);
width = 549;
}
);
note = h;
unicode = 0068;
},
{
color = 4;
glyphname = i;
lastChange = "2015-10-19 09:51:42 +0000";
layers = (
{
anchors = (
{
name = bottom;
position = "{125, 0}";
}
);
components = (
{
name = dotaccentcomb.case;
transform = "{1, 0, 0, 1, 35, 0}";
}
);
layerId = "18B4A443-2C69-4DCB-9619-77A7DD6AC8EC";
name = Light;
paths = (
{
closed = 1;
nodes = (
"116 40 LINE",
"172 498 LINE",
"52 498 LINE",
"50 478 LINE SMOOTH",
"49 467 OFFCURVE",
"54 461 OFFCURVE",
"67 460 CURVE",
"120 458 LINE",
"63 0 LINE",
"183 0 LINE",
"185 20 LINE SMOOTH",
"186 31 OFFCURVE",
"181 37 OFFCURVE",
"168 38 CURVE"
);
}
);
width = 221;
}
);
note = i;
unicode = 0069;
},
{
color = 4;
glyphname = j;
lastChange = "2015-10-19 06:44:45 +0000";
layers = (
{
components = (
{
name = dotaccent;
transform = "{1, 0, 0, 1, 138, -4}";
}
);
layerId = "18B4A443-2C69-4DCB-9619-77A7DD6AC8EC";
name = Light;
paths = (
{
closed = 1;
nodes = (
"134 498 LINE",
"132 479 LINE SMOOTH",
"131 468 OFFCURVE",
"137 462 OFFCURVE",
"150 461 CURVE",
"202 459 LINE",
"138 -63 LINE SMOOTH",
"132 -113 OFFCURVE",
"104 -148 OFFCURVE",
"48 -148 CURVE SMOOTH",
"40 -148 OFFCURVE",
"33 -147 OFFCURVE",
"28 -146 CURVE SMOOTH",
"23 -145 OFFCURVE",
"11 -140 OFFCURVE",
"9 -150 CURVE",
"4 -174 LINE",
"17 -181 OFFCURVE",
"34 -184 OFFCURVE",
"51 -184 CURVE SMOOTH",
"127 -184 OFFCURVE",
"176 -138 OFFCURVE",
"185 -63 CURVE SMOOTH",
"254 498 LINE"
);
}
);
width = 310;
}
);
note = j;
unicode = 006A;
},
{
color = 4;
glyphname = k;
lastChange = "2015-10-19 06:46:27 +0000";
layers = (
{
layerId = "18B4A443-2C69-4DCB-9619-77A7DD6AC8EC";
name = Light;
paths = (
{
closed = 1;
nodes = (
"324 498 LINE",
"321 478 LINE",
"320 467 OFFCURVE",
"326 461 OFFCURVE",
"339 460 CURVE",
"364 459 LINE",
"171 295 LINE SMOOTH",
"165 290 OFFCURVE",
"156 284 OFFCURVE",
"143 284 CURVE SMOOTH",
"120 284 LINE",
"174 727 LINE",
"127 727 LINE",
"55 727 LINE",
"52 708 LINE",
"51 697 OFFCURVE",
"57 691 OFFCURVE",
"70 690 CURVE",
"122 688 LINE",
"38 0 LINE",
"85 0 LINE",
"116 251 LINE",
"138 251 LINE SMOOTH",
"157 251 OFFCURVE",
"162 249 OFFCURVE",
"174 235 CURVE SMOOTH",
"355 11 LINE",
"358 7 OFFCURVE",
"366 0 OFFCURVE",
"377 0 CURVE",
"441 0 LINE",
"443 20 LINE SMOOTH",
"444 31 OFFCURVE",
"439 37 OFFCURVE",
"426 38 CURVE",
"388 39 LINE",
"209 263 LINE",
"209 263 OFFCURVE",
"202 271 OFFCURVE",
"197 272 CURVE",
"202 274 OFFCURVE",
"218 289 OFFCURVE",
"218 289 CURVE",
"417 458 LINE",
"453 460 LINE",
"466 461 OFFCURVE",
"474 467 OFFCURVE",
"475 478 CURVE",
"478 498 LINE"
);
}
);
width = 492;
}
);
note = k;
unicode = 006B;
},
{
color = 4;
glyphname = l;
lastChange = "2015-10-19 06:46:59 +0000";
layers = (
{
anchors = (
{
name = bottom;
position = "{104, 0}";
},
{
name = center;
position = "{104, 249}";
},
{
name = top;
position = "{104, 498}";
},
{
name = topright;
position = "{187, 498}";
}
);
layerId = "18B4A443-2C69-4DCB-9619-77A7DD6AC8EC";
name = Light;
paths = (
{
closed = 1;
nodes = (
"90 40 LINE",
"174 728 LINE",
"55 728 LINE",
"52 708 LINE",
"51 697 OFFCURVE",
"57 691 OFFCURVE",
"70 690 CURVE",
"122 688 LINE",
"38 0 LINE",
"157 0 LINE",
"160 20 LINE",
"161 31 OFFCURVE",
"155 37 OFFCURVE",
"142 38 CURVE"
);
}
);
width = 207;
}
);
note = l;
unicode = 006C;
},
{
color = 4;
glyphname = m;
lastChange = "2015-10-19 06:49:48 +0000";
layers = (
{
layerId = "18B4A443-2C69-4DCB-9619-77A7DD6AC8EC";
name = Light;
paths = (
{
closed = 1;
nodes = (
"701 40 LINE",
"735 318 LINE SMOOTH",
"749 425 OFFCURVE",
"709 505 OFFCURVE",
"599 505 CURVE SMOOTH",
"522 505 OFFCURVE",
"461 463 OFFCURVE",
"426 385 CURVE",
"420 456 OFFCURVE",
"386 505 OFFCURVE",
"309 505 CURVE SMOOTH",
"243 505 OFFCURVE",
"187 464 OFFCURVE",
"147 413 CURVE",
"151 486 LINE",
"151 494 OFFCURVE",
"147 498 OFFCURVE",
"138 498 CURVE SMOOTH",
"40 498 LINE",
"37 479 LINE",
"36 468 OFFCURVE",
"42 462 OFFCURVE",
"55 461 CURVE",
"107 459 LINE",
"51 0 LINE",
"98 0 LINE",
"144 376 LINE",
"179 424 OFFCURVE",
"234 468 OFFCURVE",
"292 468 CURVE SMOOTH",
"373 468 OFFCURVE",
"398 406 OFFCURVE",
"387 318 CURVE SMOOTH",
"348 0 LINE",
"396 0 LINE",
"435 318 LINE",
"443 398 OFFCURVE",
"500 467 OFFCURVE",
"585 467 CURVE SMOOTH",
"666 467 OFFCURVE",
"699 410 OFFCURVE",
"688 318 CURVE SMOOTH",
"649 0 LINE",
"769 0 LINE",
"771 20 LINE SMOOTH",
"772 31 OFFCURVE",
"766 37 OFFCURVE",
"753 38 CURVE"
);
}
);
width = 820;
}
);
note = m;
unicode = 006D;
},
{
color = 4;
glyphname = n;
lastChange = "2015-10-19 06:50:51 +0000";
layers = (
{
layerId = "18B4A443-2C69-4DCB-9619-77A7DD6AC8EC";
name = Light;
paths = (
{
closed = 1;
nodes = (
"447 40 LINE",
"481 319 LINE SMOOTH",
"494 427 OFFCURVE",
"452 506 OFFCURVE",
"338 506 CURVE SMOOTH",
"263 506 OFFCURVE",
"198 468 OFFCURVE",
"147 411 CURVE",
"151 486 LINE",
"151 494 OFFCURVE",
"147 498 OFFCURVE",
"138 498 CURVE SMOOTH",
"40 498 LINE",
"37 479 LINE",
"36 468 OFFCURVE",
"42 462 OFFCURVE",
"55 461 CURVE",
"107 459 LINE",
"51 0 LINE",
"98 0 LINE",
"144 374 LINE",
"192 428 OFFCURVE",
"251 468 OFFCURVE",
"322 468 CURVE SMOOTH",
"413 468 OFFCURVE",
"444 410 OFFCURVE",
"433 319 CURVE SMOOTH",
"394 0 LINE",
"514 0 LINE",
"516 20 LINE SMOOTH",
"517 31 OFFCURVE",
"512 37 OFFCURVE",
"499 38 CURVE"
);
}
);
width = 565;
}
);
note = n;
unicode = 006E;
},
{
color = 4;
glyphname = o;
lastChange = "2015-10-19 06:51:41 +0000";
layers = (
{
anchors = (
{
name = bottom;
position = "{261, 0}";
},
{
name = center;
position = "{261, 249}";
},
{
name = ogonek;
position = "{470, 10}";
},
{
name = top;
position = "{287, 498}";
},
{
name = topright;
position = "{502, 498}";
}
);
layerId = "18B4A443-2C69-4DCB-9619-77A7DD6AC8EC";
name = Light;
paths = (
{
closed = 1;
nodes = (
"144 506 OFFCURVE",
"50 405 OFFCURVE",
"30 249 CURVE SMOOTH",
"11 99 OFFCURVE",
"79 -6 OFFCURVE",
"225 -6 CURVE SMOOTH",
"370 -6 OFFCURVE",
"463 94 OFFCURVE",
"483 249 CURVE SMOOTH",
"502 400 OFFCURVE",
"432 506 OFFCURVE",
"288 506 CURVE SMOOTH"
);
},
{
closed = 1;
nodes = (
"111 31 OFFCURVE",
"63 117 OFFCURVE",
"79 249 CURVE SMOOTH",
"94 372 OFFCURVE",
"158 468 OFFCURVE",
"283 468 CURVE SMOOTH",
"405 468 OFFCURVE",
"450 378 OFFCURVE",
"434 249 CURVE SMOOTH",
"418 125 OFFCURVE",
"355 31 OFFCURVE",
"230 31 CURVE SMOOTH"
);
}
);
width = 522;
}
);
note = o;
unicode = 006F;
},
{
color = 4;
glyphname = p;
lastChange = "2015-10-19 06:53:24 +0000";
layers = (
{
layerId = "18B4A443-2C69-4DCB-9619-77A7DD6AC8EC";
name = Light;
paths = (
{
closed = 1;
nodes = (
"518 506 OFFCURVE",
"382 506 CURVE SMOOTH",
"309 506 OFFCURVE",
"244 467 OFFCURVE",
"193 408 CURVE",
"198 486 LINE",
"198 496 OFFCURVE",
"195 498 OFFCURVE",
"185 498 CURVE SMOOTH",
"87 498 LINE",
"84 479 LINE",
"83 468 OFFCURVE",
"89 462 OFFCURVE",
"102 461 CURVE",
"154 459 LINE",
"81 -136 LINE",
"28 -138 LINE",
"15 -139 OFFCURVE",
"7 -145 OFFCURVE",
"6 -156 CURVE SMOOTH",
"4 -176 LINE",
"196 -176 LINE",
"198 -156 LINE SMOOTH",
"199 -145 OFFCURVE",
"194 -139 OFFCURVE",
"181 -138 CURVE",
"129 -136 LINE",
"154 67 LINE",
"187 14 OFFCURVE",
"233 -6 OFFCURVE",
"297 -6 CURVE SMOOTH",
"435 -6 OFFCURVE",
"529 110 OFFCURVE",
"545 252 CURVE SMOOTH",
"563 402 OFFCURVE"
);
},
{
closed = 1;
nodes = (
"411 31 OFFCURVE",
"292 31 CURVE SMOOTH",
"231 31 OFFCURVE",
"186 56 OFFCURVE",
"159 109 CURVE",
"191 370 LINE",
"237 429 OFFCURVE",
"295 467 OFFCURVE",
"364 467 CURVE SMOOTH",
"481 467 OFFCURVE",
"511 379 OFFCURVE",
"496 252 CURVE SMOOTH",
"480 124 OFFCURVE"
);
}
);
width = 585;
}
);
note = p;
unicode = 0070;
},
{
color = 4;
glyphname = q;
lastChange = "2015-10-19 06:54:02 +0000";
layers = (
{
layerId = "18B4A443-2C69-4DCB-9619-77A7DD6AC8EC";
name = Light;
paths = (
{
closed = 1;
nodes = (
"400 -137 LINE",
"476 477 LINE",
"390 496 OFFCURVE",
"325 505 OFFCURVE",
"280 505 CURVE SMOOTH",
"140 505 OFFCURVE",
"47 389 OFFCURVE",
"31 247 CURVE SMOOTH",
"13 96 OFFCURVE",
"58 -6 OFFCURVE",
"194 -6 CURVE SMOOTH",
"265 -6 OFFCURVE",
"325 27 OFFCURVE",
"380 88 CURVE",
"353 -137 LINE",
"300 -139 LINE",
"287 -140 OFFCURVE",
"279 -146 OFFCURVE",
"278 -157 CURVE SMOOTH",
"276 -176 LINE",
"468 -176 LINE",
"470 -157 LINE SMOOTH",
"471 -146 OFFCURVE",
"466 -140 OFFCURVE",
"453 -139 CURVE"
);
},
{
closed = 1;
nodes = (
"385 128 LINE",
"338 72 OFFCURVE",
"284 32 OFFCURVE",
"212 32 CURVE SMOOTH",
"95 32 OFFCURVE",
"65 120 OFFCURVE",
"80 247 CURVE SMOOTH",
"96 375 OFFCURVE",
"165 468 OFFCURVE",
"285 468 CURVE SMOOTH",
"311 468 OFFCURVE",
"357 461 OFFCURVE",
"425 447 CURVE"
);
}
);
width = 513;
}
);
note = q;
unicode = 0071;
},
{
color = 4;
glyphname = r;
lastChange = "2015-10-19 09:52:11 +0000";
layers = (
{
anchors = (
{
name = bottom;
position = "{206, 0}";
},
{
name = top;
position = "{236, 498}";
}
);
layerId = "18B4A443-2C69-4DCB-9619-77A7DD6AC8EC";
name = Light;
paths = (
{
closed = 1;
nodes = (
"348 506 OFFCURVE",
"321 506 CURVE SMOOTH",
"241 506 OFFCURVE",
"186 459 OFFCURVE",
"143 377 CURVE",
"151 483 LINE",
"151 492 OFFCURVE",
"152 498 OFFCURVE",
"137 498 CURVE SMOOTH",
"40 498 LINE",
"37 479 LINE",
"36 468 OFFCURVE",
"42 462 OFFCURVE",
"55 461 CURVE",
"107 459 LINE",
"51 0 LINE",
"98 0 LINE",
"138 323 LINE",
"175 405 OFFCURVE",
"227 459 OFFCURVE",
"306 459 CURVE SMOOTH",
"337 459 OFFCURVE",
"343 456 OFFCURVE",
"366 448 CURVE SMOOTH",
"372 446 OFFCURVE",
"381 443 OFFCURVE",
"386 454 CURVE",
"396 487 LINE",
"372 500 OFFCURVE"
);
}
);
width = 411;
}
);
note = r;
unicode = 0072;
},
{
color = 4;
glyphname = s;
lastChange = "2015-10-19 06:55:25 +0000";
layers = (
{
anchors = (
{
name = bottom;
position = "{208, 0}";
},
{
name = top;
position = "{208, 498}";
}
);
layerId = "18B4A443-2C69-4DCB-9619-77A7DD6AC8EC";
name = Light;
paths = (
{
closed = 1;
nodes = (
"326 249 OFFCURVE",
"242 274 CURVE SMOOTH",
"165 298 OFFCURVE",
"108 316 OFFCURVE",
"116 374 CURVE SMOOTH",
"125 433 OFFCURVE",
"185 469 OFFCURVE",
"248 469 CURVE SMOOTH",
"274 469 OFFCURVE",
"299 465 OFFCURVE",
"325 456 CURVE",
"323 384 LINE",
"322 368 OFFCURVE",
"327 360 OFFCURVE",
"341 360 CURVE SMOOTH",
"365 360 LINE",
"380 479 LINE",
"330 497 OFFCURVE",
"287 505 OFFCURVE",
"251 505 CURVE SMOOTH",
"162 505 OFFCURVE",
"79 451 OFFCURVE",
"70 371 CURVE SMOOTH",
"59 299 OFFCURVE",
"112 267 OFFCURVE",
"193 243 CURVE SMOOTH",
"268 221 OFFCURVE",
"327 199 OFFCURVE",
"319 138 CURVE SMOOTH",
"309 66 OFFCURVE",
"249 27 OFFCURVE",
"178 27 CURVE SMOOTH",
"140 27 OFFCURVE",
"108 32 OFFCURVE",
"82 43 CURVE",
"85 117 LINE",
"86 133 OFFCURVE",
"81 141 OFFCURVE",
"67 141 CURVE SMOOTH",
"42 141 LINE",
"28 20 LINE",
"74 2 OFFCURVE",
"121 -8 OFFCURVE",
"171 -8 CURVE SMOOTH",
"270 -8 OFFCURVE",
"352 51 OFFCURVE",
"365 146 CURVE",
"373 213 OFFCURVE"
);
}
);
width = 416;
}
);
note = s;
unicode = 0073;
},
{
color = 4;
glyphname = t;
lastChange = "2015-10-19 09:53:49 +0000";
layers = (
{
anchors = (
{
name = bottom;
position = "{166, 0}";
},
{
name = center;
position = "{166, 249}";
},
{
name = top;
position = "{166, 498}";
},
{
name = topright;
position = "{167, 498}";
}
);
layerId = "18B4A443-2C69-4DCB-9619-77A7DD6AC8EC";
name = Light;
paths = (
{
closed = 1;
nodes = (
"196 -8 OFFCURVE",
"246 9 OFFCURVE",
"275 38 CURVE",
"266 58 LINE",
"262 66 OFFCURVE",
"254 65 OFFCURVE",
"247 59 CURVE SMOOTH",
"235 49 OFFCURVE",
"201 31 OFFCURVE",
"175 31 CURVE SMOOTH",
"131 31 OFFCURVE",
"110 63 OFFCURVE",
"116 109 CURVE SMOOTH",
"157 446 LINE",
"314 446 LINE",
"318 482 LINE",
"162 482 LINE",
"185 672 LINE",
"162 672 LINE SMOOTH",
"155 672 OFFCURVE",
"150 666 OFFCURVE",
"148 660 CURVE",
"115 482 LINE",
"29 476 LINE",
"27 458 LINE",
"27 449 OFFCURVE",
"31 446 OFFCURVE",
"38 446 CURVE SMOOTH",
"109 446 LINE",
"67 106 LINE SMOOTH",
"58 33 OFFCURVE",
"89 -8 OFFCURVE",
"160 -8 CURVE SMOOTH"
);
}
);
width = 332;
}
);
note = t;
unicode = 0074;
},
{
color = 4;
glyphname = u;
lastChange = "2015-10-19 06:59:40 +0000";
layers = (
{
anchors = (
{
name = bottom;
position = "{282, 0}";
},
{
name = ogonek;
position = "{508, 10}";
},
{
name = top;
position = "{282, 498}";
},
{
name = topright;
position = "{544, 498}";
}
);
layerId = "18B4A443-2C69-4DCB-9619-77A7DD6AC8EC";
name = Light;
paths = (
{
closed = 1;
nodes = (
"442 40 LINE",
"498 498 LINE",
"450 497 LINE",
"378 497 LINE",
"376 478 LINE SMOOTH",
"375 467 OFFCURVE",
"380 461 OFFCURVE",
"393 460 CURVE",
"446 458 LINE",
"404 124 LINE",
"357 71 OFFCURVE",
"296 30 OFFCURVE",
"226 30 CURVE SMOOTH",
"138 30 OFFCURVE",
"103 87 OFFCURVE",
"115 180 CURVE SMOOTH",
"154 498 LINE",
"106 497 LINE",
"34 497 LINE",
"32 478 LINE SMOOTH",
"31 467 OFFCURVE",
"36 461 OFFCURVE",
"49 460 CURVE",
"102 458 LINE",
"67 180 LINE SMOOTH",
"53 73 OFFCURVE",
"95 -8 OFFCURVE",
"210 -8 CURVE SMOOTH",
"284 -8 OFFCURVE",
"348 29 OFFCURVE",
"402 87 CURVE",
"398 13 LINE",
"397 4 OFFCURVE",
"402 0 OFFCURVE",
"411 0 CURVE SMOOTH",
"509 0 LINE",
"511 20 LINE SMOOTH",
"512 31 OFFCURVE",
"507 37 OFFCURVE",
"494 38 CURVE"
);
}
);
width = 564;
}
);
note = u;
unicode = 0075;
},
{
color = 4;
glyphname = v;
lastChange = "2015-10-19 07:01:42 +0000";
layers = (
{
layerId = "18B4A443-2C69-4DCB-9619-77A7DD6AC8EC";
name = Light;
paths = (
{
closed = 1;
nodes = (
"392 498 LINE",
"390 479 LINE SMOOTH",
"389 468 OFFCURVE",
"394 462 OFFCURVE",
"407 461 CURVE",
"459 459 LINE",
"261 93 LINE SMOOTH",
"253 79 OFFCURVE",
"245 58 OFFCURVE",
"243 50 CURVE",
"243 58 OFFCURVE",
"241 77 OFFCURVE",
"236 93 CURVE",
"128 459 LINE",
"180 461 LINE",
"193 462 OFFCURVE",
"201 468 OFFCURVE",
"202 479 CURVE SMOOTH",
"204 498 LINE",
"30 498 LINE",
"28 479 LINE SMOOTH",
"27 468 OFFCURVE",
"32 462 OFFCURVE",
"45 461 CURVE",
"78 460 LINE",
"215 0 LINE",
"257 0 LINE",
"507 460 LINE",
"542 461 LINE",
"555 462 OFFCURVE",
"563 468 OFFCURVE",
"564 479 CURVE SMOOTH",
"566 498 LINE"
);
}
);
width = 581;
}
);
note = v;
unicode = 0076;
},
{
color = 4;
glyphname = w;
lastChange = "2015-10-19 07:03:15 +0000";
layers = (
{
anchors = (
{
name = bottom;
position = "{407, 0}";
},
{
name = top;
position = "{433, 498}";
}
);
layerId = "18B4A443-2C69-4DCB-9619-77A7DD6AC8EC";
name = Light;
paths = (
{
closed = 1;
nodes = (
"653 498 LINE",
"651 479 LINE SMOOTH",
"650 468 OFFCURVE",
"655 462 OFFCURVE",
"668 461 CURVE",
"720 459 LINE",
"558 93 LINE",
"552 78 OFFCURVE",
"547 64 OFFCURVE",
"542 50 CURVE",
"541 64 OFFCURVE",
"538 78 OFFCURVE",
"535 93 CURVE SMOOTH",
"452 489 LINE",
"451 496 OFFCURVE",
"446 500 OFFCURVE",
"439 500 CURVE SMOOTH",
"420 500 LINE SMOOTH",
"413 500 OFFCURVE",
"407 496 OFFCURVE",
"404 489 CURVE SMOOTH",
"222 93 LINE SMOOTH",
"217 82 OFFCURVE",
"209 66 OFFCURVE",
"204 50 CURVE",
"204 66 OFFCURVE",
"202 79 OFFCURVE",
"200 93 CURVE",
"128 459 LINE",
"180 461 LINE",
"193 462 OFFCURVE",
"201 468 OFFCURVE",
"202 479 CURVE",
"205 498 LINE",
"31 498 LINE",
"28 479 LINE",
"27 468 OFFCURVE",
"33 462 OFFCURVE",
"46 461 CURVE",
"79 460 LINE",
"176 0 LINE",
"209 0 LINE SMOOTH",
"215 0 OFFCURVE",
"220 4 OFFCURVE",
"223 11 CURVE SMOOTH",
"410 415 LINE",
"421 446 LINE",
"426 415 LINE",
"513 11 LINE",
"514 4 OFFCURVE",
"518 0 OFFCURVE",
"523 0 CURVE SMOOTH",
"558 0 LINE",
"768 460 LINE",
"803 461 LINE",
"816 462 OFFCURVE",
"824 468 OFFCURVE",
"825 479 CURVE SMOOTH",
"827 498 LINE"
);
}
);
width = 842;
}
);
note = w;
unicode = 0077;
},
{
color = 4;
glyphname = x;
lastChange = "2015-10-19 07:07:11 +0000";
layers = (
{
layerId = "18B4A443-2C69-4DCB-9619-77A7DD6AC8EC";
name = Light;
paths = (
{
closed = 1;
nodes = (
"442 39 LINE",
"315 257 LINE",
"486 460 LINE",
"517 461 LINE",
"530 462 OFFCURVE",
"537 467 OFFCURVE",
"539 479 CURVE",
"542 498 LINE",
"394 498 LINE",
"391 479 LINE",
"390 468 OFFCURVE",
"396 462 OFFCURVE",
"409 461 CURVE",
"435 460 LINE",
"299 294 LINE SMOOTH",
"294 288 OFFCURVE",
"290 282 OFFCURVE",
"288 276 CURVE",
"184 460 LINE",
"208 461 LINE",
"221 462 OFFCURVE",
"229 468 OFFCURVE",
"230 479 CURVE",
"233 498 LINE",
"85 498 LINE",
"82 479 LINE",
"81 468 OFFCURVE",
"87 462 OFFCURVE",
"100 461 CURVE",
"130 460 LINE",
"251 255 LINE",
"71 39 LINE",
"44 38 LINE",
"31 37 OFFCURVE",
"23 31 OFFCURVE",
"22 20 CURVE SMOOTH",
"20 0 LINE",
"167 0 LINE",
"170 20 LINE",
"171 31 OFFCURVE",
"165 37 OFFCURVE",
"152 38 CURVE",
"122 39 LINE",
"270 216 LINE SMOOTH",
"274 221 OFFCURVE",
"277 225 OFFCURVE",
"279 232 CURVE",
"389 39 LINE",
"361 38 LINE",
"348 37 OFFCURVE",
"340 31 OFFCURVE",
"339 20 CURVE SMOOTH",
"337 0 LINE",
"485 0 LINE",
"487 20 LINE SMOOTH",
"488 31 OFFCURVE",
"483 37 OFFCURVE",
"470 38 CURVE"
);
}
);
width = 556;
}
);
note = x;
unicode = 0078;
},
{
color = 4;
glyphname = y;
lastChange = "2015-10-19 07:07:43 +0000";
layers = (
{
anchors = (
{
name = bottom;
position = "{290, 0}";
},
{
name = top;
position = "{290, 498}";
}
);
layerId = "18B4A443-2C69-4DCB-9619-77A7DD6AC8EC";
name = Light;
paths = (
{
closed = 1;
nodes = (
"391 498 LINE",
"388 479 LINE",
"387 468 OFFCURVE",
"393 462 OFFCURVE",
"406 461 CURVE",
"457 459 LINE",
"259 98 LINE",
"244 66 LINE",
"239 98 LINE",
"127 459 LINE",
"179 461 LINE",
"192 462 OFFCURVE",
"200 468 OFFCURVE",
"201 479 CURVE",
"204 498 LINE",
"30 498 LINE",
"27 479 LINE",
"26 468 OFFCURVE",
"32 462 OFFCURVE",
"45 461 CURVE",
"75 460 LINE",
"215 18 LINE",
"103 -176 LINE",
"137 -176 LINE SMOOTH",
"146 -176 OFFCURVE",
"156 -169 OFFCURVE",
"161 -160 CURVE SMOOTH",
"506 460 LINE",
"540 461 LINE",
"553 462 OFFCURVE",
"561 468 OFFCURVE",
"562 479 CURVE",
"565 498 LINE"
);
}
);
width = 579;
}
);
note = y;
unicode = 0079;
},
{
color = 4;
glyphname = z;
lastChange = "2015-10-19 07:13:30 +0000";
layers = (
{
anchors = (
{
name = bottom;
position = "{239, 0}";
},
{
name = top;
position = "{239, 498}";
}
);
layerId = "18B4A443-2C69-4DCB-9619-77A7DD6AC8EC";
name = Light;
paths = (
{
closed = 1;
nodes = (
"393 125 LINE SMOOTH",
"379 125 OFFCURVE",
"372 117 OFFCURVE",
"369 101 CURVE",
"355 37 LINE",
"83 37 LINE",
"446 459 LINE SMOOTH",
"451 465 OFFCURVE",
"454 471 OFFCURVE",
"455 478 CURVE SMOOTH",
"458 498 LINE",
"98 498 LINE",
"82 369 LINE",
"106 369 LINE SMOOTH",
"120 369 OFFCURVE",
"128 377 OFFCURVE",
"131 393 CURVE",
"145 461 LINE",
"397 461 LINE",
"33 37 LINE SMOOTH",
"27 30 OFFCURVE",
"24 25 OFFCURVE",
"23 19 CURVE SMOOTH",
"20 0 LINE",
"402 0 LINE",
"417 125 LINE"
);
}
);
width = 477;
}
);
note = z;
unicode = 007A;
},
{
color = 4;
glyphname = braceleft;
lastChange = "2015-10-08 21:18:13 +0000";
layers = (
{
layerId = "18B4A443-2C69-4DCB-9619-77A7DD6AC8EC";
name = Light;
paths = (
{
closed = 1;
nodes = (
"111 247 OFFCURVE",
"88 169 CURVE SMOOTH",
"91 178 OFFCURVE",
"60 83 OFFCURVE",
"55 65 CURVE SMOOTH",
"23 -49 OFFCURVE",
"58 -132 OFFCURVE",
"166 -132 CURVE SMOOTH",
"194 -132 LINE",
"196 -111 LINE",
"196 -104 OFFCURVE",
"191 -100 OFFCURVE",
"185 -100 CURVE SMOOTH",
"169 -100 LINE SMOOTH",
"89 -100 OFFCURVE",
"70 -30 OFFCURVE",
"96 63 CURVE SMOOTH",
"106 98 OFFCURVE",
"117 126 OFFCURVE",
"129 169 CURVE SMOOTH",
"148 238 OFFCURVE",
"147 297 OFFCURVE",
"77 313 CURVE",
"137 325 OFFCURVE",
"173 385 OFFCURVE",
"165 457 CURVE SMOOTH",
"161 493 OFFCURVE",
"161 514 OFFCURVE",
"158 563 CURVE SMOOTH",
"152 655 OFFCURVE",
"190 726 OFFCURVE",
"270 726 CURVE SMOOTH",
"287 726 LINE SMOOTH",
"293 726 OFFCURVE",
"299 731 OFFCURVE",
"300 738 CURVE",
"303 758 LINE",
"276 758 LINE SMOOTH",
"171 758 OFFCURVE",
"109 680 OFFCURVE",
"116 562 CURVE SMOOTH",
"118 521 OFFCURVE",
"122 479 OFFCURVE",
"123 457 CURVE SMOOTH",
"128 380 OFFCURVE",
"103 328 OFFCURVE",
"34 328 CURVE",
"30 298 LINE",
"98 298 OFFCURVE"
);
}
);
width = 318;
}
);
note = braceleft;
unicode = 007B;
},
{
color = 4;
glyphname = bar;
lastChange = "2015-10-08 15:03:34 +0000";
layers = (
{
layerId = "18B4A443-2C69-4DCB-9619-77A7DD6AC8EC";
name = Light;
paths = (
{
closed = 1;
nodes = (
"84 758 LINE",
"84 -176 LINE",
"121 -176 LINE",
"121 758 LINE"
);
}
);
width = 205;
}
);
note = bar;
unicode = 007C;
},
{
color = 4;
glyphname = braceright;
lastChange = "2015-10-08 21:18:37 +0000";
layers = (
{
layerId = "18B4A443-2C69-4DCB-9619-77A7DD6AC8EC";
name = Light;
paths = (
{
closed = 1;
nodes = (
"209 379 OFFCURVE",
"232 457 CURVE SMOOTH",
"229 448 OFFCURVE",
"260 543 OFFCURVE",
"265 561 CURVE SMOOTH",
"297 675 OFFCURVE",
"262 758 OFFCURVE",
"154 758 CURVE SMOOTH",
"126 758 LINE",
"124 737 LINE",
"124 730 OFFCURVE",
"129 726 OFFCURVE",
"135 726 CURVE SMOOTH",
"151 726 LINE SMOOTH",
"231 726 OFFCURVE",
"250 656 OFFCURVE",
"224 563 CURVE SMOOTH",
"214 528 OFFCURVE",
"203 500 OFFCURVE",
"191 457 CURVE SMOOTH",
"172 388 OFFCURVE",
"173 329 OFFCURVE",
"243 313 CURVE",
"183 301 OFFCURVE",
"147 241 OFFCURVE",
"155 169 CURVE SMOOTH",
"159 133 OFFCURVE",
"159 112 OFFCURVE",
"162 63 CURVE SMOOTH",
"168 -29 OFFCURVE",
"130 -100 OFFCURVE",
"50 -100 CURVE SMOOTH",
"33 -100 LINE SMOOTH",
"27 -100 OFFCURVE",
"21 -105 OFFCURVE",
"20 -112 CURVE",
"17 -132 LINE",
"44 -132 LINE SMOOTH",
"149 -132 OFFCURVE",
"211 -54 OFFCURVE",
"204 64 CURVE SMOOTH",
"202 105 OFFCURVE",
"198 147 OFFCURVE",
"197 169 CURVE SMOOTH",
"192 246 OFFCURVE",
"217 298 OFFCURVE",
"286 298 CURVE",
"290 328 LINE",
"222 328 OFFCURVE"
);
}
);
width = 326;
}
);
note = braceright;
unicode = 007D;
},
{
color = 4;
glyphname = asciitilde;
lastChange = "2015-10-08 21:19:11 +0000";
layers = (
{
layerId = "18B4A443-2C69-4DCB-9619-77A7DD6AC8EC";
name = Light;
paths = (
{
closed = 1;
nodes = (
"321 284 OFFCURVE",
"264 346 OFFCURVE",
"190 346 CURVE SMOOTH",
"117 346 OFFCURVE",
"64 289 OFFCURVE",
"56 217 CURVE",
"95 217 LINE",
"102 269 OFFCURVE",
"137 307 OFFCURVE",
"188 307 CURVE SMOOTH",
"239 307 OFFCURVE",
"319 244 OFFCURVE",
"382 244 CURVE SMOOTH",
"455 244 OFFCURVE",
"509 303 OFFCURVE",
"516 374 CURVE",
"477 374 LINE",
"470 325 OFFCURVE",
"439 284 OFFCURVE",
"384 284 CURVE SMOOTH"
);
}
);
width = 571;
}
);
note = asciitilde;
unicode = 007E;
},
{
color = 4;
glyphname = exclamdown;
lastChange = "2015-10-08 21:20:29 +0000";
layers = (
{
layerId = "18B4A443-2C69-4DCB-9619-77A7DD6AC8EC";
name = Light;
paths = (
{
closed = 1;
nodes = (
"37 -176 LINE",
"84 -176 LINE",
"117 99 LINE",
"132 277 LINE",
"100 277 LINE",
"71 99 LINE"
);
},
{
closed = 1;
nodes = (
"156 413 OFFCURVE",
"180 435 OFFCURVE",
"182 460 CURVE SMOOTH",
"185 484 OFFCURVE",
"168 506 OFFCURVE",
"142 506 CURVE SMOOTH",
"116 506 OFFCURVE",
"92 484 OFFCURVE",
"90 460 CURVE SMOOTH",
"88 435 OFFCURVE",
"105 413 OFFCURVE",
"131 413 CURVE SMOOTH"
);
}
);
width = 224;
}
);
note = exclamdown;
unicode = 00A1;
},
{
color = 4;
glyphname = cent;
lastChange = "2015-10-08 21:21:34 +0000";
layers = (
{
layerId = "18B4A443-2C69-4DCB-9619-77A7DD6AC8EC";
name = Light;
paths = (
{
closed = 1;
nodes = (
"387 80 LINE SMOOTH",
"382 87 OFFCURVE",
"373 86 OFFCURVE",
"362 77 CURVE SMOOTH",
"317 40 OFFCURVE",
"274 32 OFFCURVE",
"217 32 CURVE",
"236 139 LINE",
"292 467 LINE",
"293 468 LINE",
"317 468 OFFCURVE",
"344 462 OFFCURVE",
"374 451 CURVE",
"371 373 LINE",
"370 357 OFFCURVE",
"376 349 OFFCURVE",
"390 349 CURVE SMOOTH",
"414 349 LINE",
"429 474 LINE",
"389 487 OFFCURVE",
"326 502 OFFCURVE",
"299 505 CURVE",
"320 624 LINE",
"302 624 LINE SMOOTH",
"292 624 OFFCURVE",
"287 618 OFFCURVE",
"285 608 CURVE",
"267 505 LINE",
"267 504 LINE",
"141 495 OFFCURVE",
"56 390 OFFCURVE",
"37 249 CURVE SMOOTH",
"23 131 OFFCURVE",
"62 19 OFFCURVE",
"179 -3 CURVE",
"168 -68 LINE",
"158 -126 LINE",
"176 -126 LINE SMOOTH",
"185 -126 OFFCURVE",
"191 -120 OFFCURVE",
"193 -111 CURVE",
"211 -6 LINE",
"281 -6 OFFCURVE",
"351 11 OFFCURVE",
"398 64 CURVE"
);
},
{
closed = 1;
nodes = (
"75 152 OFFCURVE",
"86 249 CURVE SMOOTH",
"99 360 OFFCURVE",
"159 453 OFFCURVE",
"261 466 CURVE",
"186 37 LINE",
"98 59 OFFCURVE"
);
}
);
width = 458;
}
);
note = cent;
unicode = 00A2;
},
{
color = 4;
glyphname = sterling;
lastChange = "2015-10-08 21:22:40 +0000";
layers = (
{
layerId = "18B4A443-2C69-4DCB-9619-77A7DD6AC8EC";
name = Light;
paths = (
{
closed = 1;
nodes = (
"51 316 LINE",
"151 316 LINE",
"131 153 LINE SMOOTH",
"124 97 OFFCURVE",
"83 49 OFFCURVE",
"28 32 CURVE",
"24 0 LINE",
"509 0 LINE SMOOTH",
"522 0 OFFCURVE",
"531 9 OFFCURVE",
"534 22 CURVE",
"536 42 LINE",
"143 42 LINE SMOOTH",
"124 42 OFFCURVE",
"106 40 OFFCURVE",
"98 38 CURVE",
"145 66 OFFCURVE",
"173 104 OFFCURVE",
"181 164 CURVE SMOOTH",
"200 316 LINE",
"424 316 LINE SMOOTH",
"434 316 OFFCURVE",
"441 322 OFFCURVE",
"441 330 CURVE",
"443 350 LINE",
"204 350 LINE",
"222 496 LINE SMOOTH",
"234 599 OFFCURVE",
"296 674 OFFCURVE",
"401 674 CURVE SMOOTH",
"466 674 OFFCURVE",
"499 651 OFFCURVE",
"528 592 CURVE",
"534 583 OFFCURVE",
"544 582 OFFCURVE",
"553 586 CURVE",
"573 597 LINE",
"548 676 OFFCURVE",
"490 715 OFFCURVE",
"406 715 CURVE SMOOTH",
"276 715 OFFCURVE",
"190 627 OFFCURVE",
"173 496 CURVE SMOOTH",
"155 349 LINE",
"73 349 LINE SMOOTH",
"66 349 OFFCURVE",
"56 346 OFFCURVE",
"53 332 CURVE"
);
}
);
width = 600;
}
);
note = sterling;
unicode = 00A3;
},
{
color = 4;
glyphname = currency;
lastChange = "2015-10-08 21:23:11 +0000";
layers = (
{
layerId = "18B4A443-2C69-4DCB-9619-77A7DD6AC8EC";
name = Light;
paths = (
{
closed = 1;
nodes = (
"91 298 OFFCURVE",
"100 258 OFFCURVE",
"121 226 CURVE",
"35 150 LINE",
"56 125 LINE",
"143 202 LINE",
"172 177 OFFCURVE",
"208 164 OFFCURVE",
"247 164 CURVE SMOOTH",
"286 164 OFFCURVE",
"329 179 OFFCURVE",
"360 202 CURVE",
"427 125 LINE",
"456 150 LINE",
"388 227 LINE",
"412 253 OFFCURVE",
"434 294 OFFCURVE",
"440 335 CURVE SMOOTH",
"446 374 OFFCURVE",
"436 411 OFFCURVE",
"414 444 CURVE",
"500 521 LINE",
"479 546 LINE",
"392 469 LINE",
"362 494 OFFCURVE",
"328 507 OFFCURVE",
"289 507 CURVE SMOOTH",
"248 507 OFFCURVE",
"208 493 OFFCURVE",
"175 468 CURVE",
"108 545 LINE",
"80 520 LINE",
"148 443 LINE",
"118 411 OFFCURVE",
"102 379 OFFCURVE",
"96 336 CURVE SMOOTH"
);
},
{
closed = 1;
nodes = (
"139 402 OFFCURVE",
"208 472 OFFCURVE",
"284 472 CURVE SMOOTH",
"357 472 OFFCURVE",
"412 415 OFFCURVE",
"404 336 CURVE SMOOTH",
"396 263 OFFCURVE",
"324 200 OFFCURVE",
"251 200 CURVE SMOOTH",
"180 200 OFFCURVE",
"123 259 OFFCURVE",
"132 335 CURVE SMOOTH"
);
}
);
width = 538;
}
);
note = currency;
unicode = 00A4;
},
{
color = 4;
glyphname = yen;
lastChange = "2015-10-08 21:24:04 +0000";
layers = (
{
layerId = "18B4A443-2C69-4DCB-9619-77A7DD6AC8EC";
name = Light;
paths = (
{
closed = 1;
nodes = (
"46 308 LINE",
"43 279 LINE",
"226 279 LINE",
"219 220 LINE",
"36 220 LINE",
"32 191 LINE",
"215 191 LINE",
"192 0 LINE",
"239 0 LINE",
"262 191 LINE",
"446 191 LINE",
"449 220 LINE",
"266 220 LINE",
"273 279 LINE",
"456 279 LINE",
"460 308 LINE",
"286 308 LINE",
"547 708 LINE",
"507 708 LINE SMOOTH",
"499 708 OFFCURVE",
"489 701 OFFCURVE",
"486 695 CURVE",
"273 362 LINE",
"266 349 OFFCURVE",
"260 335 OFFCURVE",
"256 326 CURVE",
"255 335 OFFCURVE",
"251 349 OFFCURVE",
"247 362 CURVE",
"115 695 LINE SMOOTH",
"112 703 OFFCURVE",
"106 708 OFFCURVE",
"97 708 CURVE SMOOTH",
"57 708 LINE",
"219 308 LINE"
);
}
);
width = 569;
}
);
note = yen;
unicode = 00A5;
},
{
color = 4;
glyphname = brokenbar;
lastChange = "2015-10-08 21:24:10 +0000";
layers = (
{
layerId = "18B4A443-2C69-4DCB-9619-77A7DD6AC8EC";
name = Light;
paths = (
{
closed = 1;
nodes = (
"140 758 LINE",
"92 370 LINE",
"130 370 LINE",
"178 758 LINE"
);
},
{
closed = 1;
nodes = (
"73 212 LINE",
"26 -176 LINE",
"63 -176 LINE",
"111 212 LINE"
);
}
);
width = 210;
}
);
note = brokenbar;
unicode = 00A6;
},
{
color = 4;
glyphname = section;
lastChange = "2015-10-08 21:26:52 +0000";
layers = (
{
layerId = "18B4A443-2C69-4DCB-9619-77A7DD6AC8EC";
name = Light;
paths = (
{
closed = 1;
nodes = (
"439 662 LINE",
"403 700 OFFCURVE",
"355 716 OFFCURVE",
"300 716 CURVE SMOOTH",
"214 716 OFFCURVE",
"128 662 OFFCURVE",
"119 580 CURVE SMOOTH",
"114 536 OFFCURVE",
"133 500 OFFCURVE",
"168 475 CURVE",
"110 456 OFFCURVE",
"64 418 OFFCURVE",
"57 357 CURVE SMOOTH",
"48 280 OFFCURVE",
"105 247 OFFCURVE",
"191 209 CURVE SMOOTH",
"269 174 OFFCURVE",
"334 149 OFFCURVE",
"326 80 CURVE SMOOTH",
"318 10 OFFCURVE",
"258 -31 OFFCURVE",
"184 -31 CURVE SMOOTH",
"135 -31 OFFCURVE",
"104 -17 OFFCURVE",
"69 12 CURVE SMOOTH",
"60 20 OFFCURVE",
"49 23 OFFCURVE",
"39 12 CURVE",
"25 -5 LINE",
"67 -47 OFFCURVE",
"116 -66 OFFCURVE",
"176 -66 CURVE SMOOTH",
"277 -66 OFFCURVE",
"355 -8 OFFCURVE",
"369 88 CURVE SMOOTH",
"375 132 OFFCURVE",
"358 161 OFFCURVE",
"322 190 CURVE",
"373 211 OFFCURVE",
"413 253 OFFCURVE",
"419 311 CURVE",
"430 387 OFFCURVE",
"369 426 OFFCURVE",
"293 463 CURVE SMOOTH",
"215 500 OFFCURVE",
"155 523 OFFCURVE",
"162 582 CURVE SMOOTH",
"172 644 OFFCURVE",
"233 679 OFFCURVE",
"297 679 CURVE SMOOTH",
"342 679 OFFCURVE",
"354 673 OFFCURVE",
"402 645 CURVE",
"409 639 OFFCURVE",
"418 635 OFFCURVE",
"427 646 CURVE SMOOTH"
);
},
{
closed = 1;
nodes = (
"105 413 OFFCURVE",
"144 438 OFFCURVE",
"194 459 CURVE",
"203 454 OFFCURVE",
"241 436 OFFCURVE",
"279 418 CURVE SMOOTH",
"339 389 OFFCURVE",
"384 363 OFFCURVE",
"376 301 CURVE SMOOTH",
"371 254 OFFCURVE",
"342 225 OFFCURVE",
"298 206 CURVE",
"282 216 OFFCURVE",
"240 236 OFFCURVE",
"207 251 CURVE SMOOTH",
"141 281 OFFCURVE",
"93 311 OFFCURVE",
"100 363 CURVE"
);
}
);
width = 471;
}
);
note = section;
unicode = 00A7;
},
{
color = 4;
glyphname = dieresis;
lastChange = "2015-10-08 21:26:59 +0000";
layers = (
{
anchors = (
{
name = _top;
position = "{194, 498}";
},
{
name = top;
position = "{194, 716}";
}
);
layerId = "18B4A443-2C69-4DCB-9619-77A7DD6AC8EC";
name = Light;
paths = (
{
closed = 1;
nodes = (
"315 635 OFFCURVE",
"336 653 OFFCURVE",
"338 676 CURVE SMOOTH",
"340 698 OFFCURVE",
"325 716 OFFCURVE",
"303 716 CURVE SMOOTH",
"280 716 OFFCURVE",
"259 698 OFFCURVE",
"257 676 CURVE SMOOTH",
"255 653 OFFCURVE",
"270 635 OFFCURVE",
"293 635 CURVE SMOOTH"
);
},
{
closed = 1;
nodes = (
"107 635 OFFCURVE",
"128 653 OFFCURVE",
"130 676 CURVE SMOOTH",
"132 698 OFFCURVE",
"117 716 OFFCURVE",
"95 716 CURVE SMOOTH",
"72 716 OFFCURVE",
"51 698 OFFCURVE",
"49 676 CURVE SMOOTH",
"47 653 OFFCURVE",
"62 635 OFFCURVE",
"85 635 CURVE SMOOTH"
);
}
);
width = 377;
}
);
note = dieresis;
unicode = 00A8;
},
{
color = 4;
glyphname = copyright;
lastChange = "2015-10-08 21:29:08 +0000";
layers = (
{
layerId = "18B4A443-2C69-4DCB-9619-77A7DD6AC8EC";
name = Light;
paths = (
{
closed = 1;
nodes = (
"481 177 OFFCURVE",
"440 166 OFFCURVE",
"387 166 CURVE SMOOTH",
"281 166 OFFCURVE",
"219 240 OFFCURVE",
"234 354 CURVE SMOOTH",
"250 470 OFFCURVE",
"330 544 OFFCURVE",
"442 544 CURVE SMOOTH",
"487 544 OFFCURVE",
"522 534 OFFCURVE",
"554 508 CURVE SMOOTH",
"560 503 OFFCURVE",
"569 499 OFFCURVE",
"577 508 CURVE",
"591 524 LINE",
"554 561 OFFCURVE",
"506 580 OFFCURVE",
"444 580 CURVE SMOOTH",
"314 580 OFFCURVE",
"206 489 OFFCURVE",
"190 354 CURVE SMOOTH",
"174 222 OFFCURVE",
"250 129 OFFCURVE",
"381 129 CURVE SMOOTH",
"448 129 OFFCURVE",
"502 145 OFFCURVE",
"556 194 CURVE",
"542 209 LINE",
"539 212 OFFCURVE",
"533 215 OFFCURVE",
"523 207 CURVE SMOOTH"
);
},
{
closed = 1;
nodes = (
"19 156 OFFCURVE",
"161 -7 OFFCURVE",
"360 -7 CURVE SMOOTH",
"556 -7 OFFCURVE",
"740 151 OFFCURVE",
"765 354 CURVE SMOOTH",
"789 553 OFFCURVE",
"648 715 OFFCURVE",
"449 715 CURVE SMOOTH",
"251 715 OFFCURVE",
"68 552 OFFCURVE",
"44 354 CURVE SMOOTH"
);
},
{
closed = 1;
nodes = (
"97 539 OFFCURVE",
"261 688 OFFCURVE",
"445 688 CURVE SMOOTH",
"630 688 OFFCURVE",
"761 536 OFFCURVE",
"737 354 CURVE SMOOTH",
"713 168 OFFCURVE",
"548 20 OFFCURVE",
"363 20 CURVE SMOOTH",
"178 20 OFFCURVE",
"50 173 OFFCURVE",
"73 354 CURVE SMOOTH"
);
}
);
width = 807;
}
);
note = copyright;
unicode = 00A9;
},
{
color = 4;
glyphname = ordfeminine;
lastChange = "2015-10-08 21:35:33 +0000";
layers = (
{
layerId = "18B4A443-2C69-4DCB-9619-77A7DD6AC8EC";
name = Light;
paths = (
{
closed = 1;
nodes = (
"272 420 LINE",
"295 608 LINE SMOOTH",
"303 670 OFFCURVE",
"275 715 OFFCURVE",
"205 715 CURVE SMOOTH",
"159 715 OFFCURVE",
"125 700 OFFCURVE",
"89 668 CURVE",
"94 657 LINE",
"99 647 OFFCURVE",
"108 649 OFFCURVE",
"117 656 CURVE SMOOTH",
"136 671 OFFCURVE",
"168 685 OFFCURVE",
"198 685 CURVE SMOOTH",
"247 685 OFFCURVE",
"265 657 OFFCURVE",
"259 607 CURVE SMOOTH",
"256 582 LINE",
"179 581 OFFCURVE",
"57 563 OFFCURVE",
"51 490 CURVE",
"44 447 OFFCURVE",
"72 415 OFFCURVE",
"125 415 CURVE SMOOTH",
"170 415 OFFCURVE",
"208 432 OFFCURVE",
"243 463 CURVE",
"244 429 LINE",
"244 423 OFFCURVE",
"246 419 OFFCURVE",
"256 419 CURVE"
);
},
{
closed = 1;
nodes = (
"107 441 OFFCURVE",
"81 457 OFFCURVE",
"85 492 CURVE SMOOTH",
"90 543 OFFCURVE",
"177 554 OFFCURVE",
"253 557 CURVE",
"244 488 LINE",
"216 463 OFFCURVE",
"178 441 OFFCURVE",
"138 441 CURVE SMOOTH"
);
}
);
width = 343;
}
);
note = ordfeminine;
unicode = 00AA;
},
{
color = 4;
glyphname = guillemotleft;
lastChange = "2015-10-08 21:34:07 +0000";
layers = (
{
layerId = "18B4A443-2C69-4DCB-9619-77A7DD6AC8EC";
name = Light;
paths = (
{
closed = 1;
nodes = (
"43 256 LINE",
"140 67 LINE",
"156 74 LINE",
"166 79 OFFCURVE",
"168 89 OFFCURVE",
"164 98 CURVE SMOOTH",
"90 246 LINE",
"87 253 OFFCURVE",
"84 257 OFFCURVE",
"81 260 CURVE",
"84 263 OFFCURVE",
"89 267 OFFCURVE",
"94 274 CURVE SMOOTH",
"203 420 LINE SMOOTH",
"208 426 OFFCURVE",
"212 438 OFFCURVE",
"202 444 CURVE SMOOTH",
"188 452 LINE",
"44 263 LINE"
);
},
{
closed = 1;
nodes = (
"170 256 LINE",
"268 67 LINE",
"284 74 LINE",
"293 79 OFFCURVE",
"295 91 OFFCURVE",
"291 99 CURVE SMOOTH",
"218 246 LINE",
"215 253 OFFCURVE",
"211 257 OFFCURVE",
"208 260 CURVE",
"211 263 OFFCURVE",
"216 267 OFFCURVE",
"221 274 CURVE SMOOTH",
"331 421 LINE SMOOTH",
"338 431 OFFCURVE",
"338 439 OFFCURVE",
"329 445 CURVE",
"315 452 LINE",
"171 263 LINE"
);
}
);
width = 376;
}
);
note = guillemotleft;
unicode = 00AB;
},
{
color = 4;
glyphname = logicalnot;
lastChange = "2015-10-08 21:29:24 +0000";
layers = (
{
layerId = "18B4A443-2C69-4DCB-9619-77A7DD6AC8EC";
name = Light;
paths = (
{
closed = 1;
nodes = (
"62 354 LINE",
"58 317 LINE",
"431 317 LINE",
"413 170 LINE",
"454 170 LINE",
"476 354 LINE"
);
}
);
width = 540;
}
);
note = logicalnot;
unicode = 00AC;
},
{
color = 4;
glyphname = uni00AD;
lastChange = "2015-10-08 21:29:31 +0000";
layers = (
{
layerId = "18B4A443-2C69-4DCB-9619-77A7DD6AC8EC";
name = Light;
paths = (
{
closed = 1;
nodes = (
"69 317 LINE",
"64 276 LINE",
"296 276 LINE",
"301 317 LINE"
);
}
);
width = 363;
}
);
note = uni00AD;
unicode = 00AD;
},
{
color = 4;
glyphname = registered;
lastChange = "2015-10-09 07:38:03 +0000";
layers = (
{
layerId = "18B4A443-2C69-4DCB-9619-77A7DD6AC8EC";
name = Light;
paths = (
{
closed = 1;
nodes = (
"19 156 OFFCURVE",
"161 -7 OFFCURVE",
"360 -7 CURVE SMOOTH",
"555 -7 OFFCURVE",
"740 151 OFFCURVE",
"765 354 CURVE SMOOTH",
"789 553 OFFCURVE",
"648 715 OFFCURVE",
"449 715 CURVE SMOOTH",
"251 715 OFFCURVE",
"67 551 OFFCURVE",
"44 354 CURVE SMOOTH"
);
},
{
closed = 1;
nodes = (
"97 539 OFFCURVE",
"260 688 OFFCURVE",
"445 688 CURVE SMOOTH",
"630 688 OFFCURVE",
"761 536 OFFCURVE",
"737 354 CURVE SMOOTH",
"713 168 OFFCURVE",
"548 20 OFFCURVE",
"363 20 CURVE SMOOTH",
"178 20 OFFCURVE",
"50 173 OFFCURVE",
"73 354 CURVE SMOOTH"
);
},
{
closed = 1;
nodes = (
"310 328 LINE",
"365 328 LINE SMOOTH",
"379 328 OFFCURVE",
"388 326 OFFCURVE",
"394 316 CURVE",
"507 141 LINE SMOOTH",
"510 136 OFFCURVE",
"513 133 OFFCURVE",
"522 133 CURVE SMOOTH",
"562 133 LINE",
"442 317 LINE",
"438 325 OFFCURVE",
"431 334 OFFCURVE",
"424 337 CURVE",
"495 346 OFFCURVE",
"553 386 OFFCURVE",
"562 459 CURVE SMOOTH",
"573 545 OFFCURVE",
"514 576 OFFCURVE",
"421 576 CURVE SMOOTH",
"298 576 LINE",
"244 133 LINE",
"286 133 LINE"
);
},
{
closed = 1;
nodes = (
"314 360 LINE",
"336 542 LINE",
"417 542 LINE SMOOTH",
"486 542 OFFCURVE",
"529 524 OFFCURVE",
"520 454 CURVE SMOOTH",
"511 388 OFFCURVE",
"459 360 OFFCURVE",
"388 360 CURVE SMOOTH"
);
}
);
width = 807;
}
);
note = registered;
unicode = 00AE;
},
{
color = 4;
glyphname = degree;
lastChange = "2015-10-08 21:30:13 +0000";
layers = (
{
layerId = "18B4A443-2C69-4DCB-9619-77A7DD6AC8EC";
name = Light;
paths = (
{
closed = 1;
nodes = (
"43 490 OFFCURVE",
"101 418 OFFCURVE",
"186 418 CURVE SMOOTH",
"266 418 OFFCURVE",
"343 481 OFFCURVE",
"355 567 CURVE SMOOTH",
"367 649 OFFCURVE",
"306 716 OFFCURVE",
"223 716 CURVE SMOOTH",
"143 716 OFFCURVE",
"66 654 OFFCURVE",
"54 567 CURVE SMOOTH"
);
},
{
closed = 1;
nodes = (
"98 628 OFFCURVE",
"149 682 OFFCURVE",
"219 682 CURVE SMOOTH",
"285 682 OFFCURVE",
"327 632 OFFCURVE",
"319 567 CURVE SMOOTH",
"310 506 OFFCURVE",
"258 452 OFFCURVE",
"191 452 CURVE SMOOTH",
"130 452 OFFCURVE",
"82 500 OFFCURVE",
"90 567 CURVE SMOOTH"
);
}
);
width = 398;
}
);
note = degree;
unicode = 00B0;
},
{
color = 4;
glyphname = plusminus;
lastChange = "2015-10-08 21:29:43 +0000";
layers = (
{
layerId = "18B4A443-2C69-4DCB-9619-77A7DD6AC8EC";
name = Light;
paths = (
{
closed = 1;
nodes = (
"350 576 LINE",
"311 576 LINE",
"286 374 LINE",
"71 374 LINE",
"66 337 LINE",
"281 337 LINE",
"257 136 LINE",
"296 136 LINE",
"320 337 LINE",
"536 337 LINE",
"540 374 LINE",
"325 374 LINE"
);
},
{
closed = 1;
nodes = (
"34 76 LINE",
"30 40 LINE",
"500 40 LINE",
"504 76 LINE"
);
}
);
width = 574;
}
);
note = plusminus;
unicode = 00B1;
},
{
color = 4;
glyphname = twosuperior;
lastChange = "2015-10-08 21:49:46 +0000";
layers = (
{
layerId = "18B4A443-2C69-4DCB-9619-77A7DD6AC8EC";
name = Light;
paths = (
{
closed = 1;
nodes = (
"275 528 LINE SMOOTH",
"263 528 OFFCURVE",
"258 521 OFFCURVE",
"254 507 CURVE",
"248 483 LINE",
"131 483 LINE SMOOTH",
"119 483 OFFCURVE",
"101 481 OFFCURVE",
"91 478 CURVE",
"208 583 LINE",
"272 641 OFFCURVE",
"293 664 OFFCURVE",
"300 714 CURVE SMOOTH",
"308 775 OFFCURVE",
"268 812 OFFCURVE",
"206 812 CURVE SMOOTH",
"147 812 OFFCURVE",
"97 778 OFFCURVE",
"79 713 CURVE",
"98 709 LINE",
"105 709 OFFCURVE",
"111 709 OFFCURVE",
"116 719 CURVE SMOOTH",
"137 760 OFFCURVE",
"162 781 OFFCURVE",
"201 781 CURVE SMOOTH",
"241 781 OFFCURVE",
"268 760 OFFCURVE",
"264 712 CURVE SMOOTH",
"260 672 OFFCURVE",
"226 636 OFFCURVE",
"182 596 CURVE SMOOTH",
"50 477 LINE",
"47 475 OFFCURVE",
"41 469 OFFCURVE",
"41 460 CURVE",
"40 450 LINE",
"276 450 LINE",
"286 528 LINE"
);
}
);
width = 338;
}
);
note = twosuperior;
unicode = 00B2;
},
{
color = 4;
glyphname = threesuperior;
lastChange = "2015-10-08 21:51:02 +0000";
layers = (
{
layerId = "18B4A443-2C69-4DCB-9619-77A7DD6AC8EC";
name = Light;
paths = (
{
closed = 1;
nodes = (
"139 812 OFFCURVE",
"91 778 OFFCURVE",
"72 712 CURVE",
"84 710 LINE SMOOTH",
"97 707 OFFCURVE",
"104 709 OFFCURVE",
"108 719 CURVE SMOOTH",
"123 756 OFFCURVE",
"149 781 OFFCURVE",
"193 781 CURVE SMOOTH",
"237 781 OFFCURVE",
"259 758 OFFCURVE",
"255 714 CURVE",
"248 665 OFFCURVE",
"210 646 OFFCURVE",
"157 644 CURVE",
"154 620 LINE",
"211 620 OFFCURVE",
"247 603 OFFCURVE",
"242 549 CURVE SMOOTH",
"237 510 OFFCURVE",
"197 476 OFFCURVE",
"150 476 CURVE SMOOTH",
"107 476 OFFCURVE",
"85 496 OFFCURVE",
"76 534 CURVE SMOOTH",
"74 542 OFFCURVE",
"67 549 OFFCURVE",
"53 543 CURVE",
"40 538 LINE",
"52 472 OFFCURVE",
"82 446 OFFCURVE",
"148 446 CURVE SMOOTH",
"213 446 OFFCURVE",
"271 489 OFFCURVE",
"279 551 CURVE SMOOTH",
"285 593 OFFCURVE",
"263 622 OFFCURVE",
"214 634 CURVE",
"252 645 OFFCURVE",
"284 673 OFFCURVE",
"290 720 CURVE SMOOTH",
"298 777 OFFCURVE",
"254 812 OFFCURVE",
"198 812 CURVE SMOOTH"
);
}
);
width = 328;
}
);
note = threesuperior;
unicode = 00B3;
},
{
color = 4;
glyphname = acute;
lastChange = "2015-10-08 21:30:27 +0000";
layers = (
{
layerId = "18B4A443-2C69-4DCB-9619-77A7DD6AC8EC";
name = Light;
paths = (
{
closed = 1;
nodes = (
"228 716 LINE",
"181 716 LINE SMOOTH",
"167 716 OFFCURVE",
"156 711 OFFCURVE",
"149 700 CURVE",
"56 580 LINE",
"84 580 LINE SMOOTH",
"93 580 OFFCURVE",
"98 583 OFFCURVE",
"104 589 CURVE SMOOTH"
);
}
);
width = 273;
}
);
note = acute;
unicode = 00B4;
},
{
color = 4;
glyphname = mu;
lastChange = "2015-10-08 21:48:24 +0000";
layers = (
{
layerId = "18B4A443-2C69-4DCB-9619-77A7DD6AC8EC";
name = Light;
paths = (
{
closed = 1;
nodes = (
"165 498 LINE",
"117 498 LINE",
"37 -155 LINE SMOOTH",
"36 -164 OFFCURVE",
"40 -176 OFFCURVE",
"56 -176 CURVE SMOOTH",
"80 -176 LINE",
"100 -12 LINE",
"105 42 OFFCURVE",
"106 40 OFFCURVE",
"106 72 CURVE",
"124 23 OFFCURVE",
"166 -3 OFFCURVE",
"230 -3 CURVE SMOOTH",
"302 -3 OFFCURVE",
"359 30 OFFCURVE",
"412 87 CURVE",
"408 13 LINE",
"407 4 OFFCURVE",
"412 0 OFFCURVE",
"421 0 CURVE SMOOTH",
"447 0 LINE",
"508 498 LINE",
"460 498 LINE",
"414 124 LINE",
"367 71 OFFCURVE",
"307 30 OFFCURVE",
"237 30 CURVE SMOOTH",
"148 30 OFFCURVE",
"114 88 OFFCURVE",
"126 180 CURVE SMOOTH"
);
}
);
width = 557;
}
);
note = mu;
unicode = 00B5;
},
{
color = 4;
glyphname = paragraph;
lastChange = "2015-10-08 21:48:43 +0000";
layers = (
{
layerId = "18B4A443-2C69-4DCB-9619-77A7DD6AC8EC";
name = Light;
paths = (
{
closed = 1;
nodes = (
"646 708 LINE",
"284 708 LINE SMOOTH",
"160 708 OFFCURVE",
"54 645 OFFCURVE",
"41 532 CURVE SMOOTH",
"29 419 OFFCURVE",
"114 350 OFFCURVE",
"240 350 CURVE",
"185 -95 LINE",
"228 -95 LINE",
"322 666 LINE",
"486 666 LINE",
"392 -95 LINE",
"435 -95 LINE",
"528 666 LINE",
"641 666 LINE"
);
}
);
width = 668;
}
);
note = paragraph;
unicode = 00B6;
},
{
color = 4;
glyphname = periodcentered;
lastChange = "2015-10-08 21:32:19 +0000";
layers = (
{
layerId = "18B4A443-2C69-4DCB-9619-77A7DD6AC8EC";
name = Light;
paths = (
{
closed = 1;
nodes = (
"136 245 OFFCURVE",
"163 269 OFFCURVE",
"165 297 CURVE SMOOTH",
"168 324 OFFCURVE",
"149 348 OFFCURVE",
"121 348 CURVE SMOOTH",
"92 348 OFFCURVE",
"65 324 OFFCURVE",
"63 297 CURVE SMOOTH",
"61 269 OFFCURVE",
"80 245 OFFCURVE",
"108 245 CURVE SMOOTH"
);
}
);
width = 226;
}
);
note = periodcentered;
unicode = 00B7;
},
{
color = 4;
glyphname = cedilla;
lastChange = "2015-10-08 22:06:30 +0000";
layers = (
{
layerId = "18B4A443-2C69-4DCB-9619-77A7DD6AC8EC";
name = Light;
paths = (
{
closed = 1;
nodes = (
"100 -64 LINE",
"140 -71 OFFCURVE",
"189 -74 OFFCURVE",
"184 -113 CURVE SMOOTH",
"180 -142 OFFCURVE",
"155 -154 OFFCURVE",
"124 -154 CURVE SMOOTH",
"108 -154 OFFCURVE",
"87 -148 OFFCURVE",
"74 -139 CURVE SMOOTH",
"71 -137 OFFCURVE",
"64 -132 OFFCURVE",
"59 -142 CURVE SMOOTH",
"52 -156 LINE",
"73 -171 OFFCURVE",
"95 -177 OFFCURVE",
"122 -177 CURVE SMOOTH",
"173 -177 OFFCURVE",
"218 -155 OFFCURVE",
"222 -113 CURVE SMOOTH",
"226 -72 OFFCURVE",
"196 -55 OFFCURVE",
"139 -45 CURVE",
"156 -8 LINE",
"167 15 LINE",
"135 15 LINE",
"125 -7 LINE"
);
}
);
width = 285;
}
);
note = cedilla;
unicode = 00B8;
},
{
color = 4;
glyphname = onesuperior;
lastChange = "2015-10-08 21:51:15 +0000";
layers = (
{
layerId = "18B4A443-2C69-4DCB-9619-77A7DD6AC8EC";
name = Light;
paths = (
{
closed = 1;
nodes = (
"48 474 LINE",
"45 450 LINE",
"234 450 LINE",
"237 474 LINE",
"164 474 LINE",
"205 809 LINE",
"176 809 LINE",
"59 717 LINE",
"68 702 LINE",
"73 696 OFFCURVE",
"79 696 OFFCURVE",
"85 700 CURVE",
"164 763 LINE",
"160 744 LINE",
"127 474 LINE"
);
}
);
width = 270;
}
);
note = onesuperior;
unicode = 00B9;
},
{
color = 4;
glyphname = ordmasculine;
lastChange = "2015-10-08 21:51:46 +0000";
layers = (
{
layerId = "18B4A443-2C69-4DCB-9619-77A7DD6AC8EC";
name = Light;
paths = (
{
closed = 1;
nodes = (
"127 714 OFFCURVE",
"70 657 OFFCURVE",
"57 564 CURVE SMOOTH",
"46 476 OFFCURVE",
"88 414 OFFCURVE",
"182 414 CURVE SMOOTH",
"269 414 OFFCURVE",
"331 468 OFFCURVE",
"343 564 CURVE SMOOTH",
"354 651 OFFCURVE",
"312 714 OFFCURVE",
"219 714 CURVE SMOOTH"
);
},
{
closed = 1;
nodes = (
"114 442 OFFCURVE",
"85 489 OFFCURVE",
"95 564 CURVE SMOOTH",
"104 636 OFFCURVE",
"141 686 OFFCURVE",
"216 686 CURVE SMOOTH",
"287 686 OFFCURVE",
"315 637 OFFCURVE",
"305 564 CURVE SMOOTH",
"296 493 OFFCURVE",
"259 442 OFFCURVE",
"186 442 CURVE SMOOTH"
);
}
);
width = 388;
}
);
note = ordmasculine;
unicode = 00BA;
},
{
color = 4;
glyphname = guillemotright;
lastChange = "2015-10-08 21:34:40 +0000";
layers = (
{
layerId = "18B4A443-2C69-4DCB-9619-77A7DD6AC8EC";
name = Light;
paths = (
{
closed = 1;
nodes = (
"333 263 LINE",
"236 452 LINE",
"220 445 LINE",
"210 440 OFFCURVE",
"208 430 OFFCURVE",
"212 421 CURVE SMOOTH",
"286 273 LINE",
"289 266 OFFCURVE",
"292 262 OFFCURVE",
"295 259 CURVE",
"292 256 OFFCURVE",
"287 252 OFFCURVE",
"282 245 CURVE SMOOTH",
"173 99 LINE SMOOTH",
"168 93 OFFCURVE",
"164 81 OFFCURVE",
"174 75 CURVE SMOOTH",
"188 67 LINE",
"332 256 LINE"
);
},
{
closed = 1;
nodes = (
"206 263 LINE",
"108 452 LINE",
"92 445 LINE",
"83 440 OFFCURVE",
"81 428 OFFCURVE",
"85 420 CURVE SMOOTH",
"158 273 LINE",
"161 266 OFFCURVE",
"165 262 OFFCURVE",
"168 259 CURVE",
"165 256 OFFCURVE",
"160 252 OFFCURVE",
"155 245 CURVE SMOOTH",
"45 98 LINE SMOOTH",
"38 88 OFFCURVE",
"38 80 OFFCURVE",
"47 74 CURVE",
"61 67 LINE",
"205 256 LINE"
);
}
);
width = 376;
}
);
note = guillemotright;
unicode = 00BB;
},
{
color = 4;
glyphname = onequarter;
lastChange = "2015-10-08 22:04:29 +0000";
layers = (
{
components = (
{
name = onesuperior;
transform = "{1, 0, 0, 1, -12, -99}";
},
{
name = foursuperior;
}
);
layerId = "18B4A443-2C69-4DCB-9619-77A7DD6AC8EC";
name = Light;
paths = (
{
closed = 1;
nodes = (
"595 708 LINE",
"574 708 LINE SMOOTH",
"562 708 OFFCURVE",
"551 701 OFFCURVE",
"544 690 CURVE SMOOTH",
"59 0 LINE",
"79 0 LINE SMOOTH",
"93 0 OFFCURVE",
"101 5 OFFCURVE",
"109 16 CURVE SMOOTH"
);
}
);
width = 642;
}
);
note = onequarter;
unicode = 00BC;
},
{
color = 4;
glyphname = onehalf;
lastChange = "2015-10-08 22:05:03 +0000";
layers = (
{
components = (
{
name = onesuperior;
transform = "{1, 0, 0, 1, -10, -97}";
},
{
name = twosuperior;
transform = "{1, 0, 0, 1, 307, -449}";
}
);
layerId = "18B4A443-2C69-4DCB-9619-77A7DD6AC8EC";
name = Light;
paths = (
{
closed = 1;
nodes = (
"574 708 LINE",
"553 708 LINE SMOOTH",
"546 708 OFFCURVE",
"542 706 OFFCURVE",
"537 703 CURVE SMOOTH",
"532 700 OFFCURVE",
"528 696 OFFCURVE",
"524 690 CURVE SMOOTH",
"39 0 LINE",
"59 0 LINE SMOOTH",
"65 0 OFFCURVE",
"70 1 OFFCURVE",
"75 3 CURVE SMOOTH",
"80 5 OFFCURVE",
"84 10 OFFCURVE",
"88 16 CURVE SMOOTH"
);
}
);
width = 649;
}
);
note = onehalf;
unicode = 00BD;
},
{
color = 4;
glyphname = threequarters;
lastChange = "2015-10-08 22:05:54 +0000";
layers = (
{
components = (
{
name = threesuperior;
transform = "{1, 0, 0, 1, -8, -99}";
},
{
name = foursuperior;
transform = "{1, 0, 0, 1, 33, 0}";
}
);
layerId = "18B4A443-2C69-4DCB-9619-77A7DD6AC8EC";
name = Light;
paths = (
{
closed = 1;
nodes = (
"632 707 LINE",
"611 707 LINE SMOOTH",
"597 707 OFFCURVE",
"589 701 OFFCURVE",
"581 690 CURVE SMOOTH",
"97 0 LINE",
"117 0 LINE SMOOTH",
"129 0 OFFCURVE",
"139 5 OFFCURVE",
"146 15 CURVE SMOOTH"
);
}
);
width = 676;
}
);
note = threequarters;
unicode = 00BE;
},
{
color = 4;
glyphname = questiondown;
lastChange = "2015-10-08 22:02:24 +0000";
layers = (
{
layerId = "18B4A443-2C69-4DCB-9619-77A7DD6AC8EC";
name = Light;
paths = (
{
closed = 1;
nodes = (
"349 -96 LINE SMOOTH",
"342 -85 OFFCURVE",
"333 -87 OFFCURVE",
"324 -95 CURVE SMOOTH",
"288 -127 OFFCURVE",
"242 -142 OFFCURVE",
"195 -142 CURVE SMOOTH",
"126 -142 OFFCURVE",
"72 -102 OFFCURVE",
"80 -28 CURVE SMOOTH",
"88 32 OFFCURVE",
"123 67 OFFCURVE",
"176 99 CURVE SMOOTH",
"222 127 OFFCURVE",
"261 150 OFFCURVE",
"267 190 CURVE",
"275 277 LINE",
"243 277 LINE",
"227 196 LINE SMOOTH",
"223 170 OFFCURVE",
"203 157 OFFCURVE",
"175 140 CURVE SMOOTH",
"95 91 OFFCURVE",
"43 50 OFFCURVE",
"34 -32 CURVE SMOOTH",
"23 -124 OFFCURVE",
"94 -182 OFFCURVE",
"187 -182 CURVE SMOOTH",
"249 -182 OFFCURVE",
"311 -155 OFFCURVE",
"359 -112 CURVE"
);
},
{
closed = 1;
nodes = (
"302 412 OFFCURVE",
"326 434 OFFCURVE",
"328 459 CURVE SMOOTH",
"331 483 OFFCURVE",
"313 505 OFFCURVE",
"288 505 CURVE SMOOTH",
"262 505 OFFCURVE",
"237 483 OFFCURVE",
"236 459 CURVE SMOOTH",
"234 434 OFFCURVE",
"251 412 OFFCURVE",
"276 412 CURVE SMOOTH"
);
}
);
width = 398;
}
);
note = questiondown;
unicode = 00BF;
},
{
color = 6;
glyphname = AE;
lastChange = "2015-10-08 14:46:28 +0000";
layers = (
{
components = (
{
name = serifBottom;
transform = "{1, 0, 0, 1, -55, 0}";
},
{
name = serifBottom;
transform = "{1, 0, 0, 1, 431, 0}";
}
);
layerId = "18B4A443-2C69-4DCB-9619-77A7DD6AC8EC";
name = Light;
paths = (
{
closed = 1;
nodes = (
"542 257 LINE",
"270 257 LINE",
"515 621 LINE SMOOTH",
"522 632 OFFCURVE",
"536 657 OFFCURVE",
"540 668 CURVE"
);
},
{
closed = 1;
nodes = (
"915 0 LINE",
"933 147 LINE",
"908 147 LINE SMOOTH",
"894 147 OFFCURVE",
"887 138 OFFCURVE",
"884 122 CURVE",
"870 43 LINE",
"591 43 LINE",
"590 338 LINE",
"865 338 LINE",
"870 379 LINE",
"590 379 LINE",
"589 665 LINE",
"947 665 LINE",
"941 585 LINE",
"940 569 OFFCURVE",
"945 561 OFFCURVE",
"959 561 CURVE SMOOTH",
"984 561 LINE",
"1002 707 LINE",
"440 707 LINE",
"437 688 LINE",
"436 677 OFFCURVE",
"442 671 OFFCURVE",
"455 670 CURVE",
"495 669 LINE",
"75 46 LINE",
"42 0 LINE",
"100 0 LINE",
"129 46 LINE",
"245 219 LINE",
"543 219 LINE",
"544 0 LINE"
);
}
);
width = 1012;
}
);
note = AE;
unicode = 00C6;
},
{
color = 4;
glyphname = Eth;
lastChange = "2015-10-19 10:03:08 +0000";
layers = (
{
components = (
{
name = D;
}
);
layerId = "18B4A443-2C69-4DCB-9619-77A7DD6AC8EC";
name = Light;
paths = (
{
closed = 1;
nodes = (
"35 342 LINE",
"397 342 LINE",
"401 374 LINE",
"39 374 LINE"
);
}
);
width = 763;
}
);
note = Eth;
unicode = 00D0;
},
{
color = 4;
glyphname = multiply;
lastChange = "2015-10-08 21:31:38 +0000";
layers = (
{
layerId = "18B4A443-2C69-4DCB-9619-77A7DD6AC8EC";
name = Light;
paths = (
{
closed = 1;
nodes = (
"476 518 LINE",
"453 545 LINE",
"248 362 LINE",
"86 546 LINE",
"57 519 LINE",
"218 335 LINE",
"8 148 LINE",
"31 122 LINE",
"241 309 LINE",
"405 123 LINE",
"434 149 LINE",
"270 335 LINE"
);
}
);
width = 486;
}
);
note = multiply;
unicode = 00D7;
},
{
color = 4;
glyphname = Oslash;
lastChange = "2015-10-09 07:35:40 +0000";
layers = (
{
layerId = "18B4A443-2C69-4DCB-9619-77A7DD6AC8EC";
name = Light;
paths = (
{
closed = 1;
nodes = (
"734 460 OFFCURVE",
"716 557 OFFCURVE",
"649 629 CURVE",
"745 740 LINE",
"717 740 LINE SMOOTH",
"705 740 OFFCURVE",
"700 735 OFFCURVE",
"690 725 CURVE",
"626 650 LINE",
"572 695 OFFCURVE",
"502 716 OFFCURVE",
"428 716 CURVE SMOOTH",
"223 716 OFFCURVE",
"73 563 OFFCURVE",
"46 354 CURVE SMOOTH",
"34 248 OFFCURVE",
"52 145 OFFCURVE",
"125 72 CURVE",
"18 -52 LINE",
"40 -52 LINE SMOOTH",
"54 -52 OFFCURVE",
"63 -47 OFFCURVE",
"72 -36 CURVE SMOOTH",
"149 52 LINE",
"202 12 OFFCURVE",
"270 -8 OFFCURVE",
"339 -8 CURVE SMOOTH",
"544 -8 OFFCURVE",
"695 141 OFFCURVE",
"721 354 CURVE SMOOTH"
);
},
{
closed = 1;
nodes = (
"122 539 OFFCURVE",
"243 672 OFFCURVE",
"422 672 CURVE SMOOTH",
"484 672 OFFCURVE",
"550 652 OFFCURVE",
"593 613 CURVE",
"159 110 LINE",
"104 170 OFFCURVE",
"86 259 OFFCURVE",
"99 354 CURVE SMOOTH"
);
},
{
closed = 1;
nodes = (
"647 174 OFFCURVE",
"528 37 OFFCURVE",
"344 37 CURVE SMOOTH",
"285 37 OFFCURVE",
"229 50 OFFCURVE",
"181 89 CURVE",
"615 590 LINE",
"666 530 OFFCURVE",
"678 442 OFFCURVE",
"668 354 CURVE SMOOTH"
);
}
);
width = 763;
}
);
note = Oslash;
unicode = 00D8;
},
{
color = 4;
glyphname = Thorn;
lastChange = "2015-10-09 11:11:31 +0000";
layers = (
{
layerId = "18B4A443-2C69-4DCB-9619-77A7DD6AC8EC";
name = Light;
paths = (
{
closed = 1;
nodes = (
"99 143 LINE",
"230 143 LINE SMOOTH",
"373 143 OFFCURVE",
"490 222 OFFCURVE",
"507 356 CURVE SMOOTH",
"524 500 OFFCURVE",
"435 566 OFFCURVE",
"282 566 CURVE SMOOTH",
"150 566 LINE",
"168 708 LINE",
"117 708 LINE",
"30 0 LINE",
"81 0 LINE"
);
},
{
closed = 1;
nodes = (
"104 184 LINE",
"145 524 LINE",
"277 524 LINE SMOOTH",
"399 524 OFFCURVE",
"471 473 OFFCURVE",
"456 356 CURVE SMOOTH",
"444 251 OFFCURVE",
"353 184 OFFCURVE",
"235 184 CURVE SMOOTH"
);
}
);
width = 538;
}
);
note = Thorn;
unicode = 00DE;
},
{
color = 4;
glyphname = germandbls;
lastChange = "2015-10-09 11:08:48 +0000";
layers = (
{
layerId = "18B4A443-2C69-4DCB-9619-77A7DD6AC8EC";
name = Light;
paths = (
{
closed = 1;
nodes = (
"204 716 OFFCURVE",
"106 628 OFFCURVE",
"91 500 CURVE SMOOTH",
"30 0 LINE",
"77 0 LINE",
"138 500 LINE SMOOTH",
"151 606 OFFCURVE",
"219 680 OFFCURVE",
"333 680 CURVE SMOOTH",
"404 680 OFFCURVE",
"459 641 OFFCURVE",
"453 576 CURVE SMOOTH",
"447 524 OFFCURVE",
"410 493 OFFCURVE",
"357 458 CURVE SMOOTH",
"308 424 OFFCURVE",
"268 399 OFFCURVE",
"262 352 CURVE SMOOTH",
"255 302 OFFCURVE",
"288 272 OFFCURVE",
"349 249 CURVE SMOOTH",
"407 227 OFFCURVE",
"442 195 OFFCURVE",
"434 140 CURVE SMOOTH",
"425 71 OFFCURVE",
"368 27 OFFCURVE",
"297 27 CURVE SMOOTH",
"248 27 OFFCURVE",
"223 40 OFFCURVE",
"187 70 CURVE SMOOTH",
"178 78 OFFCURVE",
"167 81 OFFCURVE",
"157 70 CURVE",
"143 53 LINE",
"185 11 OFFCURVE",
"230 -8 OFFCURVE",
"289 -8 CURVE SMOOTH",
"389 -8 OFFCURVE",
"467 51 OFFCURVE",
"479 147 CURVE SMOOTH",
"488 234 OFFCURVE",
"448 251 OFFCURVE",
"365 292 CURVE SMOOTH",
"333 307 OFFCURVE",
"309 323 OFFCURVE",
"312 360 CURVE",
"318 395 OFFCURVE",
"357 422 OFFCURVE",
"403 449 CURVE SMOOTH",
"449 477 OFFCURVE",
"491 521 OFFCURVE",
"498 576 CURVE SMOOTH",
"508 658 OFFCURVE",
"434 716 OFFCURVE",
"338 716 CURVE SMOOTH"
);
}
);
width = 523;
}
);
note = germandbls;
unicode = 00DF;
},
{
glyphname = agrave;
layers = (
{
layerId = "18B4A443-2C69-4DCB-9619-77A7DD6AC8EC";
name = Light;
paths = (
{
closed = 1;
nodes = (
"420 38 LINE",
"404 38 LINE SMOOTH",
"397 38 OFFCURVE",
"389 39 OFFCURVE",
"381 39 CURVE SMOOTH",
"381 39 LINE",
"435 481 LINE",
"418 490 OFFCURVE",
"400 495 OFFCURVE",
"383 499 CURVE",
"366 502 OFFCURVE",
"347 504 OFFCURVE",
"327 504 CURVE SMOOTH",
"300 504 OFFCURVE",
"274 500 OFFCURVE",
"248 491 CURVE SMOOTH",
"222 482 OFFCURVE",
"199 470 OFFCURVE",
"176 455 CURVE SMOOTH",
"153 440 OFFCURVE",
"133 422 OFFCURVE",
"114 401 CURVE SMOOTH",
"95 380 OFFCURVE",
"79 357 OFFCURVE",
"66 332 CURVE SMOOTH",
"52 307 OFFCURVE",
"41 280 OFFCURVE",
"34 252 CURVE SMOOTH",
"27 224 OFFCURVE",
"24 196 OFFCURVE",
"24 167 CURVE SMOOTH",
"24 140 OFFCURVE",
"27 116 OFFCURVE",
"32 95 CURVE SMOOTH",
"37 74 OFFCURVE",
"44 56 OFFCURVE",
"55 41 CURVE",
"65 26 OFFCURVE",
"79 14 OFFCURVE",
"95 6 CURVE SMOOTH",
"111 -2 OFFCURVE",
"129 -6 OFFCURVE",
"150 -6 CURVE SMOOTH",
"170 -6 OFFCURVE",
"190 -2 OFFCURVE",
"209 7 CURVE SMOOTH",
"228 16 OFFCURVE",
"246 27 OFFCURVE",
"263 43 CURVE SMOOTH",
"280 59 OFFCURVE",
"296 77 OFFCURVE",
"311 99 CURVE SMOOTH",
"326 121 OFFCURVE",
"340 145 OFFCURVE",
"353 172 CURVE",
"336 16 LINE",
"336 12 OFFCURVE",
"337 8 OFFCURVE",
"340 5 CURVE",
"342 2 OFFCURVE",
"347 0 OFFCURVE",
"353 0 CURVE SMOOTH",
"365 0 LINE",
"365 0 LINE",
"376 0 LINE",
"442 0 LINE",
"445 20 LINE",
"446 31 OFFCURVE",
"440 37 OFFCURVE",
"427 38 CURVE"
);
},
{
closed = 1;
nodes = (
"306 138 OFFCURVE",
"291 113 OFFCURVE",
"274 94 CURVE SMOOTH",
"257 74 OFFCURVE",
"239 60 OFFCURVE",
"221 49 CURVE SMOOTH",
"203 38 OFFCURVE",
"184 33 OFFCURVE",
"165 33 CURVE SMOOTH",
"133 33 OFFCURVE",
"109 45 OFFCURVE",
"94 70 CURVE SMOOTH",
"79 95 OFFCURVE",
"71 130 OFFCURVE",
"71 175 CURVE SMOOTH",
"71 200 OFFCURVE",
"74 225 OFFCURVE",
"80 249 CURVE SMOOTH",
"86 273 OFFCURVE",
"96 296 OFFCURVE",
"107 318 CURVE SMOOTH",
"118 340 OFFCURVE",
"132 361 OFFCURVE",
"147 379 CURVE SMOOTH",
"162 397 OFFCURVE",
"180 413 OFFCURVE",
"198 426 CURVE SMOOTH",
"217 439 OFFCURVE",
"236 449 OFFCURVE",
"257 457 CURVE SMOOTH",
"278 465 OFFCURVE",
"300 469 OFFCURVE",
"322 469 CURVE SMOOTH",
"345 469 OFFCURVE",
"366 466 OFFCURVE",
"386 459 CURVE",
"361 256 LINE",
"349 223 OFFCURVE",
"336 192 OFFCURVE",
"321 165 CURVE SMOOTH"
);
},
{
closed = 1;
nodes = (
"193 716 LINE",
"286 589 LINE",
"288 586 OFFCURVE",
"290 583 OFFCURVE",
"293 582 CURVE SMOOTH",
"296 581 OFFCURVE",
"299 581 OFFCURVE",
"303 581 CURVE SMOOTH",
"330 581 LINE",
"266 700 LINE SMOOTH",
"263 706 OFFCURVE",
"260 710 OFFCURVE",
"256 712 CURVE SMOOTH",
"252 714 OFFCURVE",
"247 716 OFFCURVE",
"239 716 CURVE SMOOTH"
);
}
);
width = 497;
}
);
note = agrave;
unicode = 00E0;
},
{
glyphname = aacute;
layers = (
{
layerId = "18B4A443-2C69-4DCB-9619-77A7DD6AC8EC";
name = Light;
paths = (
{
closed = 1;
nodes = (
"420 38 LINE",
"404 38 LINE SMOOTH",
"397 38 OFFCURVE",
"389 39 OFFCURVE",
"381 39 CURVE SMOOTH",
"381 39 LINE",
"435 481 LINE",
"418 490 OFFCURVE",
"400 495 OFFCURVE",
"383 499 CURVE",
"366 502 OFFCURVE",
"347 504 OFFCURVE",
"327 504 CURVE SMOOTH",
"300 504 OFFCURVE",
"274 500 OFFCURVE",
"248 491 CURVE SMOOTH",
"222 482 OFFCURVE",
"199 470 OFFCURVE",
"176 455 CURVE SMOOTH",
"153 440 OFFCURVE",
"133 422 OFFCURVE",
"114 401 CURVE SMOOTH",
"95 380 OFFCURVE",
"79 357 OFFCURVE",
"66 332 CURVE SMOOTH",
"52 307 OFFCURVE",
"41 280 OFFCURVE",
"34 252 CURVE SMOOTH",
"27 224 OFFCURVE",
"24 196 OFFCURVE",
"24 167 CURVE SMOOTH",
"24 140 OFFCURVE",
"27 116 OFFCURVE",
"32 95 CURVE SMOOTH",
"37 74 OFFCURVE",
"44 56 OFFCURVE",
"55 41 CURVE",
"65 26 OFFCURVE",
"79 14 OFFCURVE",
"95 6 CURVE SMOOTH",
"111 -2 OFFCURVE",
"129 -6 OFFCURVE",
"150 -6 CURVE SMOOTH",
"170 -6 OFFCURVE",
"190 -2 OFFCURVE",
"209 7 CURVE SMOOTH",
"228 16 OFFCURVE",
"246 27 OFFCURVE",
"263 43 CURVE SMOOTH",
"280 59 OFFCURVE",
"296 77 OFFCURVE",
"311 99 CURVE SMOOTH",
"326 121 OFFCURVE",
"340 145 OFFCURVE",
"353 172 CURVE",
"336 16 LINE",
"336 12 OFFCURVE",
"337 8 OFFCURVE",
"340 5 CURVE",
"342 2 OFFCURVE",
"347 0 OFFCURVE",
"353 0 CURVE SMOOTH",
"365 0 LINE",
"365 0 LINE",
"376 0 LINE",
"442 0 LINE",
"445 20 LINE",
"446 31 OFFCURVE",
"440 37 OFFCURVE",
"427 38 CURVE"
);
},
{
closed = 1;
nodes = (
"306 138 OFFCURVE",
"291 113 OFFCURVE",
"274 94 CURVE SMOOTH",
"257 74 OFFCURVE",
"239 60 OFFCURVE",
"221 49 CURVE SMOOTH",
"203 38 OFFCURVE",
"184 33 OFFCURVE",
"165 33 CURVE SMOOTH",
"133 33 OFFCURVE",
"109 45 OFFCURVE",
"94 70 CURVE SMOOTH",
"79 95 OFFCURVE",
"71 130 OFFCURVE",
"71 175 CURVE SMOOTH",
"71 200 OFFCURVE",
"74 225 OFFCURVE",
"80 249 CURVE SMOOTH",
"86 273 OFFCURVE",
"96 296 OFFCURVE",
"107 318 CURVE SMOOTH",
"118 340 OFFCURVE",
"132 361 OFFCURVE",
"147 379 CURVE SMOOTH",
"162 397 OFFCURVE",
"180 413 OFFCURVE",
"198 426 CURVE SMOOTH",
"217 439 OFFCURVE",
"236 449 OFFCURVE",
"257 457 CURVE SMOOTH",
"278 465 OFFCURVE",
"300 469 OFFCURVE",
"322 469 CURVE SMOOTH",
"345 469 OFFCURVE",
"366 466 OFFCURVE",
"386 459 CURVE",
"361 256 LINE",
"349 223 OFFCURVE",
"336 192 OFFCURVE",
"321 165 CURVE SMOOTH"
);
},
{
closed = 1;
nodes = (
"409 716 LINE",
"362 716 LINE SMOOTH",
"354 716 OFFCURVE",
"347 714 OFFCURVE",
"343 712 CURVE SMOOTH",
"339 710 OFFCURVE",
"334 706 OFFCURVE",
"330 700 CURVE",
"237 581 LINE",
"266 581 LINE SMOOTH",
"270 581 OFFCURVE",
"273 581 OFFCURVE",
"276 582 CURVE SMOOTH",
"279 583 OFFCURVE",
"282 586 OFFCURVE",
"285 589 CURVE SMOOTH"
);
}
);
width = 497;
}
);
note = aacute;
unicode = 00E1;
},
{
glyphname = acircumflex;
layers = (
{
layerId = "18B4A443-2C69-4DCB-9619-77A7DD6AC8EC";
name = Light;
paths = (
{
closed = 1;
nodes = (
"420 38 LINE",
"404 38 LINE SMOOTH",
"397 38 OFFCURVE",
"389 39 OFFCURVE",
"381 39 CURVE SMOOTH",
"381 39 LINE",
"435 481 LINE",
"418 490 OFFCURVE",
"400 495 OFFCURVE",
"383 499 CURVE",
"366 502 OFFCURVE",
"347 504 OFFCURVE",
"327 504 CURVE SMOOTH",
"300 504 OFFCURVE",
"274 500 OFFCURVE",
"248 491 CURVE SMOOTH",
"222 482 OFFCURVE",
"199 470 OFFCURVE",
"176 455 CURVE SMOOTH",
"153 440 OFFCURVE",
"133 422 OFFCURVE",
"114 401 CURVE SMOOTH",
"95 380 OFFCURVE",
"79 357 OFFCURVE",
"66 332 CURVE SMOOTH",
"52 307 OFFCURVE",
"41 280 OFFCURVE",
"34 252 CURVE SMOOTH",
"27 224 OFFCURVE",
"24 196 OFFCURVE",
"24 167 CURVE SMOOTH",
"24 140 OFFCURVE",
"27 116 OFFCURVE",
"32 95 CURVE SMOOTH",
"37 74 OFFCURVE",
"44 56 OFFCURVE",
"55 41 CURVE",
"65 26 OFFCURVE",
"79 14 OFFCURVE",
"95 6 CURVE SMOOTH",
"111 -2 OFFCURVE",
"129 -6 OFFCURVE",
"150 -6 CURVE SMOOTH",
"170 -6 OFFCURVE",
"190 -2 OFFCURVE",
"209 7 CURVE SMOOTH",
"228 16 OFFCURVE",
"246 27 OFFCURVE",
"263 43 CURVE SMOOTH",
"280 59 OFFCURVE",
"296 77 OFFCURVE",
"311 99 CURVE SMOOTH",
"326 121 OFFCURVE",
"340 145 OFFCURVE",
"353 172 CURVE",
"336 16 LINE",
"336 12 OFFCURVE",
"337 8 OFFCURVE",
"340 5 CURVE",
"342 2 OFFCURVE",
"347 0 OFFCURVE",
"353 0 CURVE SMOOTH",
"365 0 LINE",
"365 0 LINE",
"376 0 LINE",
"442 0 LINE",
"445 20 LINE",
"446 31 OFFCURVE",
"440 37 OFFCURVE",
"427 38 CURVE"
);
},
{
closed = 1;
nodes = (
"306 138 OFFCURVE",
"291 113 OFFCURVE",
"274 94 CURVE SMOOTH",
"257 74 OFFCURVE",
"239 60 OFFCURVE",
"221 49 CURVE SMOOTH",
"203 38 OFFCURVE",
"184 33 OFFCURVE",
"165 33 CURVE SMOOTH",
"133 33 OFFCURVE",
"109 45 OFFCURVE",
"94 70 CURVE SMOOTH",
"79 95 OFFCURVE",
"71 130 OFFCURVE",
"71 175 CURVE SMOOTH",
"71 200 OFFCURVE",
"74 225 OFFCURVE",
"80 249 CURVE SMOOTH",
"86 273 OFFCURVE",
"96 296 OFFCURVE",
"107 318 CURVE SMOOTH",
"118 340 OFFCURVE",
"132 361 OFFCURVE",
"147 379 CURVE SMOOTH",
"162 397 OFFCURVE",
"180 413 OFFCURVE",
"198 426 CURVE SMOOTH",
"217 439 OFFCURVE",
"236 449 OFFCURVE",
"257 457 CURVE SMOOTH",
"278 465 OFFCURVE",
"300 469 OFFCURVE",
"322 469 CURVE SMOOTH",
"345 469 OFFCURVE",
"366 466 OFFCURVE",
"386 459 CURVE",
"361 256 LINE",
"349 223 OFFCURVE",
"336 192 OFFCURVE",
"321 165 CURVE SMOOTH"
);
},
{
closed = 1;
nodes = (
"410 585 LINE",
"317 708 LINE",
"274 708 LINE",
"150 585 LINE",
"184 585 LINE SMOOTH",
"187 585 OFFCURVE",
"189 585 OFFCURVE",
"191 586 CURVE SMOOTH",
"193 587 OFFCURVE",
"196 589 OFFCURVE",
"198 591 CURVE",
"287 672 LINE",
"289 674 LINE SMOOTH",
"290 675 OFFCURVE",
"291 677 OFFCURVE",
"292 678 CURVE",
"293 676 OFFCURVE",
"295 673 OFFCURVE",
"297 672 CURVE",
"365 591 LINE",
"368 587 OFFCURVE",
"373 585 OFFCURVE",
"378 585 CURVE SMOOTH"
);
}
);
width = 497;
}
);
note = acircumflex;
unicode = 00E2;
},
{
glyphname = atilde;
layers = (
{
layerId = "18B4A443-2C69-4DCB-9619-77A7DD6AC8EC";
name = Light;
paths = (
{
closed = 1;
nodes = (
"420 38 LINE",
"404 38 LINE SMOOTH",
"397 38 OFFCURVE",
"390 39 OFFCURVE",
"382 39 CURVE SMOOTH",
"382 39 LINE",
"435 481 LINE",
"418 490 OFFCURVE",
"401 495 OFFCURVE",
"384 499 CURVE",
"367 502 OFFCURVE",
"348 504 OFFCURVE",
"328 504 CURVE SMOOTH",
"301 504 OFFCURVE",
"274 500 OFFCURVE",
"248 491 CURVE SMOOTH",
"222 482 OFFCURVE",
"199 470 OFFCURVE",
"176 455 CURVE SMOOTH",
"153 440 OFFCURVE",
"133 422 OFFCURVE",
"114 401 CURVE SMOOTH",
"95 380 OFFCURVE",
"79 357 OFFCURVE",
"66 332 CURVE SMOOTH",
"52 307 OFFCURVE",
"42 280 OFFCURVE",
"35 252 CURVE SMOOTH",
"28 224 OFFCURVE",
"24 196 OFFCURVE",
"24 167 CURVE SMOOTH",
"24 140 OFFCURVE",
"27 116 OFFCURVE",
"32 95 CURVE SMOOTH",
"37 74 OFFCURVE",
"45 56 OFFCURVE",
"56 41 CURVE",
"66 26 OFFCURVE",
"79 14 OFFCURVE",
"95 6 CURVE SMOOTH",
"111 -2 OFFCURVE",
"129 -6 OFFCURVE",
"150 -6 CURVE SMOOTH",
"170 -6 OFFCURVE",
"190 -2 OFFCURVE",
"209 7 CURVE SMOOTH",
"228 16 OFFCURVE",
"246 27 OFFCURVE",
"263 43 CURVE SMOOTH",
"280 59 OFFCURVE",
"297 77 OFFCURVE",
"312 99 CURVE SMOOTH",
"327 121 OFFCURVE",
"340 145 OFFCURVE",
"353 172 CURVE",
"337 16 LINE",
"337 12 OFFCURVE",
"338 8 OFFCURVE",
"341 5 CURVE",
"343 2 OFFCURVE",
"348 0 OFFCURVE",
"354 0 CURVE SMOOTH",
"365 0 LINE",
"365 0 LINE",
"377 0 LINE",
"443 0 LINE",
"445 20 LINE SMOOTH",
"446 31 OFFCURVE",
"441 37 OFFCURVE",
"428 38 CURVE"
);
},
{
closed = 1;
nodes = (
"307 138 OFFCURVE",
"291 113 OFFCURVE",
"274 94 CURVE SMOOTH",
"257 74 OFFCURVE",
"240 60 OFFCURVE",
"222 49 CURVE SMOOTH",
"204 38 OFFCURVE",
"184 33 OFFCURVE",
"165 33 CURVE SMOOTH",
"133 33 OFFCURVE",
"109 45 OFFCURVE",
"94 70 CURVE SMOOTH",
"79 95 OFFCURVE",
"72 130 OFFCURVE",
"72 175 CURVE SMOOTH",
"72 200 OFFCURVE",
"75 225 OFFCURVE",
"81 249 CURVE SMOOTH",
"87 273 OFFCURVE",
"96 296 OFFCURVE",
"107 318 CURVE SMOOTH",
"118 340 OFFCURVE",
"132 361 OFFCURVE",
"147 379 CURVE SMOOTH",
"162 397 OFFCURVE",
"180 413 OFFCURVE",
"198 426 CURVE SMOOTH",
"217 439 OFFCURVE",
"236 449 OFFCURVE",
"257 457 CURVE SMOOTH",
"278 465 OFFCURVE",
"300 469 OFFCURVE",
"322 469 CURVE SMOOTH",
"345 469 OFFCURVE",
"366 466 OFFCURVE",
"386 459 CURVE",
"361 256 LINE",
"349 223 OFFCURVE",
"337 192 OFFCURVE",
"322 165 CURVE SMOOTH"
);
},
{
closed = 1;
nodes = (
"337 640 OFFCURVE",
"329 642 OFFCURVE",
"321 648 CURVE SMOOTH",
"297 666 LINE SMOOTH",
"289 672 OFFCURVE",
"280 678 OFFCURVE",
"271 684 CURVE SMOOTH",
"262 690 OFFCURVE",
"252 693 OFFCURVE",
"241 693 CURVE SMOOTH",
"230 693 OFFCURVE",
"219 690 OFFCURVE",
"209 686 CURVE SMOOTH",
"199 682 OFFCURVE",
"191 676 OFFCURVE",
"184 668 CURVE SMOOTH",
"177 660 OFFCURVE",
"171 652 OFFCURVE",
"166 641 CURVE",
"161 631 OFFCURVE",
"158 619 OFFCURVE",
"157 607 CURVE",
"188 607 LINE",
"191 622 OFFCURVE",
"196 634 OFFCURVE",
"204 644 CURVE SMOOTH",
"212 654 OFFCURVE",
"224 658 OFFCURVE",
"238 658 CURVE SMOOTH",
"247 658 OFFCURVE",
"255 656 OFFCURVE",
"263 650 CURVE SMOOTH",
"287 632 LINE SMOOTH",
"295 626 OFFCURVE",
"304 620 OFFCURVE",
"313 614 CURVE SMOOTH",
"322 608 OFFCURVE",
"332 606 OFFCURVE",
"343 606 CURVE SMOOTH",
"354 606 OFFCURVE",
"364 608 OFFCURVE",
"374 612 CURVE SMOOTH",
"384 616 OFFCURVE",
"392 622 OFFCURVE",
"399 630 CURVE SMOOTH",
"406 638 OFFCURVE",
"412 647 OFFCURVE",
"416 657 CURVE SMOOTH",
"420 667 OFFCURVE",
"424 679 OFFCURVE",
"425 691 CURVE",
"396 691 LINE",
"394 675 OFFCURVE",
"388 663 OFFCURVE",
"380 654 CURVE SMOOTH",
"372 645 OFFCURVE",
"360 640 OFFCURVE",
"346 640 CURVE SMOOTH"
);
}
);
width = 499;
}
);
note = atilde;
unicode = 00E3;
},
{
glyphname = adieresis;
layers = (
{
layerId = "18B4A443-2C69-4DCB-9619-77A7DD6AC8EC";
name = Light;
paths = (
{
closed = 1;
nodes = (
"420 38 LINE",
"404 38 LINE SMOOTH",
"397 38 OFFCURVE",
"390 39 OFFCURVE",
"382 39 CURVE SMOOTH",
"382 39 LINE",
"435 481 LINE",
"418 490 OFFCURVE",
"401 495 OFFCURVE",
"384 499 CURVE",
"367 502 OFFCURVE",
"348 504 OFFCURVE",
"328 504 CURVE SMOOTH",
"301 504 OFFCURVE",
"274 500 OFFCURVE",
"248 491 CURVE SMOOTH",
"222 482 OFFCURVE",
"199 470 OFFCURVE",
"176 455 CURVE SMOOTH",
"153 440 OFFCURVE",
"133 422 OFFCURVE",
"114 401 CURVE SMOOTH",
"95 380 OFFCURVE",
"79 357 OFFCURVE",
"66 332 CURVE SMOOTH",
"52 307 OFFCURVE",
"42 280 OFFCURVE",
"35 252 CURVE SMOOTH",
"28 224 OFFCURVE",
"24 196 OFFCURVE",
"24 167 CURVE SMOOTH",
"24 140 OFFCURVE",
"27 116 OFFCURVE",
"32 95 CURVE SMOOTH",
"37 74 OFFCURVE",
"45 56 OFFCURVE",
"56 41 CURVE",
"66 26 OFFCURVE",
"79 14 OFFCURVE",
"95 6 CURVE SMOOTH",
"111 -2 OFFCURVE",
"129 -6 OFFCURVE",
"150 -6 CURVE SMOOTH",
"170 -6 OFFCURVE",
"190 -2 OFFCURVE",
"209 7 CURVE SMOOTH",
"228 16 OFFCURVE",
"246 27 OFFCURVE",
"263 43 CURVE SMOOTH",
"280 59 OFFCURVE",
"297 77 OFFCURVE",
"312 99 CURVE SMOOTH",
"327 121 OFFCURVE",
"340 145 OFFCURVE",
"353 172 CURVE",
"337 16 LINE",
"337 12 OFFCURVE",
"338 8 OFFCURVE",
"341 5 CURVE",
"343 2 OFFCURVE",
"348 0 OFFCURVE",
"354 0 CURVE SMOOTH",
"365 0 LINE",
"365 0 LINE",
"377 0 LINE",
"443 0 LINE",
"445 20 LINE SMOOTH",
"446 31 OFFCURVE",
"441 37 OFFCURVE",
"428 38 CURVE"
);
},
{
closed = 1;
nodes = (
"307 138 OFFCURVE",
"291 113 OFFCURVE",
"274 94 CURVE SMOOTH",
"257 74 OFFCURVE",
"240 60 OFFCURVE",
"222 49 CURVE SMOOTH",
"204 38 OFFCURVE",
"184 33 OFFCURVE",
"165 33 CURVE SMOOTH",
"133 33 OFFCURVE",
"109 45 OFFCURVE",
"94 70 CURVE SMOOTH",
"79 95 OFFCURVE",
"72 130 OFFCURVE",
"72 175 CURVE SMOOTH",
"72 200 OFFCURVE",
"75 225 OFFCURVE",
"81 249 CURVE SMOOTH",
"87 273 OFFCURVE",
"96 296 OFFCURVE",
"107 318 CURVE SMOOTH",
"118 340 OFFCURVE",
"132 361 OFFCURVE",
"147 379 CURVE SMOOTH",
"162 397 OFFCURVE",
"180 413 OFFCURVE",
"198 426 CURVE SMOOTH",
"217 439 OFFCURVE",
"236 449 OFFCURVE",
"257 457 CURVE SMOOTH",
"278 465 OFFCURVE",
"300 469 OFFCURVE",
"322 469 CURVE SMOOTH",
"345 469 OFFCURVE",
"366 466 OFFCURVE",
"386 459 CURVE",
"361 256 LINE",
"349 223 OFFCURVE",
"337 192 OFFCURVE",
"322 165 CURVE SMOOTH"
);
},
{
closed = 1;
nodes = (
"245 648 OFFCURVE",
"245 653 OFFCURVE",
"243 658 CURVE SMOOTH",
"241 663 OFFCURVE",
"238 667 OFFCURVE",
"235 671 CURVE SMOOTH",
"232 675 OFFCURVE",
"228 678 OFFCURVE",
"223 680 CURVE SMOOTH",
"218 682 OFFCURVE",
"213 684 OFFCURVE",
"208 684 CURVE SMOOTH",
"203 684 OFFCURVE",
"197 682 OFFCURVE",
"192 680 CURVE SMOOTH",
"187 678 OFFCURVE",
"182 675 OFFCURVE",
"178 671 CURVE SMOOTH",
"174 667 OFFCURVE",
"171 663 OFFCURVE",
"168 658 CURVE SMOOTH",
"165 653 OFFCURVE",
"163 648 OFFCURVE",
"162 642 CURVE SMOOTH",
"161 637 OFFCURVE",
"162 632 OFFCURVE",
"164 627 CURVE SMOOTH",
"166 622 OFFCURVE",
"168 618 OFFCURVE",
"171 614 CURVE SMOOTH",
"174 610 OFFCURVE",
"178 607 OFFCURVE",
"183 605 CURVE SMOOTH",
"188 603 OFFCURVE",
"193 602 OFFCURVE",
"198 602 CURVE SMOOTH",
"203 602 OFFCURVE",
"209 603 OFFCURVE",
"214 605 CURVE SMOOTH",
"219 607 OFFCURVE",
"224 610 OFFCURVE",
"228 614 CURVE SMOOTH",
"232 618 OFFCURVE",
"236 622 OFFCURVE",
"239 627 CURVE SMOOTH",
"242 632 OFFCURVE",
"243 637 OFFCURVE",
"244 642 CURVE SMOOTH"
);
},
{
closed = 1;
nodes = (
"417 648 OFFCURVE",
"416 653 OFFCURVE",
"414 658 CURVE SMOOTH",
"412 663 OFFCURVE",
"410 667 OFFCURVE",
"407 671 CURVE SMOOTH",
"404 675 OFFCURVE",
"400 678 OFFCURVE",
"395 680 CURVE SMOOTH",
"390 682 OFFCURVE",
"384 684 OFFCURVE",
"379 684 CURVE SMOOTH",
"373 684 OFFCURVE",
"368 682 OFFCURVE",
"363 680 CURVE SMOOTH",
"358 678 OFFCURVE",
"353 675 OFFCURVE",
"349 671 CURVE SMOOTH",
"345 667 OFFCURVE",
"342 663 OFFCURVE",
"339 658 CURVE SMOOTH",
"336 653 OFFCURVE",
"334 648 OFFCURVE",
"333 642 CURVE SMOOTH",
"332 637 OFFCURVE",
"333 632 OFFCURVE",
"335 627 CURVE SMOOTH",
"337 622 OFFCURVE",
"339 618 OFFCURVE",
"342 614 CURVE SMOOTH",
"345 610 OFFCURVE",
"349 607 OFFCURVE",
"354 605 CURVE SMOOTH",
"359 603 OFFCURVE",
"363 602 OFFCURVE",
"369 602 CURVE SMOOTH",
"374 602 OFFCURVE",
"381 603 OFFCURVE",
"386 605 CURVE SMOOTH",
"391 607 OFFCURVE",
"396 610 OFFCURVE",
"400 614 CURVE SMOOTH",
"404 618 OFFCURVE",
"407 622 OFFCURVE",
"410 627 CURVE SMOOTH",
"413 632 OFFCURVE",
"415 637 OFFCURVE",
"416 642 CURVE SMOOTH"
);
}
);
width = 498;
}
);
note = adieresis;
unicode = 00E4;
},
{
glyphname = aring;
layers = (
{
layerId = "18B4A443-2C69-4DCB-9619-77A7DD6AC8EC";
name = Light;
paths = (
{
closed = 1;
nodes = (
"419 38 LINE",
"403 38 LINE SMOOTH",
"396 38 OFFCURVE",
"389 39 OFFCURVE",
"381 39 CURVE SMOOTH",
"381 39 LINE",
"434 481 LINE",
"417 490 OFFCURVE",
"400 495 OFFCURVE",
"383 499 CURVE",
"366 502 OFFCURVE",
"347 504 OFFCURVE",
"327 504 CURVE SMOOTH",
"300 504 OFFCURVE",
"273 500 OFFCURVE",
"247 491 CURVE SMOOTH",
"221 482 OFFCURVE",
"198 470 OFFCURVE",
"175 455 CURVE SMOOTH",
"152 440 OFFCURVE",
"132 422 OFFCURVE",
"113 401 CURVE SMOOTH",
"94 380 OFFCURVE",
"78 357 OFFCURVE",
"65 332 CURVE SMOOTH",
"51 307 OFFCURVE",
"41 280 OFFCURVE",
"34 252 CURVE SMOOTH",
"27 224 OFFCURVE",
"23 196 OFFCURVE",
"23 167 CURVE SMOOTH",
"23 140 OFFCURVE",
"26 116 OFFCURVE",
"31 95 CURVE SMOOTH",
"36 74 OFFCURVE",
"44 56 OFFCURVE",
"55 41 CURVE",
"65 26 OFFCURVE",
"78 14 OFFCURVE",
"94 6 CURVE SMOOTH",
"110 -2 OFFCURVE",
"128 -6 OFFCURVE",
"149 -6 CURVE SMOOTH",
"169 -6 OFFCURVE",
"189 -2 OFFCURVE",
"208 7 CURVE SMOOTH",
"227 16 OFFCURVE",
"245 27 OFFCURVE",
"262 43 CURVE SMOOTH",
"279 59 OFFCURVE",
"296 77 OFFCURVE",
"311 99 CURVE SMOOTH",
"326 121 OFFCURVE",
"339 145 OFFCURVE",
"352 172 CURVE",
"336 16 LINE",
"336 12 OFFCURVE",
"337 8 OFFCURVE",
"340 5 CURVE",
"342 2 OFFCURVE",
"347 0 OFFCURVE",
"353 0 CURVE SMOOTH",
"364 0 LINE",
"364 0 LINE",
"376 0 LINE",
"442 0 LINE",
"444 20 LINE SMOOTH",
"445 31 OFFCURVE",
"440 37 OFFCURVE",
"427 38 CURVE"
);
},
{
closed = 1;
nodes = (
"306 138 OFFCURVE",
"290 113 OFFCURVE",
"273 94 CURVE SMOOTH",
"256 74 OFFCURVE",
"239 60 OFFCURVE",
"221 49 CURVE SMOOTH",
"203 38 OFFCURVE",
"183 33 OFFCURVE",
"164 33 CURVE SMOOTH",
"132 33 OFFCURVE",
"108 45 OFFCURVE",
"93 70 CURVE SMOOTH",
"78 95 OFFCURVE",
"71 130 OFFCURVE",
"71 175 CURVE SMOOTH",
"71 200 OFFCURVE",
"74 225 OFFCURVE",
"80 249 CURVE SMOOTH",
"86 273 OFFCURVE",
"95 296 OFFCURVE",
"106 318 CURVE SMOOTH",
"117 340 OFFCURVE",
"131 361 OFFCURVE",
"146 379 CURVE SMOOTH",
"161 397 OFFCURVE",
"179 413 OFFCURVE",
"197 426 CURVE SMOOTH",
"216 439 OFFCURVE",
"235 449 OFFCURVE",
"256 457 CURVE SMOOTH",
"277 465 OFFCURVE",
"299 469 OFFCURVE",
"321 469 CURVE SMOOTH",
"344 469 OFFCURVE",
"365 466 OFFCURVE",
"385 459 CURVE",
"360 256 LINE",
"348 223 OFFCURVE",
"336 192 OFFCURVE",
"321 165 CURVE SMOOTH"
);
},
{
closed = 1;
nodes = (
"200 639 OFFCURVE",
"201 628 OFFCURVE",
"204 618 CURVE SMOOTH",
"207 608 OFFCURVE",
"212 600 OFFCURVE",
"219 593 CURVE SMOOTH",
"226 586 OFFCURVE",
"234 580 OFFCURVE",
"244 576 CURVE SMOOTH",
"254 572 OFFCURVE",
"265 570 OFFCURVE",
"277 570 CURVE SMOOTH",
"289 570 OFFCURVE",
"300 572 OFFCURVE",
"311 576 CURVE SMOOTH",
"322 580 OFFCURVE",
"332 586 OFFCURVE",
"341 593 CURVE SMOOTH",
"350 600 OFFCURVE",
"356 608 OFFCURVE",
"362 618 CURVE SMOOTH",
"368 628 OFFCURVE",
"372 639 OFFCURVE",
"373 651 CURVE SMOOTH",
"374 663 OFFCURVE",
"373 674 OFFCURVE",
"370 684 CURVE SMOOTH",
"367 694 OFFCURVE",
"362 703 OFFCURVE",
"355 710 CURVE SMOOTH",
"348 717 OFFCURVE",
"339 723 OFFCURVE",
"329 727 CURVE SMOOTH",
"319 731 OFFCURVE",
"309 733 OFFCURVE",
"297 733 CURVE SMOOTH",
"285 733 OFFCURVE",
"274 731 OFFCURVE",
"263 727 CURVE SMOOTH",
"252 723 OFFCURVE",
"242 717 OFFCURVE",
"233 710 CURVE SMOOTH",
"224 703 OFFCURVE",
"218 694 OFFCURVE",
"212 684 CURVE SMOOTH",
"206 674 OFFCURVE",
"202 663 OFFCURVE",
"201 651 CURVE SMOOTH"
);
},
{
closed = 1;
nodes = (
"232 668 OFFCURVE",
"239 681 OFFCURVE",
"251 692 CURVE SMOOTH",
"263 703 OFFCURVE",
"277 708 OFFCURVE",
"294 708 CURVE SMOOTH",
"311 708 OFFCURVE",
"324 703 OFFCURVE",
"333 692 CURVE SMOOTH",
"342 681 OFFCURVE",
"346 668 OFFCURVE",
"344 651 CURVE SMOOTH",
"342 634 OFFCURVE",
"335 621 OFFCURVE",
"323 610 CURVE SMOOTH",
"311 599 OFFCURVE",
"297 594 OFFCURVE",
"280 594 CURVE SMOOTH",
"263 594 OFFCURVE",
"250 599 OFFCURVE",
"241 610 CURVE SMOOTH",
"232 621 OFFCURVE",
"228 634 OFFCURVE",
"230 651 CURVE SMOOTH"
);
}
);
width = 496;
}
);
note = aring;
unicode = 00E5;
},
{
color = 4;
glyphname = ae;
lastChange = "2015-10-08 22:10:41 +0000";
layers = (
{
layerId = "18B4A443-2C69-4DCB-9619-77A7DD6AC8EC";
name = Light;
paths = (
{
closed = 1;
nodes = (
"472 512 OFFCURVE",
"410 470 OFFCURVE",
"372 399 CURVE",
"364 474 OFFCURVE",
"327 513 OFFCURVE",
"252 513 CURVE SMOOTH",
"189 513 OFFCURVE",
"134 486 OFFCURVE",
"80 434 CURVE",
"88 421 LINE",
"93 413 OFFCURVE",
"105 409 OFFCURVE",
"119 421 CURVE SMOOTH",
"154 451 OFFCURVE",
"198 474 OFFCURVE",
"247 474 CURVE SMOOTH",
"338 474 OFFCURVE",
"347 400 OFFCURVE",
"330 288 CURVE",
"189 287 OFFCURVE",
"20 252 OFFCURVE",
"20 114 CURVE SMOOTH",
"20 37 OFFCURVE",
"68 -1 OFFCURVE",
"146 -1 CURVE SMOOTH",
"228 -1 OFFCURVE",
"309 54 OFFCURVE",
"338 137 CURVE",
"356 57 OFFCURVE",
"405 1 OFFCURVE",
"489 1 CURVE SMOOTH",
"571 1 OFFCURVE",
"625 35 OFFCURVE",
"687 100 CURVE",
"676 112 LINE",
"670 118 OFFCURVE",
"663 120 OFFCURVE",
"653 112 CURVE SMOOTH",
"589 61 OFFCURVE",
"568 39 OFFCURVE",
"497 39 CURVE SMOOTH",
"396 39 OFFCURVE",
"360 132 OFFCURVE",
"369 258 CURVE",
"527 258 OFFCURVE",
"678 292 OFFCURVE",
"678 402 CURVE SMOOTH",
"678 471 OFFCURVE",
"622 512 OFFCURVE",
"551 512 CURVE SMOOTH"
);
},
{
closed = 1;
nodes = (
"320 199 LINE SMOOTH",
"310 105 OFFCURVE",
"243 33 OFFCURVE",
"154 33 CURVE SMOOTH",
"97 33 OFFCURVE",
"65 64 OFFCURVE",
"65 120 CURVE SMOOTH",
"65 232 OFFCURVE",
"202 252 OFFCURVE",
"326 257 CURVE"
);
},
{
closed = 1;
nodes = (
"600 477 OFFCURVE",
"636 451 OFFCURVE",
"636 400 CURVE SMOOTH",
"636 315 OFFCURVE",
"510 293 OFFCURVE",
"372 287 CURVE",
"386 387 OFFCURVE",
"446 477 OFFCURVE",
"546 477 CURVE SMOOTH"
);
}
);
width = 717;
}
);
note = ae;
unicode = 00E6;
},
{
glyphname = ccedilla;
layers = (
{
layerId = "18B4A443-2C69-4DCB-9619-77A7DD6AC8EC";
name = Light;
paths = (
{
closed = 1;
nodes = (
"380 80 LINE SMOOTH",
"378 83 OFFCURVE",
"375 85 OFFCURVE",
"371 85 CURVE SMOOTH",
"367 85 OFFCURVE",
"362 83 OFFCURVE",
"355 77 CURVE SMOOTH",
"348 71 OFFCURVE",
"338 65 OFFCURVE",
"327 58 CURVE SMOOTH",
"316 51 OFFCURVE",
"302 46 OFFCURVE",
"285 40 CURVE SMOOTH",
"268 34 OFFCURVE",
"248 31 OFFCURVE",
"224 31 CURVE SMOOTH",
"198 31 OFFCURVE",
"175 36 OFFCURVE",
"155 46 CURVE SMOOTH",
"135 56 OFFCURVE",
"118 69 OFFCURVE",
"105 88 CURVE SMOOTH",
"92 106 OFFCURVE",
"84 129 OFFCURVE",
"79 156 CURVE SMOOTH",
"74 183 OFFCURVE",
"74 214 OFFCURVE",
"78 249 CURVE SMOOTH",
"82 283 OFFCURVE",
"90 313 OFFCURVE",
"101 340 CURVE SMOOTH",
"112 367 OFFCURVE",
"127 390 OFFCURVE",
"145 409 CURVE SMOOTH",
"162 428 OFFCURVE",
"183 443 OFFCURVE",
"206 453 CURVE SMOOTH",
"229 463 OFFCURVE",
"255 468 OFFCURVE",
"284 468 CURVE SMOOTH",
"309 468 OFFCURVE",
"337 462 OFFCURVE",
"367 451 CURVE",
"366 438 OFFCURVE",
"365 425 OFFCURVE",
"365 413 CURVE SMOOTH",
"365 401 OFFCURVE",
"364 392 OFFCURVE",
"364 385 CURVE SMOOTH",
"364 378 OFFCURVE",
"363 374 OFFCURVE",
"363 373 CURVE",
"362 357 OFFCURVE",
"368 349 OFFCURVE",
"382 349 CURVE SMOOTH",
"406 349 LINE",
"422 474 LINE",
"397 482 LINE SMOOTH",
"380 487 OFFCURVE",
"360 493 OFFCURVE",
"337 498 CURVE SMOOTH",
"314 503 OFFCURVE",
"298 505 OFFCURVE",
"286 505 CURVE SMOOTH",
"250 505 OFFCURVE",
"217 500 OFFCURVE",
"188 487 CURVE SMOOTH",
"159 474 OFFCURVE",
"133 457 OFFCURVE",
"111 434 CURVE SMOOTH",
"89 411 OFFCURVE",
"71 384 OFFCURVE",
"57 353 CURVE SMOOTH",
"43 322 OFFCURVE",
"35 287 OFFCURVE",
"30 249 CURVE SMOOTH",
"25 209 OFFCURVE",
"25 173 OFFCURVE",
"32 141 CURVE SMOOTH",
"39 109 OFFCURVE",
"50 83 OFFCURVE",
"66 61 CURVE SMOOTH",
"82 39 OFFCURVE",
"103 22 OFFCURVE",
"128 11 CURVE SMOOTH",
"148 2 OFFCURVE",
"169 -4 OFFCURVE",
"193 -6 CURVE",
"168 -65 LINE",
"181 -67 OFFCURVE",
"192 -68 OFFCURVE",
"203 -70 CURVE SMOOTH",
"214 -72 OFFCURVE",
"222 -75 OFFCURVE",
"230 -79 CURVE SMOOTH",
"238 -83 OFFCURVE",
"243 -86 OFFCURVE",
"247 -92 CURVE",
"251 -97 OFFCURVE",
"252 -105 OFFCURVE",
"251 -113 CURVE SMOOTH",
"249 -126 OFFCURVE",
"243 -136 OFFCURVE",
"233 -143 CURVE SMOOTH",
"223 -150 OFFCURVE",
"209 -154 OFFCURVE",
"192 -154 CURVE SMOOTH",
"182 -154 OFFCURVE",
"174 -153 OFFCURVE",
"168 -151 CURVE SMOOTH",
"162 -149 OFFCURVE",
"156 -147 OFFCURVE",
"152 -145 CURVE SMOOTH",
"148 -143 OFFCURVE",
"144 -141 OFFCURVE",
"141 -139 CURVE SMOOTH",
"138 -137 OFFCURVE",
"137 -137 OFFCURVE",
"135 -137 CURVE SMOOTH",
"132 -137 OFFCURVE",
"128 -139 OFFCURVE",
"126 -143 CURVE SMOOTH",
"119 -157 LINE",
"127 -163 OFFCURVE",
"137 -168 OFFCURVE",
"150 -172 CURVE SMOOTH",
"163 -176 OFFCURVE",
"175 -178 OFFCURVE",
"189 -178 CURVE SMOOTH",
"202 -178 OFFCURVE",
"215 -176 OFFCURVE",
"227 -173 CURVE SMOOTH",
"239 -170 OFFCURVE",
"249 -165 OFFCURVE",
"258 -160 CURVE SMOOTH",
"267 -155 OFFCURVE",
"274 -148 OFFCURVE",
"279 -140 CURVE SMOOTH",
"284 -132 OFFCURVE",
"288 -123 OFFCURVE",
"289 -113 CURVE SMOOTH",
"291 -93 OFFCURVE",
"286 -78 OFFCURVE",
"272 -68 CURVE SMOOTH",
"258 -58 OFFCURVE",
"236 -51 OFFCURVE",
"207 -46 CURVE",
"223 -6 LINE",
"238 -5 OFFCURVE",
"253 -4 OFFCURVE",
"267 -1 CURVE SMOOTH",
"285 3 OFFCURVE",
"301 7 OFFCURVE",
"316 13 CURVE SMOOTH",
"331 19 OFFCURVE",
"346 27 OFFCURVE",
"359 36 CURVE SMOOTH",
"372 45 OFFCURVE",
"382 54 OFFCURVE",
"391 64 CURVE"
);
}
);
width = 447;
}
);
note = ccedilla;
unicode = 00E7;
},
{
glyphname = egrave;
layers = (
{
layerId = "18B4A443-2C69-4DCB-9619-77A7DD6AC8EC";
name = Light;
paths = (
{
closed = 1;
nodes = (
"408 412 OFFCURVE",
"406 424 OFFCURVE",
"401 436 CURVE SMOOTH",
"396 448 OFFCURVE",
"389 459 OFFCURVE",
"378 469 CURVE",
"368 479 OFFCURVE",
"354 487 OFFCURVE",
"337 494 CURVE SMOOTH",
"320 501 OFFCURVE",
"299 504 OFFCURVE",
"275 504 CURVE SMOOTH",
"249 504 OFFCURVE",
"225 500 OFFCURVE",
"202 491 CURVE SMOOTH",
"179 482 OFFCURVE",
"159 471 OFFCURVE",
"140 456 CURVE SMOOTH",
"121 441 OFFCURVE",
"104 423 OFFCURVE",
"90 403 CURVE SMOOTH",
"76 383 OFFCURVE",
"64 360 OFFCURVE",
"54 337 CURVE SMOOTH",
"44 314 OFFCURVE",
"37 289 OFFCURVE",
"32 264 CURVE SMOOTH",
"27 239 OFFCURVE",
"24 214 OFFCURVE",
"24 189 CURVE SMOOTH",
"24 159 OFFCURVE",
"28 132 OFFCURVE",
"36 108 CURVE SMOOTH",
"44 84 OFFCURVE",
"54 63 OFFCURVE",
"69 46 CURVE SMOOTH",
"84 29 OFFCURVE",
"101 16 OFFCURVE",
"123 7 CURVE SMOOTH",
"145 -2 OFFCURVE",
"169 -6 OFFCURVE",
"197 -6 CURVE SMOOTH",
"216 -6 OFFCURVE",
"235 -5 OFFCURVE",
"252 -1 CURVE SMOOTH",
"269 3 OFFCURVE",
"285 9 OFFCURVE",
"301 17 CURVE SMOOTH",
"317 25 OFFCURVE",
"333 36 OFFCURVE",
"348 48 CURVE SMOOTH",
"363 60 OFFCURVE",
"379 75 OFFCURVE",
"395 92 CURVE",
"384 105 LINE",
"381 108 OFFCURVE",
"378 110 OFFCURVE",
"374 110 CURVE SMOOTH",
"370 110 OFFCURVE",
"366 109 OFFCURVE",
"361 105 CURVE SMOOTH",
"356 101 OFFCURVE",
"350 96 OFFCURVE",
"343 90 CURVE SMOOTH",
"336 84 OFFCURVE",
"329 78 OFFCURVE",
"321 71 CURVE SMOOTH",
"313 64 OFFCURVE",
"302 58 OFFCURVE",
"291 52 CURVE SMOOTH",
"280 46 OFFCURVE",
"267 41 OFFCURVE",
"253 37 CURVE SMOOTH",
"239 33 OFFCURVE",
"223 31 OFFCURVE",
"205 31 CURVE SMOOTH",
"160 31 OFFCURVE",
"126 45 OFFCURVE",
"104 73 CURVE SMOOTH",
"82 101 OFFCURVE",
"70 140 OFFCURVE",
"70 190 CURVE SMOOTH",
"70 197 OFFCURVE",
"71 203 OFFCURVE",
"71 210 CURVE SMOOTH",
"71 217 OFFCURVE",
"71 224 OFFCURVE",
"72 231 CURVE",
"119 236 OFFCURVE",
"159 241 OFFCURVE",
"194 248 CURVE SMOOTH",
"229 254 OFFCURVE",
"259 262 OFFCURVE",
"284 270 CURVE SMOOTH",
"309 278 OFFCURVE",
"329 287 OFFCURVE",
"345 297 CURVE SMOOTH",
"361 307 OFFCURVE",
"374 317 OFFCURVE",
"383 328 CURVE SMOOTH",
"392 339 OFFCURVE",
"399 351 OFFCURVE",
"403 363 CURVE SMOOTH",
"407 375 OFFCURVE",
"408 388 OFFCURVE",
"408 402 CURVE SMOOTH"
);
},
{
closed = 1;
nodes = (
"290 469 OFFCURVE",
"305 468 OFFCURVE",
"317 463 CURVE",
"329 459 OFFCURVE",
"339 453 OFFCURVE",
"346 446 CURVE SMOOTH",
"353 439 OFFCURVE",
"358 432 OFFCURVE",
"361 424 CURVE SMOOTH",
"364 416 OFFCURVE",
"366 408 OFFCURVE",
"366 401 CURVE SMOOTH",
"366 391 OFFCURVE",
"364 382 OFFCURVE",
"362 373 CURVE SMOOTH",
"360 364 OFFCURVE",
"355 355 OFFCURVE",
"348 347 CURVE",
"341 338 OFFCURVE",
"330 330 OFFCURVE",
"317 322 CURVE SMOOTH",
"304 314 OFFCURVE",
"286 307 OFFCURVE",
"265 300 CURVE SMOOTH",
"244 293 OFFCURVE",
"218 286 OFFCURVE",
"187 280 CURVE SMOOTH",
"156 274 OFFCURVE",
"120 269 OFFCURVE",
"78 264 CURVE",
"83 291 OFFCURVE",
"91 317 OFFCURVE",
"102 342 CURVE SMOOTH",
"113 367 OFFCURVE",
"127 388 OFFCURVE",
"144 407 CURVE SMOOTH",
"161 426 OFFCURVE",
"180 441 OFFCURVE",
"201 452 CURVE SMOOTH",
"223 463 OFFCURVE",
"246 469 OFFCURVE",
"273 469 CURVE SMOOTH"
);
},
{
closed = 1;
nodes = (
"177 716 LINE",
"270 589 LINE",
"272 586 OFFCURVE",
"274 583 OFFCURVE",
"277 582 CURVE SMOOTH",
"280 581 OFFCURVE",
"283 580 OFFCURVE",
"287 580 CURVE SMOOTH",
"314 580 LINE",
"250 700 LINE SMOOTH",
"247 706 OFFCURVE",
"244 710 OFFCURVE",
"240 712 CURVE SMOOTH",
"236 714 OFFCURVE",
"231 716 OFFCURVE",
"223 716 CURVE SMOOTH"
);
}
);
width = 434;
}
);
note = egrave;
unicode = 00E8;
},
{
glyphname = eacute;
layers = (
{
layerId = "18B4A443-2C69-4DCB-9619-77A7DD6AC8EC";
name = Light;
paths = (
{
closed = 1;
nodes = (
"408 412 OFFCURVE",
"406 424 OFFCURVE",
"401 436 CURVE SMOOTH",
"396 448 OFFCURVE",
"389 459 OFFCURVE",
"378 469 CURVE",
"368 479 OFFCURVE",
"354 487 OFFCURVE",
"337 494 CURVE SMOOTH",
"320 501 OFFCURVE",
"299 504 OFFCURVE",
"275 504 CURVE SMOOTH",
"249 504 OFFCURVE",
"225 500 OFFCURVE",
"202 491 CURVE SMOOTH",
"179 482 OFFCURVE",
"159 471 OFFCURVE",
"140 456 CURVE SMOOTH",
"121 441 OFFCURVE",
"104 423 OFFCURVE",
"90 403 CURVE SMOOTH",
"76 383 OFFCURVE",
"64 360 OFFCURVE",
"54 337 CURVE SMOOTH",
"44 314 OFFCURVE",
"37 289 OFFCURVE",
"32 264 CURVE SMOOTH",
"27 239 OFFCURVE",
"24 214 OFFCURVE",
"24 189 CURVE SMOOTH",
"24 159 OFFCURVE",
"28 132 OFFCURVE",
"36 108 CURVE SMOOTH",
"44 84 OFFCURVE",
"54 63 OFFCURVE",
"69 46 CURVE SMOOTH",
"84 29 OFFCURVE",
"101 16 OFFCURVE",
"123 7 CURVE SMOOTH",
"145 -2 OFFCURVE",
"169 -6 OFFCURVE",
"197 -6 CURVE SMOOTH",
"216 -6 OFFCURVE",
"235 -5 OFFCURVE",
"252 -1 CURVE SMOOTH",
"269 3 OFFCURVE",
"285 9 OFFCURVE",
"301 17 CURVE SMOOTH",
"317 25 OFFCURVE",
"333 36 OFFCURVE",
"348 48 CURVE SMOOTH",
"363 60 OFFCURVE",
"379 75 OFFCURVE",
"395 92 CURVE",
"384 105 LINE",
"381 108 OFFCURVE",
"378 110 OFFCURVE",
"374 110 CURVE SMOOTH",
"370 110 OFFCURVE",
"366 109 OFFCURVE",
"361 105 CURVE SMOOTH",
"356 101 OFFCURVE",
"350 96 OFFCURVE",
"343 90 CURVE SMOOTH",
"336 84 OFFCURVE",
"329 78 OFFCURVE",
"321 71 CURVE SMOOTH",
"313 64 OFFCURVE",
"302 58 OFFCURVE",
"291 52 CURVE SMOOTH",
"280 46 OFFCURVE",
"267 41 OFFCURVE",
"253 37 CURVE SMOOTH",
"239 33 OFFCURVE",
"223 31 OFFCURVE",
"205 31 CURVE SMOOTH",
"160 31 OFFCURVE",
"126 45 OFFCURVE",
"104 73 CURVE SMOOTH",
"82 101 OFFCURVE",
"70 140 OFFCURVE",
"70 190 CURVE SMOOTH",
"70 197 OFFCURVE",
"71 203 OFFCURVE",
"71 210 CURVE SMOOTH",
"71 217 OFFCURVE",
"71 224 OFFCURVE",
"72 231 CURVE",
"119 236 OFFCURVE",
"159 241 OFFCURVE",
"194 248 CURVE SMOOTH",
"229 254 OFFCURVE",
"259 262 OFFCURVE",
"284 270 CURVE SMOOTH",
"309 278 OFFCURVE",
"329 287 OFFCURVE",
"345 297 CURVE SMOOTH",
"361 307 OFFCURVE",
"374 317 OFFCURVE",
"383 328 CURVE SMOOTH",
"392 339 OFFCURVE",
"399 351 OFFCURVE",
"403 363 CURVE SMOOTH",
"407 375 OFFCURVE",
"408 388 OFFCURVE",
"408 402 CURVE SMOOTH"
);
},
{
closed = 1;
nodes = (
"290 469 OFFCURVE",
"305 468 OFFCURVE",
"317 463 CURVE",
"329 459 OFFCURVE",
"339 453 OFFCURVE",
"346 446 CURVE SMOOTH",
"353 439 OFFCURVE",
"358 432 OFFCURVE",
"361 424 CURVE SMOOTH",
"364 416 OFFCURVE",
"366 408 OFFCURVE",
"366 401 CURVE SMOOTH",
"366 391 OFFCURVE",
"364 382 OFFCURVE",
"362 373 CURVE SMOOTH",
"360 364 OFFCURVE",
"355 355 OFFCURVE",
"348 347 CURVE",
"341 338 OFFCURVE",
"330 330 OFFCURVE",
"317 322 CURVE SMOOTH",
"304 314 OFFCURVE",
"286 307 OFFCURVE",
"265 300 CURVE SMOOTH",
"244 293 OFFCURVE",
"218 286 OFFCURVE",
"187 280 CURVE SMOOTH",
"156 274 OFFCURVE",
"120 269 OFFCURVE",
"78 264 CURVE",
"83 291 OFFCURVE",
"91 317 OFFCURVE",
"102 342 CURVE SMOOTH",
"113 367 OFFCURVE",
"127 388 OFFCURVE",
"144 407 CURVE SMOOTH",
"161 426 OFFCURVE",
"180 441 OFFCURVE",
"201 452 CURVE SMOOTH",
"223 463 OFFCURVE",
"246 469 OFFCURVE",
"273 469 CURVE SMOOTH"
);
},
{
closed = 1;
nodes = (
"392 716 LINE",
"345 716 LINE SMOOTH",
"337 716 OFFCURVE",
"331 714 OFFCURVE",
"327 712 CURVE SMOOTH",
"323 710 OFFCURVE",
"318 706 OFFCURVE",
"314 700 CURVE",
"221 580 LINE",
"249 580 LINE SMOOTH",
"253 580 OFFCURVE",
"257 581 OFFCURVE",
"260 582 CURVE SMOOTH",
"263 583 OFFCURVE",
"266 586 OFFCURVE",
"269 589 CURVE SMOOTH"
);
}
);
width = 434;
}
);
note = eacute;
unicode = 00E9;
},
{
glyphname = ecircumflex;
layers = (
{
layerId = "18B4A443-2C69-4DCB-9619-77A7DD6AC8EC";
name = Light;
paths = (
{
closed = 1;
nodes = (
"408 412 OFFCURVE",
"406 424 OFFCURVE",
"401 436 CURVE SMOOTH",
"396 448 OFFCURVE",
"389 459 OFFCURVE",
"378 469 CURVE",
"368 479 OFFCURVE",
"354 487 OFFCURVE",
"337 494 CURVE SMOOTH",
"320 501 OFFCURVE",
"299 504 OFFCURVE",
"275 504 CURVE SMOOTH",
"249 504 OFFCURVE",
"225 500 OFFCURVE",
"202 491 CURVE SMOOTH",
"179 482 OFFCURVE",
"159 471 OFFCURVE",
"140 456 CURVE SMOOTH",
"121 441 OFFCURVE",
"104 423 OFFCURVE",
"90 403 CURVE SMOOTH",
"76 383 OFFCURVE",
"64 360 OFFCURVE",
"54 337 CURVE SMOOTH",
"44 314 OFFCURVE",
"37 289 OFFCURVE",
"32 264 CURVE SMOOTH",
"27 239 OFFCURVE",
"24 214 OFFCURVE",
"24 189 CURVE SMOOTH",
"24 159 OFFCURVE",
"28 132 OFFCURVE",
"36 108 CURVE SMOOTH",
"44 84 OFFCURVE",
"54 63 OFFCURVE",
"69 46 CURVE SMOOTH",
"84 29 OFFCURVE",
"101 16 OFFCURVE",
"123 7 CURVE SMOOTH",
"145 -2 OFFCURVE",
"169 -6 OFFCURVE",
"197 -6 CURVE SMOOTH",
"216 -6 OFFCURVE",
"235 -5 OFFCURVE",
"252 -1 CURVE SMOOTH",
"269 3 OFFCURVE",
"285 9 OFFCURVE",
"301 17 CURVE SMOOTH",
"317 25 OFFCURVE",
"333 36 OFFCURVE",
"348 48 CURVE SMOOTH",
"363 60 OFFCURVE",
"379 75 OFFCURVE",
"395 92 CURVE",
"384 105 LINE",
"381 108 OFFCURVE",
"378 110 OFFCURVE",
"374 110 CURVE SMOOTH",
"370 110 OFFCURVE",
"366 109 OFFCURVE",
"361 105 CURVE SMOOTH",
"356 101 OFFCURVE",
"350 96 OFFCURVE",
"343 90 CURVE SMOOTH",
"336 84 OFFCURVE",
"329 78 OFFCURVE",
"321 71 CURVE SMOOTH",
"313 64 OFFCURVE",
"302 58 OFFCURVE",
"291 52 CURVE SMOOTH",
"280 46 OFFCURVE",
"267 41 OFFCURVE",
"253 37 CURVE SMOOTH",
"239 33 OFFCURVE",
"223 31 OFFCURVE",
"205 31 CURVE SMOOTH",
"160 31 OFFCURVE",
"126 45 OFFCURVE",
"104 73 CURVE SMOOTH",
"82 101 OFFCURVE",
"70 140 OFFCURVE",
"70 190 CURVE SMOOTH",
"70 197 OFFCURVE",
"71 203 OFFCURVE",
"71 210 CURVE SMOOTH",
"71 217 OFFCURVE",
"71 224 OFFCURVE",
"72 231 CURVE",
"119 236 OFFCURVE",
"159 241 OFFCURVE",
"194 248 CURVE SMOOTH",
"229 254 OFFCURVE",
"259 262 OFFCURVE",
"284 270 CURVE SMOOTH",
"309 278 OFFCURVE",
"329 287 OFFCURVE",
"345 297 CURVE SMOOTH",
"361 307 OFFCURVE",
"374 317 OFFCURVE",
"383 328 CURVE SMOOTH",
"392 339 OFFCURVE",
"399 351 OFFCURVE",
"403 363 CURVE SMOOTH",
"407 375 OFFCURVE",
"408 388 OFFCURVE",
"408 402 CURVE SMOOTH"
);
},
{
closed = 1;
nodes = (
"290 469 OFFCURVE",
"305 468 OFFCURVE",
"317 463 CURVE",
"329 459 OFFCURVE",
"339 453 OFFCURVE",
"346 446 CURVE SMOOTH",
"353 439 OFFCURVE",
"358 432 OFFCURVE",
"361 424 CURVE SMOOTH",
"364 416 OFFCURVE",
"366 408 OFFCURVE",
"366 401 CURVE SMOOTH",
"366 391 OFFCURVE",
"364 382 OFFCURVE",
"362 373 CURVE SMOOTH",
"360 364 OFFCURVE",
"355 355 OFFCURVE",
"348 347 CURVE",
"341 338 OFFCURVE",
"330 330 OFFCURVE",
"317 322 CURVE SMOOTH",
"304 314 OFFCURVE",
"286 307 OFFCURVE",
"265 300 CURVE SMOOTH",
"244 293 OFFCURVE",
"218 286 OFFCURVE",
"187 280 CURVE SMOOTH",
"156 274 OFFCURVE",
"120 269 OFFCURVE",
"78 264 CURVE",
"83 291 OFFCURVE",
"91 317 OFFCURVE",
"102 342 CURVE SMOOTH",
"113 367 OFFCURVE",
"127 388 OFFCURVE",
"144 407 CURVE SMOOTH",
"161 426 OFFCURVE",
"180 441 OFFCURVE",
"201 452 CURVE SMOOTH",
"223 463 OFFCURVE",
"246 469 OFFCURVE",
"273 469 CURVE SMOOTH"
);
},
{
closed = 1;
nodes = (
"394 584 LINE",
"300 708 LINE",
"258 708 LINE",
"134 584 LINE",
"167 584 LINE SMOOTH",
"170 584 OFFCURVE",
"173 585 OFFCURVE",
"175 586 CURVE SMOOTH",
"177 587 OFFCURVE",
"179 588 OFFCURVE",
"181 590 CURVE",
"270 672 LINE",
"271 673 OFFCURVE",
"272 673 OFFCURVE",
"273 674 CURVE SMOOTH",
"274 675 OFFCURVE",
"274 677 OFFCURVE",
"275 678 CURVE",
"276 676 OFFCURVE",
"278 673 OFFCURVE",
"280 672 CURVE",
"348 590 LINE",
"351 586 OFFCURVE",
"356 584 OFFCURVE",
"361 584 CURVE SMOOTH"
);
}
);
width = 434;
}
);
note = ecircumflex;
unicode = 00EA;
},
{
glyphname = edieresis;
layers = (
{
layerId = "18B4A443-2C69-4DCB-9619-77A7DD6AC8EC";
name = Light;
paths = (
{
closed = 1;
nodes = (
"409 412 OFFCURVE",
"406 424 OFFCURVE",
"401 436 CURVE SMOOTH",
"396 448 OFFCURVE",
"390 459 OFFCURVE",
"379 469 CURVE",
"369 479 OFFCURVE",
"355 487 OFFCURVE",
"338 494 CURVE SMOOTH",
"321 501 OFFCURVE",
"300 504 OFFCURVE",
"276 504 CURVE SMOOTH",
"250 504 OFFCURVE",
"225 500 OFFCURVE",
"202 491 CURVE SMOOTH",
"179 482 OFFCURVE",
"159 471 OFFCURVE",
"140 456 CURVE SMOOTH",
"121 441 OFFCURVE",
"105 423 OFFCURVE",
"91 403 CURVE SMOOTH",
"77 383 OFFCURVE",
"64 360 OFFCURVE",
"54 337 CURVE SMOOTH",
"44 314 OFFCURVE",
"37 289 OFFCURVE",
"32 264 CURVE SMOOTH",
"27 239 OFFCURVE",
"24 214 OFFCURVE",
"24 189 CURVE SMOOTH",
"24 159 OFFCURVE",
"28 132 OFFCURVE",
"36 108 CURVE SMOOTH",
"44 84 OFFCURVE",
"54 63 OFFCURVE",
"69 46 CURVE SMOOTH",
"84 29 OFFCURVE",
"102 16 OFFCURVE",
"124 7 CURVE SMOOTH",
"146 -2 OFFCURVE",
"170 -6 OFFCURVE",
"198 -6 CURVE SMOOTH",
"217 -6 OFFCURVE",
"235 -5 OFFCURVE",
"252 -1 CURVE SMOOTH",
"269 3 OFFCURVE",
"285 9 OFFCURVE",
"301 17 CURVE SMOOTH",
"317 25 OFFCURVE",
"333 36 OFFCURVE",
"348 48 CURVE SMOOTH",
"363 60 OFFCURVE",
"380 75 OFFCURVE",
"396 92 CURVE",
"385 105 LINE",
"382 108 OFFCURVE",
"378 110 OFFCURVE",
"374 110 CURVE SMOOTH",
"370 110 OFFCURVE",
"366 109 OFFCURVE",
"361 105 CURVE SMOOTH",
"356 101 OFFCURVE",
"351 96 OFFCURVE",
"344 90 CURVE SMOOTH",
"337 84 OFFCURVE",
"329 78 OFFCURVE",
"321 71 CURVE SMOOTH",
"313 64 OFFCURVE",
"303 58 OFFCURVE",
"292 52 CURVE SMOOTH",
"281 46 OFFCURVE",
"268 41 OFFCURVE",
"254 37 CURVE SMOOTH",
"240 33 OFFCURVE",
"224 31 OFFCURVE",
"206 31 CURVE SMOOTH",
"161 31 OFFCURVE",
"126 45 OFFCURVE",
"104 73 CURVE SMOOTH",
"82 101 OFFCURVE",
"71 140 OFFCURVE",
"71 190 CURVE SMOOTH",
"71 210 LINE SMOOTH",
"71 217 OFFCURVE",
"72 224 OFFCURVE",
"73 231 CURVE",
"120 236 OFFCURVE",
"160 241 OFFCURVE",
"195 248 CURVE SMOOTH",
"230 254 OFFCURVE",
"259 262 OFFCURVE",
"284 270 CURVE SMOOTH",
"309 278 OFFCURVE",
"330 287 OFFCURVE",
"346 297 CURVE SMOOTH",
"362 307 OFFCURVE",
"375 317 OFFCURVE",
"384 328 CURVE SMOOTH",
"393 339 OFFCURVE",
"399 351 OFFCURVE",
"403 363 CURVE SMOOTH",
"407 375 OFFCURVE",
"409 388 OFFCURVE",
"409 402 CURVE SMOOTH"
);
},
{
closed = 1;
nodes = (
"291 469 OFFCURVE",
"305 468 OFFCURVE",
"317 463 CURVE",
"329 459 OFFCURVE",
"339 453 OFFCURVE",
"346 446 CURVE SMOOTH",
"353 439 OFFCURVE",
"359 432 OFFCURVE",
"362 424 CURVE SMOOTH",
"365 416 OFFCURVE",
"367 408 OFFCURVE",
"367 401 CURVE SMOOTH",
"367 391 OFFCURVE",
"365 382 OFFCURVE",
"363 373 CURVE SMOOTH",
"361 364 OFFCURVE",
"355 355 OFFCURVE",
"348 347 CURVE",
"341 338 OFFCURVE",
"330 330 OFFCURVE",
"317 322 CURVE SMOOTH",
"304 314 OFFCURVE",
"287 307 OFFCURVE",
"266 300 CURVE SMOOTH",
"245 293 OFFCURVE",
"219 286 OFFCURVE",
"188 280 CURVE SMOOTH",
"157 274 OFFCURVE",
"120 269 OFFCURVE",
"78 264 CURVE",
"83 291 OFFCURVE",
"92 317 OFFCURVE",
"103 342 CURVE SMOOTH",
"114 367 OFFCURVE",
"127 388 OFFCURVE",
"144 407 CURVE SMOOTH",
"161 426 OFFCURVE",
"180 441 OFFCURVE",
"201 452 CURVE SMOOTH",
"223 463 OFFCURVE",
"247 469 OFFCURVE",
"274 469 CURVE SMOOTH"
);
},
{
closed = 1;
nodes = (
"229 648 OFFCURVE",
"228 653 OFFCURVE",
"226 658 CURVE SMOOTH",
"224 663 OFFCURVE",
"222 667 OFFCURVE",
"219 671 CURVE SMOOTH",
"216 675 OFFCURVE",
"212 678 OFFCURVE",
"207 680 CURVE SMOOTH",
"202 682 OFFCURVE",
"196 684 OFFCURVE",
"191 684 CURVE SMOOTH",
"186 684 OFFCURVE",
"181 682 OFFCURVE",
"176 680 CURVE SMOOTH",
"171 678 OFFCURVE",
"165 675 OFFCURVE",
"161 671 CURVE SMOOTH",
"157 667 OFFCURVE",
"154 663 OFFCURVE",
"151 658 CURVE SMOOTH",
"148 653 OFFCURVE",
"147 648 OFFCURVE",
"146 642 CURVE SMOOTH",
"145 637 OFFCURVE",
"145 632 OFFCURVE",
"147 627 CURVE SMOOTH",
"149 622 OFFCURVE",
"151 618 OFFCURVE",
"154 614 CURVE SMOOTH",
"157 610 OFFCURVE",
"161 607 OFFCURVE",
"166 605 CURVE SMOOTH",
"171 603 OFFCURVE",
"176 602 OFFCURVE",
"181 602 CURVE SMOOTH",
"186 602 OFFCURVE",
"192 603 OFFCURVE",
"197 605 CURVE SMOOTH",
"202 607 OFFCURVE",
"208 610 OFFCURVE",
"212 614 CURVE SMOOTH",
"216 618 OFFCURVE",
"219 622 OFFCURVE",
"222 627 CURVE SMOOTH",
"225 632 OFFCURVE",
"227 637 OFFCURVE",
"228 642 CURVE SMOOTH"
);
},
{
closed = 1;
nodes = (
"400 648 OFFCURVE",
"400 653 OFFCURVE",
"398 658 CURVE SMOOTH",
"396 663 OFFCURVE",
"393 667 OFFCURVE",
"390 671 CURVE SMOOTH",
"387 675 OFFCURVE",
"383 678 OFFCURVE",
"378 680 CURVE SMOOTH",
"373 682 OFFCURVE",
"368 684 OFFCURVE",
"363 684 CURVE SMOOTH",
"357 684 OFFCURVE",
"352 682 OFFCURVE",
"347 680 CURVE SMOOTH",
"342 678 OFFCURVE",
"336 675 OFFCURVE",
"332 671 CURVE SMOOTH",
"328 667 OFFCURVE",
"325 663 OFFCURVE",
"322 658 CURVE SMOOTH",
"319 653 OFFCURVE",
"318 648 OFFCURVE",
"317 642 CURVE SMOOTH",
"316 637 OFFCURVE",
"316 632 OFFCURVE",
"318 627 CURVE SMOOTH",
"320 622 OFFCURVE",
"322 618 OFFCURVE",
"325 614 CURVE SMOOTH",
"328 610 OFFCURVE",
"332 607 OFFCURVE",
"337 605 CURVE SMOOTH",
"342 603 OFFCURVE",
"347 602 OFFCURVE",
"353 602 CURVE SMOOTH",
"358 602 OFFCURVE",
"364 603 OFFCURVE",
"369 605 CURVE SMOOTH",
"374 607 OFFCURVE",
"379 610 OFFCURVE",
"383 614 CURVE SMOOTH",
"387 618 OFFCURVE",
"391 622 OFFCURVE",
"394 627 CURVE SMOOTH",
"397 632 OFFCURVE",
"398 637 OFFCURVE",
"399 642 CURVE SMOOTH"
);
}
);
width = 437;
}
);
note = edieresis;
unicode = 00EB;
},
{
glyphname = igrave;
layers = (
{
layerId = "18B4A443-2C69-4DCB-9619-77A7DD6AC8EC";
name = Light;
paths = (
{
closed = 1;
nodes = (
"151 38 LINE",
"143 38 LINE SMOOTH",
"140 38 OFFCURVE",
"135 39 OFFCURVE",
"128 39 CURVE SMOOTH",
"121 39 OFFCURVE",
"113 40 OFFCURVE",
"104 40 CURVE",
"160 498 LINE",
"113 498 LINE",
"41 498 LINE",
"38 478 LINE",
"37 467 OFFCURVE",
"43 461 OFFCURVE",
"56 460 CURVE",
"61 460 LINE SMOOTH",
"63 460 OFFCURVE",
"66 459 OFFCURVE",
"69 459 CURVE SMOOTH",
"84 459 LINE SMOOTH",
"91 459 OFFCURVE",
"99 458 OFFCURVE",
"108 458 CURVE",
"62 80 LINE",
"52 0 LINE",
"99 0 LINE",
"172 0 LINE",
"174 20 LINE SMOOTH",
"175 31 OFFCURVE",
"169 37 OFFCURVE",
"156 38 CURVE"
);
},
{
closed = 1;
nodes = (
"62 716 LINE",
"155 589 LINE",
"157 586 OFFCURVE",
"160 583 OFFCURVE",
"163 582 CURVE SMOOTH",
"166 581 OFFCURVE",
"169 580 OFFCURVE",
"173 580 CURVE SMOOTH",
"200 580 LINE",
"136 700 LINE SMOOTH",
"133 706 OFFCURVE",
"130 710 OFFCURVE",
"126 712 CURVE SMOOTH",
"122 714 OFFCURVE",
"116 716 OFFCURVE",
"108 716 CURVE SMOOTH"
);
}
);
width = 216;
}
);
note = igrave;
unicode = 00EC;
},
{
glyphname = iacute;
layers = (
{
layerId = "18B4A443-2C69-4DCB-9619-77A7DD6AC8EC";
name = Light;
paths = (
{
closed = 1;
nodes = (
"148 38 LINE",
"140 38 LINE SMOOTH",
"137 38 OFFCURVE",
"132 39 OFFCURVE",
"125 39 CURVE SMOOTH",
"118 39 OFFCURVE",
"110 40 OFFCURVE",
"101 40 CURVE",
"157 498 LINE",
"110 498 LINE",
"38 498 LINE",
"35 478 LINE",
"34 467 OFFCURVE",
"40 461 OFFCURVE",
"53 460 CURVE",
"58 460 LINE SMOOTH",
"60 460 OFFCURVE",
"63 459 OFFCURVE",
"66 459 CURVE SMOOTH",
"81 459 LINE SMOOTH",
"88 459 OFFCURVE",
"96 458 OFFCURVE",
"105 458 CURVE",
"59 80 LINE",
"49 0 LINE",
"96 0 LINE",
"169 0 LINE",
"171 20 LINE SMOOTH",
"172 31 OFFCURVE",
"166 37 OFFCURVE",
"153 38 CURVE"
);
},
{
closed = 1;
nodes = (
"274 716 LINE",
"227 716 LINE SMOOTH",
"219 716 OFFCURVE",
"212 714 OFFCURVE",
"208 712 CURVE SMOOTH",
"204 710 OFFCURVE",
"199 706 OFFCURVE",
"195 700 CURVE",
"102 580 LINE",
"131 580 LINE SMOOTH",
"135 580 OFFCURVE",
"138 581 OFFCURVE",
"141 582 CURVE SMOOTH",
"144 583 OFFCURVE",
"147 586 OFFCURVE",
"150 589 CURVE SMOOTH"
);
}
);
width = 279;
}
);
note = iacute;
unicode = 00ED;
},
{
glyphname = icircumflex;
layers = (
{
layerId = "18B4A443-2C69-4DCB-9619-77A7DD6AC8EC";
name = Light;
paths = (
{
closed = 1;
nodes = (
"155 38 LINE",
"147 38 LINE SMOOTH",
"144 38 OFFCURVE",
"139 39 OFFCURVE",
"132 39 CURVE SMOOTH",
"125 39 OFFCURVE",
"117 40 OFFCURVE",
"108 40 CURVE",
"164 498 LINE",
"117 498 LINE",
"45 498 LINE",
"42 478 LINE",
"41 467 OFFCURVE",
"47 461 OFFCURVE",
"60 460 CURVE",
"65 460 LINE SMOOTH",
"67 460 OFFCURVE",
"70 459 OFFCURVE",
"73 459 CURVE SMOOTH",
"88 459 LINE SMOOTH",
"95 459 OFFCURVE",
"103 458 OFFCURVE",
"112 458 CURVE",
"66 80 LINE",
"56 0 LINE",
"103 0 LINE",
"175 0 LINE",
"178 20 LINE",
"179 31 OFFCURVE",
"173 37 OFFCURVE",
"160 38 CURVE"
);
},
{
closed = 1;
nodes = (
"287 584 LINE",
"194 708 LINE",
"151 708 LINE",
"27 584 LINE",
"60 584 LINE SMOOTH",
"63 584 OFFCURVE",
"66 585 OFFCURVE",
"68 586 CURVE SMOOTH",
"70 587 OFFCURVE",
"73 588 OFFCURVE",
"75 590 CURVE",
"163 672 LINE",
"164 673 OFFCURVE",
"165 673 OFFCURVE",
"166 674 CURVE SMOOTH",
"167 675 OFFCURVE",
"168 677 OFFCURVE",
"169 678 CURVE",
"170 676 OFFCURVE",
"172 673 OFFCURVE",
"174 672 CURVE",
"242 590 LINE",
"245 586 OFFCURVE",
"249 584 OFFCURVE",
"254 584 CURVE SMOOTH"
);
}
);
width = 291;
}
);
note = icircumflex;
unicode = 00EE;
},
{
glyphname = idieresis;
layers = (
{
layerId = "18B4A443-2C69-4DCB-9619-77A7DD6AC8EC";
name = Light;
paths = (
{
closed = 1;
nodes = (
"163 38 LINE",
"156 38 LINE SMOOTH",
"153 38 OFFCURVE",
"148 39 OFFCURVE",
"141 39 CURVE SMOOTH",
"134 39 OFFCURVE",
"125 40 OFFCURVE",
"116 40 CURVE",
"173 498 LINE",
"125 498 LINE",
"53 498 LINE",
"50 478 LINE",
"49 467 OFFCURVE",
"55 461 OFFCURVE",
"68 460 CURVE",
"73 460 LINE SMOOTH",
"75 460 OFFCURVE",
"78 459 OFFCURVE",
"81 459 CURVE SMOOTH",
"96 459 LINE SMOOTH",
"103 459 OFFCURVE",
"111 458 OFFCURVE",
"120 458 CURVE",
"74 80 LINE",
"64 0 LINE",
"111 0 LINE",
"184 0 LINE",
"186 20 LINE SMOOTH",
"187 31 OFFCURVE",
"181 37 OFFCURVE",
"168 38 CURVE"
);
},
{
closed = 1;
nodes = (
"133 648 OFFCURVE",
"132 653 OFFCURVE",
"130 658 CURVE SMOOTH",
"128 663 OFFCURVE",
"126 667 OFFCURVE",
"123 671 CURVE SMOOTH",
"120 675 OFFCURVE",
"116 678 OFFCURVE",
"111 680 CURVE SMOOTH",
"106 682 OFFCURVE",
"100 684 OFFCURVE",
"95 684 CURVE SMOOTH",
"90 684 OFFCURVE",
"85 682 OFFCURVE",
"80 680 CURVE SMOOTH",
"75 678 OFFCURVE",
"70 675 OFFCURVE",
"66 671 CURVE SMOOTH",
"62 667 OFFCURVE",
"58 663 OFFCURVE",
"55 658 CURVE SMOOTH",
"52 653 OFFCURVE",
"51 648 OFFCURVE",
"50 642 CURVE SMOOTH",
"49 637 OFFCURVE",
"49 632 OFFCURVE",
"51 627 CURVE SMOOTH",
"53 622 OFFCURVE",
"56 618 OFFCURVE",
"59 614 CURVE SMOOTH",
"62 610 OFFCURVE",
"66 607 OFFCURVE",
"71 605 CURVE SMOOTH",
"76 603 OFFCURVE",
"80 602 OFFCURVE",
"85 602 CURVE SMOOTH",
"90 602 OFFCURVE",
"97 603 OFFCURVE",
"102 605 CURVE SMOOTH",
"107 607 OFFCURVE",
"112 610 OFFCURVE",
"116 614 CURVE SMOOTH",
"120 618 OFFCURVE",
"123 622 OFFCURVE",
"126 627 CURVE SMOOTH",
"129 632 OFFCURVE",
"131 637 OFFCURVE",
"132 642 CURVE SMOOTH"
);
},
{
closed = 1;
nodes = (
"304 648 OFFCURVE",
"304 653 OFFCURVE",
"302 658 CURVE SMOOTH",
"300 663 OFFCURVE",
"297 667 OFFCURVE",
"294 671 CURVE SMOOTH",
"291 675 OFFCURVE",
"287 678 OFFCURVE",
"282 680 CURVE SMOOTH",
"277 682 OFFCURVE",
"272 683 OFFCURVE",
"267 683 CURVE SMOOTH",
"261 683 OFFCURVE",
"256 682 OFFCURVE",
"251 680 CURVE SMOOTH",
"246 678 OFFCURVE",
"241 675 OFFCURVE",
"237 671 CURVE SMOOTH",
"233 667 OFFCURVE",
"229 663 OFFCURVE",
"226 658 CURVE SMOOTH",
"223 653 OFFCURVE",
"222 648 OFFCURVE",
"221 642 CURVE SMOOTH",
"220 637 OFFCURVE",
"220 632 OFFCURVE",
"222 627 CURVE SMOOTH",
"224 622 OFFCURVE",
"227 618 OFFCURVE",
"230 614 CURVE SMOOTH",
"233 610 OFFCURVE",
"237 607 OFFCURVE",
"242 605 CURVE SMOOTH",
"247 603 OFFCURVE",
"251 602 OFFCURVE",
"257 602 CURVE SMOOTH",
"262 602 OFFCURVE",
"268 603 OFFCURVE",
"273 605 CURVE SMOOTH",
"278 607 OFFCURVE",
"283 610 OFFCURVE",
"287 614 CURVE SMOOTH",
"291 618 OFFCURVE",
"295 622 OFFCURVE",
"298 627 CURVE SMOOTH",
"301 632 OFFCURVE",
"302 637 OFFCURVE",
"303 642 CURVE SMOOTH"
);
}
);
width = 310;
}
);
note = idieresis;
unicode = 00EF;
},
{
color = 4;
glyphname = eth;
lastChange = "2015-10-09 07:33:52 +0000";
layers = (
{
layerId = "18B4A443-2C69-4DCB-9619-77A7DD6AC8EC";
name = Light;
paths = (
{
closed = 1;
nodes = (
"251 521 LINE",
"342 594 LINE",
"420 536 OFFCURVE",
"447 448 OFFCURVE",
"444 344 CURVE",
"416 415 OFFCURVE",
"353 460 OFFCURVE",
"270 460 CURVE SMOOTH",
"137 460 OFFCURVE",
"41 361 OFFCURVE",
"24 228 CURVE SMOOTH",
"9 93 OFFCURVE",
"83 -6 OFFCURVE",
"214 -6 CURVE SMOOTH",
"372 -6 OFFCURVE",
"458 120 OFFCURVE",
"481 300 CURVE SMOOTH",
"497 423 OFFCURVE",
"472 538 OFFCURVE",
"376 619 CURVE",
"440 669 LINE SMOOTH",
"444 672 OFFCURVE",
"449 679 OFFCURVE",
"446 688 CURVE",
"439 703 LINE",
"354 635 LINE",
"307 666 OFFCURVE",
"250 686 OFFCURVE",
"190 696 CURVE",
"180 674 LINE",
"177 665 OFFCURVE",
"182 659 OFFCURVE",
"192 656 CURVE",
"235 647 OFFCURVE",
"283 630 OFFCURVE",
"319 609 CURVE",
"250 554 LINE",
"243 547 OFFCURVE",
"242 544 OFFCURVE",
"245 535 CURVE"
);
},
{
closed = 1;
nodes = (
"117 32 OFFCURVE",
"58 114 OFFCURVE",
"72 228 CURVE SMOOTH",
"84 337 OFFCURVE",
"158 423 OFFCURVE",
"273 423 CURVE SMOOTH",
"358 423 OFFCURVE",
"419 367 OFFCURVE",
"434 282 CURVE",
"412 140 OFFCURVE",
"347 32 OFFCURVE",
"220 32 CURVE SMOOTH"
);
}
);
width = 520;
}
);
note = eth;
unicode = 00F0;
},
{
glyphname = ntilde;
layers = (
{
layerId = "18B4A443-2C69-4DCB-9619-77A7DD6AC8EC";
name = Light;
paths = (
{
closed = 1;
nodes = (
"492 38 LINE",
"485 38 LINE SMOOTH",
"482 38 OFFCURVE",
"476 39 OFFCURVE",
"469 39 CURVE SMOOTH",
"462 39 OFFCURVE",
"454 40 OFFCURVE",
"445 40 CURVE",
"479 318 LINE SMOOTH",
"483 347 OFFCURVE",
"482 373 OFFCURVE",
"478 396 CURVE SMOOTH",
"474 419 OFFCURVE",
"467 439 OFFCURVE",
"455 455 CURVE SMOOTH",
"443 471 OFFCURVE",
"428 483 OFFCURVE",
"408 492 CURVE SMOOTH",
"388 501 OFFCURVE",
"364 505 OFFCURVE",
"337 505 CURVE SMOOTH",
"300 505 OFFCURVE",
"265 497 OFFCURVE",
"233 479 CURVE SMOOTH",
"201 461 OFFCURVE",
"171 439 OFFCURVE",
"145 410 CURVE",
"150 485 LINE",
"150 493 OFFCURVE",
"145 497 OFFCURVE",
"136 497 CURVE SMOOTH",
"110 497 LINE",
"38 497 LINE",
"36 478 LINE SMOOTH",
"35 467 OFFCURVE",
"40 461 OFFCURVE",
"53 460 CURVE",
"59 460 LINE SMOOTH",
"61 460 OFFCURVE",
"63 459 OFFCURVE",
"66 459 CURVE SMOOTH",
"81 459 LINE SMOOTH",
"88 459 OFFCURVE",
"97 458 OFFCURVE",
"106 458 CURVE",
"54 40 LINE",
"54 40 LINE",
"49 0 LINE",
"49 0 LINE",
"97 0 LINE",
"108 94 LINE",
"143 373 LINE",
"169 402 OFFCURVE",
"196 425 OFFCURVE",
"226 442 CURVE SMOOTH",
"256 459 OFFCURVE",
"287 467 OFFCURVE",
"320 467 CURVE SMOOTH",
"364 467 OFFCURVE",
"395 454 OFFCURVE",
"413 428 CURVE SMOOTH",
"431 401 OFFCURVE",
"438 365 OFFCURVE",
"432 318 CURVE SMOOTH",
"393 0 LINE",
"440 0 LINE",
"513 0 LINE",
"515 20 LINE SMOOTH",
"516 31 OFFCURVE",
"510 37 OFFCURVE",
"497 38 CURVE"
);
},
{
closed = 1;
nodes = (
"370 640 OFFCURVE",
"362 642 OFFCURVE",
"354 648 CURVE SMOOTH",
"330 666 LINE SMOOTH",
"322 672 OFFCURVE",
"314 678 OFFCURVE",
"305 684 CURVE SMOOTH",
"296 690 OFFCURVE",
"285 692 OFFCURVE",
"274 692 CURVE SMOOTH",
"263 692 OFFCURVE",
"253 690 OFFCURVE",
"243 686 CURVE SMOOTH",
"233 682 OFFCURVE",
"224 676 OFFCURVE",
"217 668 CURVE SMOOTH",
"210 660 OFFCURVE",
"204 652 OFFCURVE",
"199 641 CURVE",
"194 631 OFFCURVE",
"191 619 OFFCURVE",
"190 607 CURVE",
"221 607 LINE",
"224 622 OFFCURVE",
"229 634 OFFCURVE",
"237 644 CURVE SMOOTH",
"245 654 OFFCURVE",
"257 658 OFFCURVE",
"271 658 CURVE SMOOTH",
"280 658 OFFCURVE",
"288 656 OFFCURVE",
"296 650 CURVE SMOOTH",
"320 632 LINE SMOOTH",
"328 626 OFFCURVE",
"337 620 OFFCURVE",
"346 614 CURVE SMOOTH",
"355 608 OFFCURVE",
"365 605 OFFCURVE",
"376 605 CURVE SMOOTH",
"387 605 OFFCURVE",
"397 608 OFFCURVE",
"407 612 CURVE SMOOTH",
"417 616 OFFCURVE",
"425 622 OFFCURVE",
"432 630 CURVE SMOOTH",
"439 638 OFFCURVE",
"446 647 OFFCURVE",
"450 657 CURVE SMOOTH",
"454 667 OFFCURVE",
"458 679 OFFCURVE",
"459 691 CURVE",
"429 691 LINE",
"427 675 OFFCURVE",
"421 663 OFFCURVE",
"413 654 CURVE SMOOTH",
"405 645 OFFCURVE",
"393 640 OFFCURVE",
"379 640 CURVE SMOOTH"
);
}
);
width = 562;
}
);
note = ntilde;
unicode = 00F1;
},
{
glyphname = ograve;
layers = (
{
layerId = "18B4A443-2C69-4DCB-9619-77A7DD6AC8EC";
name = Light;
paths = (
{
closed = 1;
nodes = (
"250 506 OFFCURVE",
"218 499 OFFCURVE",
"188 487 CURVE SMOOTH",
"158 475 OFFCURVE",
"132 458 OFFCURVE",
"110 436 CURVE SMOOTH",
"88 414 OFFCURVE",
"70 387 OFFCURVE",
"56 355 CURVE SMOOTH",
"42 323 OFFCURVE",
"33 288 OFFCURVE",
"28 249 CURVE SMOOTH",
"23 210 OFFCURVE",
"24 175 OFFCURVE",
"30 144 CURVE SMOOTH",
"36 113 OFFCURVE",
"48 85 OFFCURVE",
"65 63 CURVE SMOOTH",
"82 41 OFFCURVE",
"103 24 OFFCURVE",
"130 12 CURVE SMOOTH",
"157 0 OFFCURVE",
"187 -6 OFFCURVE",
"223 -6 CURVE SMOOTH",
"259 -6 OFFCURVE",
"291 0 OFFCURVE",
"321 12 CURVE SMOOTH",
"351 24 OFFCURVE",
"377 41 OFFCURVE",
"399 63 CURVE SMOOTH",
"421 85 OFFCURVE",
"439 113 OFFCURVE",
"453 144 CURVE SMOOTH",
"467 175 OFFCURVE",
"476 210 OFFCURVE",
"481 249 CURVE SMOOTH",
"486 288 OFFCURVE",
"485 323 OFFCURVE",
"479 355 CURVE SMOOTH",
"473 387 OFFCURVE",
"461 414 OFFCURVE",
"444 436 CURVE SMOOTH",
"427 458 OFFCURVE",
"407 475 OFFCURVE",
"380 487 CURVE SMOOTH",
"353 499 OFFCURVE",
"322 506 OFFCURVE",
"286 506 CURVE SMOOTH"
);
},
{
closed = 1;
nodes = (
"198 31 OFFCURVE",
"173 36 OFFCURVE",
"152 46 CURVE SMOOTH",
"131 56 OFFCURVE",
"114 71 OFFCURVE",
"102 90 CURVE SMOOTH",
"90 109 OFFCURVE",
"81 132 OFFCURVE",
"77 159 CURVE SMOOTH",
"73 186 OFFCURVE",
"73 216 OFFCURVE",
"77 249 CURVE SMOOTH",
"81 282 OFFCURVE",
"88 312 OFFCURVE",
"99 339 CURVE SMOOTH",
"110 366 OFFCURVE",
"124 389 OFFCURVE",
"141 408 CURVE SMOOTH",
"158 427 OFFCURVE",
"179 443 OFFCURVE",
"202 453 CURVE SMOOTH",
"225 463 OFFCURVE",
"251 468 OFFCURVE",
"281 468 CURVE SMOOTH",
"311 468 OFFCURVE",
"336 463 OFFCURVE",
"357 453 CURVE SMOOTH",
"378 443 OFFCURVE",
"395 427 OFFCURVE",
"407 408 CURVE SMOOTH",
"419 389 OFFCURVE",
"428 366 OFFCURVE",
"432 339 CURVE SMOOTH",
"436 312 OFFCURVE",
"436 282 OFFCURVE",
"432 249 CURVE SMOOTH",
"428 216 OFFCURVE",
"421 186 OFFCURVE",
"410 159 CURVE SMOOTH",
"399 132 OFFCURVE",
"385 109 OFFCURVE",
"368 90 CURVE SMOOTH",
"351 71 OFFCURVE",
"330 56 OFFCURVE",
"307 46 CURVE SMOOTH",
"284 36 OFFCURVE",
"258 31 OFFCURVE",
"228 31 CURVE SMOOTH"
);
},
{
closed = 1;
nodes = (
"209 716 LINE",
"302 589 LINE",
"304 586 OFFCURVE",
"307 583 OFFCURVE",
"310 582 CURVE SMOOTH",
"313 581 OFFCURVE",
"316 581 OFFCURVE",
"320 581 CURVE SMOOTH",
"347 581 LINE",
"283 700 LINE SMOOTH",
"280 706 OFFCURVE",
"277 710 OFFCURVE",
"273 712 CURVE SMOOTH",
"269 714 OFFCURVE",
"263 716 OFFCURVE",
"255 716 CURVE SMOOTH"
);
}
);
width = 519;
}
);
note = ograve;
unicode = 00F2;
},
{
glyphname = oacute;
layers = (
{
layerId = "18B4A443-2C69-4DCB-9619-77A7DD6AC8EC";
name = Light;
paths = (
{
closed = 1;
nodes = (
"250 506 OFFCURVE",
"218 499 OFFCURVE",
"188 487 CURVE SMOOTH",
"158 475 OFFCURVE",
"132 458 OFFCURVE",
"110 436 CURVE SMOOTH",
"88 414 OFFCURVE",
"70 387 OFFCURVE",
"56 355 CURVE SMOOTH",
"42 323 OFFCURVE",
"33 288 OFFCURVE",
"28 249 CURVE SMOOTH",
"23 210 OFFCURVE",
"24 175 OFFCURVE",
"30 144 CURVE SMOOTH",
"36 113 OFFCURVE",
"48 85 OFFCURVE",
"65 63 CURVE SMOOTH",
"82 41 OFFCURVE",
"103 24 OFFCURVE",
"130 12 CURVE SMOOTH",
"157 0 OFFCURVE",
"187 -6 OFFCURVE",
"223 -6 CURVE SMOOTH",
"259 -6 OFFCURVE",
"291 0 OFFCURVE",
"321 12 CURVE SMOOTH",
"351 24 OFFCURVE",
"377 41 OFFCURVE",
"399 63 CURVE SMOOTH",
"421 85 OFFCURVE",
"439 113 OFFCURVE",
"453 144 CURVE SMOOTH",
"467 175 OFFCURVE",
"476 210 OFFCURVE",
"481 249 CURVE SMOOTH",
"486 288 OFFCURVE",
"485 323 OFFCURVE",
"479 355 CURVE SMOOTH",
"473 387 OFFCURVE",
"461 414 OFFCURVE",
"444 436 CURVE SMOOTH",
"427 458 OFFCURVE",
"407 475 OFFCURVE",
"380 487 CURVE SMOOTH",
"353 499 OFFCURVE",
"322 506 OFFCURVE",
"286 506 CURVE SMOOTH"
);
},
{
closed = 1;
nodes = (
"198 31 OFFCURVE",
"173 36 OFFCURVE",
"152 46 CURVE SMOOTH",
"131 56 OFFCURVE",
"114 71 OFFCURVE",
"102 90 CURVE SMOOTH",
"90 109 OFFCURVE",
"81 132 OFFCURVE",
"77 159 CURVE SMOOTH",
"73 186 OFFCURVE",
"73 216 OFFCURVE",
"77 249 CURVE SMOOTH",
"81 282 OFFCURVE",
"88 312 OFFCURVE",
"99 339 CURVE SMOOTH",
"110 366 OFFCURVE",
"124 389 OFFCURVE",
"141 408 CURVE SMOOTH",
"158 427 OFFCURVE",
"179 443 OFFCURVE",
"202 453 CURVE SMOOTH",
"225 463 OFFCURVE",
"251 468 OFFCURVE",
"281 468 CURVE SMOOTH",
"311 468 OFFCURVE",
"336 463 OFFCURVE",
"357 453 CURVE SMOOTH",
"378 443 OFFCURVE",
"395 427 OFFCURVE",
"407 408 CURVE SMOOTH",
"419 389 OFFCURVE",
"428 366 OFFCURVE",
"432 339 CURVE SMOOTH",
"436 312 OFFCURVE",
"436 282 OFFCURVE",
"432 249 CURVE SMOOTH",
"428 216 OFFCURVE",
"421 186 OFFCURVE",
"410 159 CURVE SMOOTH",
"399 132 OFFCURVE",
"385 109 OFFCURVE",
"368 90 CURVE SMOOTH",
"351 71 OFFCURVE",
"330 56 OFFCURVE",
"307 46 CURVE SMOOTH",
"284 36 OFFCURVE",
"258 31 OFFCURVE",
"228 31 CURVE SMOOTH"
);
},
{
closed = 1;
nodes = (
"425 716 LINE",
"378 716 LINE SMOOTH",
"370 716 OFFCURVE",
"363 714 OFFCURVE",
"359 712 CURVE SMOOTH",
"355 710 OFFCURVE",
"350 706 OFFCURVE",
"346 700 CURVE",
"253 581 LINE",
"282 581 LINE SMOOTH",
"286 581 OFFCURVE",
"289 581 OFFCURVE",
"292 582 CURVE SMOOTH",
"295 583 OFFCURVE",
"298 586 OFFCURVE",
"301 589 CURVE SMOOTH"
);
}
);
width = 519;
}
);
note = oacute;
unicode = 00F3;
},
{
glyphname = ocircumflex;
layers = (
{
layerId = "18B4A443-2C69-4DCB-9619-77A7DD6AC8EC";
name = Light;
paths = (
{
closed = 1;
nodes = (
"250 506 OFFCURVE",
"218 499 OFFCURVE",
"188 487 CURVE SMOOTH",
"158 475 OFFCURVE",
"132 458 OFFCURVE",
"110 436 CURVE SMOOTH",
"88 414 OFFCURVE",
"70 387 OFFCURVE",
"56 355 CURVE SMOOTH",
"42 323 OFFCURVE",
"33 288 OFFCURVE",
"28 249 CURVE SMOOTH",
"23 210 OFFCURVE",
"24 175 OFFCURVE",
"30 144 CURVE SMOOTH",
"36 113 OFFCURVE",
"48 85 OFFCURVE",
"65 63 CURVE SMOOTH",
"82 41 OFFCURVE",
"103 24 OFFCURVE",
"130 12 CURVE SMOOTH",
"157 0 OFFCURVE",
"187 -6 OFFCURVE",
"223 -6 CURVE SMOOTH",
"259 -6 OFFCURVE",
"291 0 OFFCURVE",
"321 12 CURVE SMOOTH",
"351 24 OFFCURVE",
"377 41 OFFCURVE",
"399 63 CURVE SMOOTH",
"421 85 OFFCURVE",
"439 113 OFFCURVE",
"453 144 CURVE SMOOTH",
"467 175 OFFCURVE",
"476 210 OFFCURVE",
"481 249 CURVE SMOOTH",
"486 288 OFFCURVE",
"485 323 OFFCURVE",
"479 355 CURVE SMOOTH",
"473 387 OFFCURVE",
"461 414 OFFCURVE",
"444 436 CURVE SMOOTH",
"427 458 OFFCURVE",
"407 475 OFFCURVE",
"380 487 CURVE SMOOTH",
"353 499 OFFCURVE",
"322 506 OFFCURVE",
"286 506 CURVE SMOOTH"
);
},
{
closed = 1;
nodes = (
"198 31 OFFCURVE",
"173 36 OFFCURVE",
"152 46 CURVE SMOOTH",
"131 56 OFFCURVE",
"114 71 OFFCURVE",
"102 90 CURVE SMOOTH",
"90 109 OFFCURVE",
"81 132 OFFCURVE",
"77 159 CURVE SMOOTH",
"73 186 OFFCURVE",
"73 216 OFFCURVE",
"77 249 CURVE SMOOTH",
"81 282 OFFCURVE",
"88 312 OFFCURVE",
"99 339 CURVE SMOOTH",
"110 366 OFFCURVE",
"124 389 OFFCURVE",
"141 408 CURVE SMOOTH",
"158 427 OFFCURVE",
"179 443 OFFCURVE",
"202 453 CURVE SMOOTH",
"225 463 OFFCURVE",
"251 468 OFFCURVE",
"281 468 CURVE SMOOTH",
"311 468 OFFCURVE",
"336 463 OFFCURVE",
"357 453 CURVE SMOOTH",
"378 443 OFFCURVE",
"395 427 OFFCURVE",
"407 408 CURVE SMOOTH",
"419 389 OFFCURVE",
"428 366 OFFCURVE",
"432 339 CURVE SMOOTH",
"436 312 OFFCURVE",
"436 282 OFFCURVE",
"432 249 CURVE SMOOTH",
"428 216 OFFCURVE",
"421 186 OFFCURVE",
"410 159 CURVE SMOOTH",
"399 132 OFFCURVE",
"385 109 OFFCURVE",
"368 90 CURVE SMOOTH",
"351 71 OFFCURVE",
"330 56 OFFCURVE",
"307 46 CURVE SMOOTH",
"284 36 OFFCURVE",
"258 31 OFFCURVE",
"228 31 CURVE SMOOTH"
);
},
{
closed = 1;
nodes = (
"426 585 LINE",
"333 708 LINE",
"290 708 LINE",
"166 585 LINE",
"200 585 LINE SMOOTH",
"203 585 OFFCURVE",
"206 585 OFFCURVE",
"208 586 CURVE SMOOTH",
"210 587 OFFCURVE",
"212 588 OFFCURVE",
"214 590 CURVE",
"303 672 LINE",
"305 674 LINE SMOOTH",
"306 675 OFFCURVE",
"307 677 OFFCURVE",
"308 678 CURVE",
"309 676 OFFCURVE",
"311 673 OFFCURVE",
"313 672 CURVE",
"381 590 LINE",
"384 586 OFFCURVE",
"389 584 OFFCURVE",
"394 584 CURVE SMOOTH"
);
}
);
width = 519;
}
);
note = ocircumflex;
unicode = 00F4;
},
{
glyphname = otilde;
layers = (
{
layerId = "18B4A443-2C69-4DCB-9619-77A7DD6AC8EC";
name = Light;
paths = (
{
closed = 1;
nodes = (
"251 506 OFFCURVE",
"219 499 OFFCURVE",
"189 487 CURVE SMOOTH",
"159 475 OFFCURVE",
"133 458 OFFCURVE",
"111 436 CURVE SMOOTH",
"89 414 OFFCURVE",
"70 387 OFFCURVE",
"56 355 CURVE SMOOTH",
"42 323 OFFCURVE",
"33 288 OFFCURVE",
"28 249 CURVE SMOOTH",
"23 210 OFFCURVE",
"24 175 OFFCURVE",
"30 144 CURVE SMOOTH",
"36 113 OFFCURVE",
"48 85 OFFCURVE",
"65 63 CURVE SMOOTH",
"82 41 OFFCURVE",
"103 24 OFFCURVE",
"130 12 CURVE SMOOTH",
"157 0 OFFCURVE",
"188 -6 OFFCURVE",
"224 -6 CURVE SMOOTH",
"260 -6 OFFCURVE",
"292 0 OFFCURVE",
"322 12 CURVE SMOOTH",
"352 24 OFFCURVE",
"377 41 OFFCURVE",
"399 63 CURVE SMOOTH",
"421 85 OFFCURVE",
"439 113 OFFCURVE",
"453 144 CURVE SMOOTH",
"467 175 OFFCURVE",
"477 210 OFFCURVE",
"482 249 CURVE SMOOTH",
"487 288 OFFCURVE",
"485 323 OFFCURVE",
"479 355 CURVE SMOOTH",
"473 387 OFFCURVE",
"462 414 OFFCURVE",
"445 436 CURVE SMOOTH",
"428 458 OFFCURVE",
"407 475 OFFCURVE",
"380 487 CURVE SMOOTH",
"353 499 OFFCURVE",
"323 506 OFFCURVE",
"287 506 CURVE SMOOTH"
);
},
{
closed = 1;
nodes = (
"198 31 OFFCURVE",
"173 36 OFFCURVE",
"152 46 CURVE SMOOTH",
"131 56 OFFCURVE",
"114 71 OFFCURVE",
"102 90 CURVE SMOOTH",
"90 109 OFFCURVE",
"81 132 OFFCURVE",
"77 159 CURVE SMOOTH",
"73 186 OFFCURVE",
"73 216 OFFCURVE",
"77 249 CURVE SMOOTH",
"81 282 OFFCURVE",
"88 312 OFFCURVE",
"99 339 CURVE SMOOTH",
"110 366 OFFCURVE",
"124 389 OFFCURVE",
"141 408 CURVE SMOOTH",
"158 427 OFFCURVE",
"179 443 OFFCURVE",
"202 453 CURVE SMOOTH",
"225 463 OFFCURVE",
"252 468 OFFCURVE",
"282 468 CURVE SMOOTH",
"312 468 OFFCURVE",
"337 463 OFFCURVE",
"358 453 CURVE SMOOTH",
"379 443 OFFCURVE",
"396 427 OFFCURVE",
"408 408 CURVE SMOOTH",
"420 389 OFFCURVE",
"429 366 OFFCURVE",
"433 339 CURVE SMOOTH",
"437 312 OFFCURVE",
"437 282 OFFCURVE",
"433 249 CURVE SMOOTH",
"429 216 OFFCURVE",
"422 186 OFFCURVE",
"411 159 CURVE SMOOTH",
"400 132 OFFCURVE",
"386 109 OFFCURVE",
"369 90 CURVE SMOOTH",
"352 71 OFFCURVE",
"331 56 OFFCURVE",
"308 46 CURVE SMOOTH",
"285 36 OFFCURVE",
"258 31 OFFCURVE",
"228 31 CURVE SMOOTH"
);
},
{
closed = 1;
nodes = (
"352 640 OFFCURVE",
"344 642 OFFCURVE",
"336 648 CURVE SMOOTH",
"328 654 OFFCURVE",
"321 660 OFFCURVE",
"313 666 CURVE SMOOTH",
"305 672 OFFCURVE",
"296 678 OFFCURVE",
"287 684 CURVE SMOOTH",
"278 690 OFFCURVE",
"267 693 OFFCURVE",
"256 693 CURVE SMOOTH",
"245 693 OFFCURVE",
"235 690 OFFCURVE",
"225 686 CURVE SMOOTH",
"215 682 OFFCURVE",
"207 676 OFFCURVE",
"200 668 CURVE SMOOTH",
"193 660 OFFCURVE",
"187 652 OFFCURVE",
"182 641 CURVE",
"177 631 OFFCURVE",
"174 619 OFFCURVE",
"173 607 CURVE",
"203 607 LINE",
"206 622 OFFCURVE",
"212 634 OFFCURVE",
"220 644 CURVE SMOOTH",
"228 654 OFFCURVE",
"239 658 OFFCURVE",
"253 658 CURVE SMOOTH",
"262 658 OFFCURVE",
"270 656 OFFCURVE",
"278 650 CURVE SMOOTH",
"302 632 LINE SMOOTH",
"310 626 OFFCURVE",
"319 620 OFFCURVE",
"328 614 CURVE SMOOTH",
"337 608 OFFCURVE",
"347 606 OFFCURVE",
"358 606 CURVE SMOOTH",
"369 606 OFFCURVE",
"380 608 OFFCURVE",
"390 612 CURVE SMOOTH",
"400 616 OFFCURVE",
"408 622 OFFCURVE",
"415 630 CURVE SMOOTH",
"422 638 OFFCURVE",
"428 647 OFFCURVE",
"432 657 CURVE SMOOTH",
"436 667 OFFCURVE",
"440 679 OFFCURVE",
"441 691 CURVE",
"411 691 LINE",
"409 675 OFFCURVE",
"403 663 OFFCURVE",
"395 654 CURVE SMOOTH",
"387 645 OFFCURVE",
"375 640 OFFCURVE",
"361 640 CURVE SMOOTH"
);
}
);
width = 520;
}
);
note = otilde;
unicode = 00F5;
},
{
glyphname = odieresis;
layers = (
{
layerId = "18B4A443-2C69-4DCB-9619-77A7DD6AC8EC";
name = Light;
paths = (
{
closed = 1;
nodes = (
"251 506 OFFCURVE",
"219 499 OFFCURVE",
"189 487 CURVE SMOOTH",
"159 475 OFFCURVE",
"133 458 OFFCURVE",
"111 436 CURVE SMOOTH",
"89 414 OFFCURVE",
"70 387 OFFCURVE",
"56 355 CURVE SMOOTH",
"42 323 OFFCURVE",
"33 288 OFFCURVE",
"28 249 CURVE SMOOTH",
"23 210 OFFCURVE",
"24 175 OFFCURVE",
"30 144 CURVE SMOOTH",
"36 113 OFFCURVE",
"48 85 OFFCURVE",
"65 63 CURVE SMOOTH",
"82 41 OFFCURVE",
"103 24 OFFCURVE",
"130 12 CURVE SMOOTH",
"157 0 OFFCURVE",
"188 -6 OFFCURVE",
"224 -6 CURVE SMOOTH",
"260 -6 OFFCURVE",
"292 0 OFFCURVE",
"322 12 CURVE SMOOTH",
"352 24 OFFCURVE",
"377 41 OFFCURVE",
"399 63 CURVE SMOOTH",
"421 85 OFFCURVE",
"439 113 OFFCURVE",
"453 144 CURVE SMOOTH",
"467 175 OFFCURVE",
"477 210 OFFCURVE",
"482 249 CURVE SMOOTH",
"487 288 OFFCURVE",
"485 323 OFFCURVE",
"479 355 CURVE SMOOTH",
"473 387 OFFCURVE",
"462 414 OFFCURVE",
"445 436 CURVE SMOOTH",
"428 458 OFFCURVE",
"407 475 OFFCURVE",
"380 487 CURVE SMOOTH",
"353 499 OFFCURVE",
"323 506 OFFCURVE",
"287 506 CURVE SMOOTH"
);
},
{
closed = 1;
nodes = (
"198 31 OFFCURVE",
"173 36 OFFCURVE",
"152 46 CURVE SMOOTH",
"131 56 OFFCURVE",
"114 71 OFFCURVE",
"102 90 CURVE SMOOTH",
"90 109 OFFCURVE",
"81 132 OFFCURVE",
"77 159 CURVE SMOOTH",
"73 186 OFFCURVE",
"73 216 OFFCURVE",
"77 249 CURVE SMOOTH",
"81 282 OFFCURVE",
"88 312 OFFCURVE",
"99 339 CURVE SMOOTH",
"110 366 OFFCURVE",
"124 389 OFFCURVE",
"141 408 CURVE SMOOTH",
"158 427 OFFCURVE",
"179 443 OFFCURVE",
"202 453 CURVE SMOOTH",
"225 463 OFFCURVE",
"252 468 OFFCURVE",
"282 468 CURVE SMOOTH",
"312 468 OFFCURVE",
"337 463 OFFCURVE",
"358 453 CURVE SMOOTH",
"379 443 OFFCURVE",
"396 427 OFFCURVE",
"408 408 CURVE SMOOTH",
"420 389 OFFCURVE",
"429 366 OFFCURVE",
"433 339 CURVE SMOOTH",
"437 312 OFFCURVE",
"437 282 OFFCURVE",
"433 249 CURVE SMOOTH",
"429 216 OFFCURVE",
"422 186 OFFCURVE",
"411 159 CURVE SMOOTH",
"400 132 OFFCURVE",
"386 109 OFFCURVE",
"369 90 CURVE SMOOTH",
"352 71 OFFCURVE",
"331 56 OFFCURVE",
"308 46 CURVE SMOOTH",
"285 36 OFFCURVE",
"258 31 OFFCURVE",
"228 31 CURVE SMOOTH"
);
},
{
closed = 1;
nodes = (
"260 648 OFFCURVE",
"260 653 OFFCURVE",
"258 658 CURVE SMOOTH",
"256 663 OFFCURVE",
"253 667 OFFCURVE",
"250 671 CURVE SMOOTH",
"247 675 OFFCURVE",
"243 678 OFFCURVE",
"238 680 CURVE SMOOTH",
"233 682 OFFCURVE",
"228 684 OFFCURVE",
"223 684 CURVE SMOOTH",
"218 684 OFFCURVE",
"212 682 OFFCURVE",
"207 680 CURVE SMOOTH",
"202 678 OFFCURVE",
"197 675 OFFCURVE",
"193 671 CURVE SMOOTH",
"189 667 OFFCURVE",
"186 663 OFFCURVE",
"183 658 CURVE SMOOTH",
"180 653 OFFCURVE",
"178 648 OFFCURVE",
"177 642 CURVE SMOOTH",
"176 637 OFFCURVE",
"177 632 OFFCURVE",
"179 627 CURVE SMOOTH",
"181 622 OFFCURVE",
"183 618 OFFCURVE",
"186 614 CURVE SMOOTH",
"189 610 OFFCURVE",
"193 607 OFFCURVE",
"198 605 CURVE SMOOTH",
"203 603 OFFCURVE",
"208 602 OFFCURVE",
"213 602 CURVE SMOOTH",
"218 602 OFFCURVE",
"224 603 OFFCURVE",
"229 605 CURVE SMOOTH",
"234 607 OFFCURVE",
"239 610 OFFCURVE",
"243 614 CURVE SMOOTH",
"247 618 OFFCURVE",
"251 622 OFFCURVE",
"254 627 CURVE SMOOTH",
"257 632 OFFCURVE",
"258 637 OFFCURVE",
"259 642 CURVE SMOOTH"
);
},
{
closed = 1;
nodes = (
"432 648 OFFCURVE",
"431 653 OFFCURVE",
"429 658 CURVE SMOOTH",
"427 663 OFFCURVE",
"425 667 OFFCURVE",
"422 671 CURVE SMOOTH",
"419 675 OFFCURVE",
"415 678 OFFCURVE",
"410 680 CURVE SMOOTH",
"405 682 OFFCURVE",
"399 684 OFFCURVE",
"394 684 CURVE SMOOTH",
"388 684 OFFCURVE",
"383 682 OFFCURVE",
"378 680 CURVE SMOOTH",
"373 678 OFFCURVE",
"368 675 OFFCURVE",
"364 671 CURVE SMOOTH",
"360 667 OFFCURVE",
"357 663 OFFCURVE",
"354 658 CURVE SMOOTH",
"351 653 OFFCURVE",
"349 648 OFFCURVE",
"348 642 CURVE SMOOTH",
"347 637 OFFCURVE",
"348 632 OFFCURVE",
"350 627 CURVE SMOOTH",
"352 622 OFFCURVE",
"354 618 OFFCURVE",
"357 614 CURVE SMOOTH",
"360 610 OFFCURVE",
"364 607 OFFCURVE",
"369 605 CURVE SMOOTH",
"374 603 OFFCURVE",
"378 602 OFFCURVE",
"384 602 CURVE SMOOTH",
"389 602 OFFCURVE",
"396 603 OFFCURVE",
"401 605 CURVE SMOOTH",
"406 607 OFFCURVE",
"411 610 OFFCURVE",
"415 614 CURVE SMOOTH",
"419 618 OFFCURVE",
"422 622 OFFCURVE",
"425 627 CURVE SMOOTH",
"428 632 OFFCURVE",
"430 637 OFFCURVE",
"431 642 CURVE SMOOTH"
);
}
);
width = 520;
}
);
note = odieresis;
unicode = 00F6;
},
{
color = 4;
glyphname = divide;
lastChange = "2015-10-08 21:33:16 +0000";
layers = (
{
layerId = "18B4A443-2C69-4DCB-9619-77A7DD6AC8EC";
name = Light;
paths = (
{
closed = 1;
nodes = (
"32 354 LINE",
"28 317 LINE",
"497 317 LINE",
"501 354 LINE"
);
},
{
closed = 1;
nodes = (
"306 466 OFFCURVE",
"331 488 OFFCURVE",
"332 513 CURVE SMOOTH",
"335 538 OFFCURVE",
"318 560 OFFCURVE",
"292 560 CURVE SMOOTH",
"266 560 OFFCURVE",
"241 538 OFFCURVE",
"239 513 CURVE SMOOTH",
"237 488 OFFCURVE",
"255 466 OFFCURVE",
"280 466 CURVE SMOOTH"
);
},
{
closed = 1;
nodes = (
"263 110 OFFCURVE",
"288 132 OFFCURVE",
"289 157 CURVE SMOOTH",
"292 182 OFFCURVE",
"275 204 OFFCURVE",
"249 204 CURVE SMOOTH",
"223 204 OFFCURVE",
"198 182 OFFCURVE",
"196 157 CURVE SMOOTH",
"194 132 OFFCURVE",
"212 110 OFFCURVE",
"237 110 CURVE SMOOTH"
);
}
);
width = 526;
}
);
note = divide;
unicode = 00F7;
},
{
color = 4;
glyphname = oslash;
lastChange = "2015-10-09 07:34:47 +0000";
layers = (
{
layerId = "18B4A443-2C69-4DCB-9619-77A7DD6AC8EC";
name = Light;
paths = (
{
closed = 1;
nodes = (
"544 531 LINE",
"519 531 LINE SMOOTH",
"505 531 OFFCURVE",
"502 527 OFFCURVE",
"493 516 CURVE",
"442 458 LINE",
"408 490 OFFCURVE",
"356 506 OFFCURVE",
"305 506 CURVE SMOOTH",
"162 506 OFFCURVE",
"66 405 OFFCURVE",
"46 249 CURVE SMOOTH",
"38 179 OFFCURVE",
"46 103 OFFCURVE",
"91 53 CURVE",
"12 -38 LINE",
"32 -38 LINE SMOOTH",
"41 -38 OFFCURVE",
"55 -34 OFFCURVE",
"65 -22 CURVE SMOOTH",
"112 33 LINE",
"145 7 OFFCURVE",
"188 -6 OFFCURVE",
"242 -6 CURVE SMOOTH",
"389 -6 OFFCURVE",
"480 99 OFFCURVE",
"500 249 CURVE SMOOTH",
"508 312 OFFCURVE",
"501 385 OFFCURVE",
"462 436 CURVE"
);
},
{
closed = 1;
nodes = (
"108 378 OFFCURVE",
"179 469 OFFCURVE",
"300 469 CURVE SMOOTH",
"341 469 OFFCURVE",
"384 458 OFFCURVE",
"414 426 CURVE",
"120 87 LINE",
"89 129 OFFCURVE",
"86 188 OFFCURVE",
"93 249 CURVE SMOOTH"
);
},
{
closed = 1;
nodes = (
"201 30 OFFCURVE",
"166 42 OFFCURVE",
"140 65 CURVE",
"432 402 LINE",
"454 364 OFFCURVE",
"461 313 OFFCURVE",
"453 249 CURVE SMOOTH",
"437 122 OFFCURVE",
"368 30 OFFCURVE",
"246 30 CURVE SMOOTH"
);
}
);
width = 559;
}
);
note = oslash;
unicode = 00F8;
},
{
glyphname = ugrave;
layers = (
{
layerId = "18B4A443-2C69-4DCB-9619-77A7DD6AC8EC";
name = Light;
paths = (
{
closed = 1;
nodes = (
"487 38 LINE",
"479 38 LINE SMOOTH",
"476 38 OFFCURVE",
"471 39 OFFCURVE",
"464 39 CURVE SMOOTH",
"457 39 OFFCURVE",
"449 40 OFFCURVE",
"440 40 CURVE",
"496 498 LINE",
"448 497 LINE",
"376 497 LINE",
"374 478 LINE SMOOTH",
"373 467 OFFCURVE",
"378 461 OFFCURVE",
"391 460 CURVE",
"397 460 LINE SMOOTH",
"399 460 OFFCURVE",
"401 459 OFFCURVE",
"404 459 CURVE SMOOTH",
"419 459 LINE SMOOTH",
"426 459 OFFCURVE",
"435 458 OFFCURVE",
"444 458 CURVE",
"402 124 LINE",
"376 95 OFFCURVE",
"348 72 OFFCURVE",
"318 55 CURVE SMOOTH",
"288 39 OFFCURVE",
"256 30 OFFCURVE",
"224 30 CURVE SMOOTH",
"180 30 OFFCURVE",
"149 44 OFFCURVE",
"131 70 CURVE SMOOTH",
"113 97 OFFCURVE",
"107 133 OFFCURVE",
"113 180 CURVE SMOOTH",
"152 498 LINE",
"104 497 LINE",
"32 497 LINE",
"30 478 LINE SMOOTH",
"29 467 OFFCURVE",
"34 461 OFFCURVE",
"47 460 CURVE",
"53 460 LINE SMOOTH",
"55 460 OFFCURVE",
"57 459 OFFCURVE",
"60 459 CURVE SMOOTH",
"75 459 LINE SMOOTH",
"82 459 OFFCURVE",
"91 458 OFFCURVE",
"100 458 CURVE",
"65 180 LINE SMOOTH",
"61 151 OFFCURVE",
"62 125 OFFCURVE",
"66 102 CURVE SMOOTH",
"70 79 OFFCURVE",
"78 59 OFFCURVE",
"90 43 CURVE SMOOTH",
"102 27 OFFCURVE",
"117 14 OFFCURVE",
"137 5 CURVE SMOOTH",
"157 -4 OFFCURVE",
"180 -8 OFFCURVE",
"208 -8 CURVE SMOOTH",
"245 -8 OFFCURVE",
"280 1 OFFCURVE",
"312 18 CURVE SMOOTH",
"344 35 OFFCURVE",
"373 58 OFFCURVE",
"400 87 CURVE",
"396 13 LINE",
"395 4 OFFCURVE",
"400 0 OFFCURVE",
"409 0 CURVE SMOOTH",
"435 0 LINE",
"507 0 LINE",
"509 20 LINE SMOOTH",
"510 31 OFFCURVE",
"505 37 OFFCURVE",
"492 38 CURVE"
);
},
{
closed = 1;
nodes = (
"227 716 LINE",
"320 589 LINE",
"322 586 OFFCURVE",
"325 583 OFFCURVE",
"328 582 CURVE SMOOTH",
"331 581 OFFCURVE",
"334 581 OFFCURVE",
"338 581 CURVE SMOOTH",
"365 581 LINE",
"301 700 LINE SMOOTH",
"298 706 OFFCURVE",
"295 710 OFFCURVE",
"291 712 CURVE SMOOTH",
"287 714 OFFCURVE",
"281 716 OFFCURVE",
"273 716 CURVE SMOOTH"
);
}
);
width = 560;
}
);
note = ugrave;
unicode = 00F9;
},
{
glyphname = uacute;
layers = (
{
layerId = "18B4A443-2C69-4DCB-9619-77A7DD6AC8EC";
name = Light;
paths = (
{
closed = 1;
nodes = (
"487 38 LINE",
"479 38 LINE SMOOTH",
"476 38 OFFCURVE",
"471 39 OFFCURVE",
"464 39 CURVE SMOOTH",
"457 39 OFFCURVE",
"449 40 OFFCURVE",
"440 40 CURVE",
"496 498 LINE",
"448 497 LINE",
"376 497 LINE",
"374 478 LINE SMOOTH",
"373 467 OFFCURVE",
"378 461 OFFCURVE",
"391 460 CURVE",
"397 460 LINE SMOOTH",
"399 460 OFFCURVE",
"401 459 OFFCURVE",
"404 459 CURVE SMOOTH",
"419 459 LINE SMOOTH",
"426 459 OFFCURVE",
"435 458 OFFCURVE",
"444 458 CURVE",
"402 124 LINE",
"376 95 OFFCURVE",
"348 72 OFFCURVE",
"318 55 CURVE SMOOTH",
"288 39 OFFCURVE",
"256 30 OFFCURVE",
"224 30 CURVE SMOOTH",
"180 30 OFFCURVE",
"149 44 OFFCURVE",
"131 70 CURVE SMOOTH",
"113 97 OFFCURVE",
"107 133 OFFCURVE",
"113 180 CURVE SMOOTH",
"152 498 LINE",
"104 497 LINE",
"32 497 LINE",
"30 478 LINE SMOOTH",
"29 467 OFFCURVE",
"34 461 OFFCURVE",
"47 460 CURVE",
"53 460 LINE SMOOTH",
"55 460 OFFCURVE",
"57 459 OFFCURVE",
"60 459 CURVE SMOOTH",
"75 459 LINE SMOOTH",
"82 459 OFFCURVE",
"91 458 OFFCURVE",
"100 458 CURVE",
"65 180 LINE SMOOTH",
"61 151 OFFCURVE",
"62 125 OFFCURVE",
"66 102 CURVE SMOOTH",
"70 79 OFFCURVE",
"78 59 OFFCURVE",
"90 43 CURVE SMOOTH",
"102 27 OFFCURVE",
"117 14 OFFCURVE",
"137 5 CURVE SMOOTH",
"157 -4 OFFCURVE",
"180 -8 OFFCURVE",
"208 -8 CURVE SMOOTH",
"245 -8 OFFCURVE",
"280 1 OFFCURVE",
"312 18 CURVE SMOOTH",
"344 35 OFFCURVE",
"373 58 OFFCURVE",
"400 87 CURVE",
"396 13 LINE",
"395 4 OFFCURVE",
"400 0 OFFCURVE",
"409 0 CURVE SMOOTH",
"435 0 LINE",
"507 0 LINE",
"509 20 LINE SMOOTH",
"510 31 OFFCURVE",
"505 37 OFFCURVE",
"492 38 CURVE"
);
},
{
closed = 1;
nodes = (
"443 716 LINE",
"396 716 LINE SMOOTH",
"388 716 OFFCURVE",
"381 714 OFFCURVE",
"377 712 CURVE SMOOTH",
"373 710 OFFCURVE",
"368 706 OFFCURVE",
"364 700 CURVE",
"271 581 LINE",
"300 581 LINE SMOOTH",
"304 581 OFFCURVE",
"307 581 OFFCURVE",
"310 582 CURVE SMOOTH",
"313 583 OFFCURVE",
"316 586 OFFCURVE",
"319 589 CURVE SMOOTH"
);
}
);
width = 560;
}
);
note = uacute;
unicode = 00FA;
},
{
glyphname = ucircumflex;
layers = (
{
layerId = "18B4A443-2C69-4DCB-9619-77A7DD6AC8EC";
name = Light;
paths = (
{
closed = 1;
nodes = (
"487 38 LINE",
"479 38 LINE SMOOTH",
"476 38 OFFCURVE",
"471 39 OFFCURVE",
"464 39 CURVE SMOOTH",
"457 39 OFFCURVE",
"449 40 OFFCURVE",
"440 40 CURVE",
"496 498 LINE",
"448 497 LINE",
"376 497 LINE",
"374 478 LINE SMOOTH",
"373 467 OFFCURVE",
"378 461 OFFCURVE",
"391 460 CURVE",
"397 460 LINE SMOOTH",
"399 460 OFFCURVE",
"401 459 OFFCURVE",
"404 459 CURVE SMOOTH",
"419 459 LINE SMOOTH",
"426 459 OFFCURVE",
"435 458 OFFCURVE",
"444 458 CURVE",
"402 124 LINE",
"376 95 OFFCURVE",
"348 72 OFFCURVE",
"318 55 CURVE SMOOTH",
"288 39 OFFCURVE",
"256 30 OFFCURVE",
"224 30 CURVE SMOOTH",
"180 30 OFFCURVE",
"149 44 OFFCURVE",
"131 70 CURVE SMOOTH",
"113 97 OFFCURVE",
"107 133 OFFCURVE",
"113 180 CURVE SMOOTH",
"152 498 LINE",
"104 497 LINE",
"32 497 LINE",
"30 478 LINE SMOOTH",
"29 467 OFFCURVE",
"34 461 OFFCURVE",
"47 460 CURVE",
"53 460 LINE SMOOTH",
"55 460 OFFCURVE",
"57 459 OFFCURVE",
"60 459 CURVE SMOOTH",
"75 459 LINE SMOOTH",
"82 459 OFFCURVE",
"91 458 OFFCURVE",
"100 458 CURVE",
"65 180 LINE SMOOTH",
"61 151 OFFCURVE",
"62 125 OFFCURVE",
"66 102 CURVE SMOOTH",
"70 79 OFFCURVE",
"78 59 OFFCURVE",
"90 43 CURVE SMOOTH",
"102 27 OFFCURVE",
"117 14 OFFCURVE",
"137 5 CURVE SMOOTH",
"157 -4 OFFCURVE",
"180 -8 OFFCURVE",
"208 -8 CURVE SMOOTH",
"245 -8 OFFCURVE",
"280 1 OFFCURVE",
"312 18 CURVE SMOOTH",
"344 35 OFFCURVE",
"373 58 OFFCURVE",
"400 87 CURVE",
"396 13 LINE",
"395 4 OFFCURVE",
"400 0 OFFCURVE",
"409 0 CURVE SMOOTH",
"435 0 LINE",
"507 0 LINE",
"509 20 LINE SMOOTH",
"510 31 OFFCURVE",
"505 37 OFFCURVE",
"492 38 CURVE"
);
},
{
closed = 1;
nodes = (
"444 585 LINE",
"351 708 LINE",
"308 708 LINE",
"184 585 LINE",
"218 585 LINE SMOOTH",
"221 585 OFFCURVE",
"223 585 OFFCURVE",
"225 586 CURVE SMOOTH",
"227 587 OFFCURVE",
"230 589 OFFCURVE",
"232 591 CURVE",
"320 672 LINE",
"321 673 OFFCURVE",
"322 673 OFFCURVE",
"323 674 CURVE SMOOTH",
"324 675 OFFCURVE",
"325 677 OFFCURVE",
"326 678 CURVE",
"327 676 OFFCURVE",
"329 673 OFFCURVE",
"331 672 CURVE",
"399 591 LINE",
"402 587 OFFCURVE",
"407 585 OFFCURVE",
"412 585 CURVE SMOOTH"
);
}
);
width = 560;
}
);
note = ucircumflex;
unicode = 00FB;
},
